<?xml version="1.0" encoding="iso-8859-1"?>
<!-- Generator: Adobe Illustrator 19.0.0, SVG Export Plug-In . SVG Version: 6.00 Build 0)  -->
<svg version="1.1" id="Capa_1" xmlns="http://www.w3.org/2000/svg" xmlns:xlink="http://www.w3.org/1999/xlink" x="0px" y="0px"
	 viewBox="0 0 512 512" style="enable-background:new 0 0 512 512;" xml:space="preserve">
<path style="fill:#FBDEBA;" d="M234.035,230.4l-34.133-34.133l-25.6-42.667H37.769V42.667h247.467l34.133-34.133h110.225
	c9.813,0.009,17.766,7.962,17.775,17.775l0,0c0.009,9.25-7.083,16.947-16.299,17.715L344.969,51.2l34.133,34.133L234.035,230.4z"/>
<path style="fill:#555160;" d="M464.503,470.989h-0.085c-72.073-34.33-131.319-90.735-169.156-161.024l-1.493-2.765l-128-8.533
	l-0.7,0.469c-65.033,43.349-109.824,111.113-124.228,187.93l-3.072,16.401h419.396c9.429,0,17.067-7.637,17.075-17.058
	C474.24,479.821,470.451,473.822,464.503,470.989z"/>
<rect x="424.994" y="65.463" transform="matrix(-0.7071 0.7071 -0.7071 -0.7071 819.7704 -160.3606)" style="fill:#D12136;" width="36.207" height="48.273"/>
<polygon style="fill:#FFBC05;" points="464.435,136.533 396.169,68.267 165.769,298.667 293.769,307.2 "/>
<g>
	<path style="fill:#FBDEBA;" d="M293.769,247.467L293.769,247.467c9.429-9.429,24.713-9.429,34.133-0.009l34.142,34.142
		c9.421,9.421,9.421,24.704,0,34.125l-0.009,0.009c-9.421,9.421-24.704,9.421-34.125,0l-34.142-34.142
		C284.339,272.171,284.339,256.887,293.769,247.467z"/>
	<path style="fill:#FBDEBA;" d="M327.902,213.333L327.902,213.333c9.429-9.429,24.713-9.429,34.133-0.009l34.142,34.142
		c9.421,9.421,9.421,24.704,0,34.125l-0.009,0.009c-9.421,9.421-24.704,9.421-34.125,0l-34.142-34.142
		C318.473,238.037,318.473,222.754,327.902,213.333z"/>
	<path style="fill:#FBDEBA;" d="M362.035,179.2L362.035,179.2c9.429-9.429,24.713-9.429,34.133-0.009l34.142,34.142
		c9.421,9.421,9.421,24.704,0,34.125l-0.009,0.009c-9.421,9.421-24.704,9.421-34.125,0l-34.142-34.142
		C352.606,203.904,352.606,188.621,362.035,179.2z"/>
	<path style="fill:#FBDEBA;" d="M396.169,145.067L396.169,145.067c9.429-9.429,24.713-9.429,34.133-0.009l34.142,34.142
		c9.421,9.421,9.421,24.704,0,34.125l-0.009,0.009c-9.421,9.421-24.704,9.421-34.125,0L396.169,179.2
		C386.739,169.771,386.739,154.496,396.169,145.067z"/>
</g>
<path style="fill:#3B3944;" d="M464.503,470.989h-0.085c-66.355-31.625-121.967-82.031-159.94-144.973
	C233.37,400.58,142.592,453.47,42.658,478.566c-0.614,2.833-1.28,5.649-1.818,8.533l-3.072,16.367h419.396
	c9.429,0,17.067-7.637,17.075-17.058C474.24,479.821,470.451,473.822,464.503,470.989z"/>
<path style="fill:#E2B186;" d="M176.503,157.269l23.398,38.997l34.133,34.133L379.102,85.333L350.089,56.32
	C282.3,68.898,220.962,104.567,176.503,157.269z"/>
<path d="M37.769,162.133h131.703l23.117,38.528c0.358,0.597,0.794,1.143,1.28,1.638l28.1,28.1l-61.636,61.636
	C93.525,336.802,47.462,406.485,32.461,485.496l-3.072,16.393c-0.87,4.634,2.176,9.097,6.81,9.967
	c0.521,0.094,1.041,0.145,1.57,0.145h419.396c14.14,0,25.6-11.469,25.6-25.6c0-9.907-5.717-18.918-14.677-23.151
	c-69.53-32.93-126.865-87.014-163.789-154.513l2.27-2.27l15.3,15.3c12.672,12.757,33.28,12.826,46.037,0.162
	c6.596-6.554,10.078-15.616,9.566-24.909c0.546,0,1.084,0.162,1.63,0.162c17.911,0.068,32.486-14.387,32.555-32.299
	c0-0.666-0.017-1.331-0.051-1.997c0.546,0,1.084,0.162,1.63,0.162c17.911,0.068,32.486-14.387,32.555-32.299
	c0-0.666-0.017-1.331-0.051-1.997c0.546,0,1.084,0.162,1.63,0.162c18.039,0.009,32.666-14.609,32.674-32.64
	c0-8.67-3.439-16.99-9.574-23.117l-15.3-15.292l15.3-15.3c3.328-3.328,3.328-8.738,0-12.066l-11.034-11.034L479.002,99.9
	c3.328-3.337,3.328-8.738,0-12.066L444.868,53.7c-2.125-2.082-5.188-2.876-8.064-2.108c13.969-3.977,22.067-18.534,18.082-32.503
	C451.669,7.791,441.344,0,429.594,0H319.369c-2.261,0-4.437,0.896-6.033,2.5l-31.633,31.633H37.769c-4.71,0-8.533,3.823-8.533,8.533
	V153.6C29.235,158.31,33.058,162.133,37.769,162.133z M460.834,478.72c4.241,2.057,6.016,7.159,3.959,11.401
	c-1.417,2.927-4.378,4.796-7.629,4.813H48.051l1.178-6.289c14.089-73.796,56.875-138.991,118.98-181.265l120.32,8.021
	C327.134,386.782,387.49,443.989,460.834,478.72z M356.002,309.76c-6.101,6.084-15.966,6.084-22.067,0l-34.133-34.133
	c-5.965-6.221-5.751-16.102,0.478-22.067c6.033-5.786,15.556-5.786,21.589,0l34.133,34.133c6.042,6.093,6.042,15.915,0,22.007
	V309.76z M390.135,275.627c-6.101,6.084-15.966,6.084-22.067,0l-34.133-34.133c-5.965-6.221-5.751-16.102,0.478-22.067
	c6.033-5.786,15.556-5.786,21.589,0l34.133,34.133c6.042,6.093,6.042,15.915,0,22.007V275.627z M424.269,241.493
	c-6.101,6.084-15.966,6.084-22.067,0l-34.133-34.133c-5.965-6.221-5.751-16.102,0.478-22.067c6.033-5.786,15.556-5.786,21.589,0
	l34.133,34.133c6.042,6.093,6.042,15.915,0,22.007V241.493z M458.402,207.36c-6.101,6.084-15.966,6.084-22.067,0l-34.133-34.133
	c-5.965-6.221-5.751-16.102,0.478-22.067c6.033-5.786,15.556-5.786,21.589,0l34.133,34.133c6.042,6.093,6.042,15.915,0,22.007
	V207.36z M436.335,139.093c-12.672-12.757-33.28-12.826-46.037-0.162c-6.596,6.554-10.078,15.616-9.566,24.909
	c-17.809-1.041-33.092,12.544-34.133,30.353c-0.077,1.263-0.077,2.517,0,3.78c-17.809-1.041-33.092,12.544-34.133,30.353
	c-0.077,1.263-0.077,2.517,0,3.78c-17.954-0.998-33.314,12.749-34.313,30.694c-0.512,9.284,2.961,18.347,9.566,24.909l6.767,6.767
	l-4.028,4.028l-105.378-7.023l54.972-54.972L385.118,91.443l11.051-11.11l11.034,11.034l34.133,34.133l11.034,11.034l-9.267,9.267
	L436.335,139.093z M460.902,93.867l-13.534,13.534l-22.067-22.067l13.534-13.534L460.902,93.867z M432.802,53.7l-19.567,19.567
	l-11.034-11.034c-3.328-3.328-8.738-3.328-12.066,0l-11.034,11.034l-15.095-15.095l67.772-5.641c1.297-0.137,2.577-0.367,3.831-0.7
	C434.56,52.267,433.604,52.898,432.802,53.7z M46.302,51.2h238.933c2.261,0,4.437-0.896,6.033-2.5l31.633-31.633h106.667
	c5.103-0.051,9.276,4.053,9.327,9.156c0.051,4.873-3.695,8.943-8.559,9.301l-86.076,7.142c-4.693,0.41-8.175,4.54-7.765,9.242
	c0.171,1.988,1.033,3.849,2.441,5.265l28.1,28.16L234.035,218.334l-27.358-27.358l-25.062-41.771
	c-1.545-2.569-4.318-4.139-7.313-4.139h-128C46.302,145.067,46.302,51.2,46.302,51.2z"/>
<g>
</g>
<g>
</g>
<g>
</g>
<g>
</g>
<g>
</g>
<g>
</g>
<g>
</g>
<g>
</g>
<g>
</g>
<g>
</g>
<g>
</g>
<g>
</g>
<g>
</g>
<g>
</g>
<g>
</g>
</svg>
