<?xml version="1.0" encoding="UTF-8" standalone="no"?>
<!DOCTYPE svg PUBLIC "-//W3C//DTD SVG 1.1//EN" "http://www.w3.org/Graphics/SVG/1.1/DTD/svg11.dtd">
<svg version="1.1" xmlns="http://www.w3.org/2000/svg" xmlns:xlink="http://www.w3.org/1999/xlink" preserveAspectRatio="xMidYMid meet" viewBox="0 0 640 1280" width="640" height="1280"><defs><path d="M10.62 543.72C10.76 544.03 11.43 545.57 12.64 548.36L60.98 536.88C61.21 636.16 61.33 691.31 61.36 702.34C61.37 705.57 61.34 708.82 61.32 712.08C61.27 718.59 61.18 725.16 61.02 731.76C60.8 741.43 60.47 751.2 60.06 761.01C60.03 761.53 59.99 762.05 59.97 762.58C59.12 782.38 57.97 802.36 56.69 822.28C54.97 849.22 53.05 875.99 51.48 901.98C50.32 921.24 49.36 940.07 48.79 958.16C48.4 970.58 48.18 982.64 48.24 994.28C48.28 1000.01 48.37 1005.64 48.54 1011.14C48.71 1016.65 49.02 1022.25 49.42 1027.92C49.62 1030.76 49.84 1033.59 50.09 1036.46C50.86 1045.03 51.87 1053.75 53.04 1062.43C53.04 1062.45 53.03 1062.46 53.04 1062.47C53.81 1068.27 54.68 1074.03 55.6 1079.79C56.52 1085.55 57.48 1091.29 58.5 1096.94C59.52 1102.58 60.61 1108.17 61.7 1113.64C61.7 1113.65 61.69 1113.66 61.7 1113.68C62.24 1116.42 62.78 1119.07 63.33 1121.76C65 1129.79 66.72 1137.58 68.42 1144.96C68.42 1144.97 68.42 1144.98 68.42 1145C69.56 1149.92 70.67 1154.66 71.78 1159.21C74 1168.31 76.13 1176.59 78.05 1183.77C80.92 1194.54 83.33 1202.84 84.77 1207.76C85.74 1211.04 86.29 1212.81 86.29 1212.81C86.79 1214.63 90.83 1229.14 91.33 1230.96C91.67 1232.16 92.26 1233.32 93.1 1234.44C93.38 1234.82 93.68 1235.18 94.02 1235.56C95.34 1237.02 97.08 1238.41 99.19 1239.74C99.2 1239.75 99.22 1239.74 99.23 1239.74C100.29 1240.41 101.44 1241.1 102.68 1241.73C102.69 1241.74 102.71 1241.72 102.72 1241.73C103.96 1242.36 105.3 1242.99 106.72 1243.59C106.73 1243.6 106.75 1243.59 106.76 1243.59C118.2 1248.46 135.18 1252.37 155.48 1255.44C155.49 1255.44 155.51 1255.44 155.52 1255.44C155.83 1255.49 156.17 1255.52 156.49 1255.57C160.97 1256.24 165.63 1256.88 170.4 1257.47C170.73 1257.51 171.04 1257.56 171.37 1257.6C176.81 1258.26 182.4 1258.85 188.14 1259.42C188.15 1259.42 188.17 1259.42 188.18 1259.42C191.04 1259.7 193.96 1259.99 196.88 1260.25C196.9 1260.25 196.91 1260.25 196.92 1260.25C199.85 1260.51 202.77 1260.76 205.75 1260.99C205.77 1261 205.78 1260.99 205.79 1260.99C211.76 1261.47 217.83 1261.89 223.95 1262.28C223.97 1262.28 223.98 1262.28 224 1262.28C242.4 1263.44 261.38 1264.21 279.9 1264.64C279.92 1264.64 279.93 1264.64 279.95 1264.64C292.31 1264.92 304.44 1265.05 316.14 1265.05C317.44 1265.05 318.78 1265.02 320.09 1265.01C321.4 1265.02 322.74 1265.05 324.04 1265.05C335.73 1265.05 347.87 1264.92 360.23 1264.64C360.25 1264.64 360.26 1264.64 360.28 1264.64C378.8 1264.21 397.78 1263.44 416.18 1262.28C416.2 1262.28 416.21 1262.28 416.23 1262.28C422.35 1261.89 428.42 1261.47 434.39 1260.99C434.4 1260.99 434.41 1261 434.43 1260.99C437.4 1260.76 440.33 1260.51 443.25 1260.25C443.27 1260.25 443.28 1260.25 443.3 1260.25C446.22 1259.99 449.14 1259.7 452 1259.42C452.01 1259.42 452.03 1259.42 452.04 1259.42C457.78 1258.85 463.37 1258.26 468.81 1257.6C469.14 1257.56 469.45 1257.51 469.78 1257.47C474.55 1256.88 479.21 1256.24 483.69 1255.57C484.01 1255.52 484.35 1255.49 484.66 1255.44C484.67 1255.44 484.69 1255.44 484.7 1255.44C505 1252.37 521.98 1248.46 533.42 1243.59C533.43 1243.59 533.45 1243.6 533.46 1243.59C534.88 1242.99 536.21 1242.36 537.46 1241.73C537.47 1241.72 537.49 1241.74 537.5 1241.73C538.74 1241.1 539.89 1240.41 540.95 1239.74C540.96 1239.74 540.98 1239.75 540.99 1239.74C543.1 1238.41 544.84 1237.02 546.16 1235.56C546.5 1235.18 546.8 1234.82 547.08 1234.44C547.92 1233.32 548.51 1232.16 548.85 1230.96C549.35 1229.14 553.39 1214.63 553.89 1212.81C553.89 1212.81 554.44 1211.04 555.41 1207.76C556.85 1202.84 559.26 1194.54 562.13 1183.77C564.04 1176.59 566.18 1168.31 568.4 1159.21C569.51 1154.66 570.62 1149.92 571.76 1145C571.76 1144.98 571.76 1144.97 571.76 1144.96C573.46 1137.58 575.17 1129.79 576.84 1121.76C577.4 1119.07 577.94 1116.42 578.48 1113.68C578.49 1113.66 578.48 1113.65 578.48 1113.64C579.57 1108.17 580.66 1102.58 581.68 1096.94C582.7 1091.29 583.66 1085.55 584.58 1079.79C585.5 1074.03 586.37 1068.27 587.14 1062.47C587.14 1062.46 587.14 1062.45 587.14 1062.43C588.31 1053.75 589.32 1045.03 590.09 1036.46C590.34 1033.59 590.56 1030.76 590.76 1027.92C591.16 1022.25 591.47 1016.65 591.64 1011.14C591.81 1005.64 591.9 1000.01 591.94 994.28C592 982.64 591.78 970.58 591.39 958.16C590.82 940.07 589.86 921.24 588.7 901.98C587.13 875.99 585.21 849.22 583.49 822.28C582.21 802.36 581.06 782.38 580.21 762.58C580.18 762.05 580.15 761.53 580.12 761.01C579.71 751.2 579.38 741.43 579.16 731.76C579 725.16 578.91 718.59 578.86 712.08C578.84 708.82 578.81 705.57 578.82 702.34C578.85 691.31 578.97 636.16 579.2 536.88L627.54 548.36C628.75 545.57 629.42 544.03 629.56 543.72C630.41 541.4 630.81 537.14 630.82 535.14C630.83 534.02 630.72 532.82 630.48 531.58C630.4 531.17 630.29 530.75 630.19 530.34C630.09 529.93 629.98 529.5 629.85 529.09C629.59 528.26 629.29 527.42 628.93 526.61C627.86 524.19 626.33 521.92 624.47 520.27C624.46 520.26 624.44 520.24 624.43 520.23C623.49 519.4 622.48 518.75 621.36 518.28C618.55 517.21 604.51 511.84 579.24 502.17C579.44 414.72 579.55 366.14 579.58 356.42C580.08 355.43 580.58 354.47 581.05 353.48C582.93 349.53 584.54 345.65 585.92 341.76C586.61 339.82 587.24 337.89 587.82 335.96C589.84 329.2 591.25 322.45 592.19 315.62C592.73 311.71 593.12 307.76 593.41 303.77C593.55 301.77 593.65 299.75 593.74 297.72C593.93 293.67 594.03 289.58 594.08 285.38C594.18 276.96 594.08 268.17 594.08 258.86C594.08 245.06 593.37 231.92 591.98 219.38C591.42 214.37 590.77 209.45 590 204.63C588.47 195 586.48 185.77 584.12 176.92C583.53 174.71 582.91 172.5 582.27 170.33C580.35 163.84 578.2 157.59 575.84 151.52C575.05 149.5 574.27 147.49 573.44 145.52C571.77 141.57 570 137.72 568.14 133.96C567.21 132.08 566.26 130.2 565.28 128.37C563.34 124.7 561.28 121.12 559.15 117.64C558.08 115.89 556.98 114.19 555.87 112.5C550.33 104.02 544.27 96.11 537.67 88.76C532.4 82.89 526.8 77.36 520.89 72.19C520.89 72.18 520.86 72.2 520.85 72.19C519.38 70.9 517.91 69.62 516.4 68.38C516.39 68.37 516.36 68.38 516.36 68.38C514.85 67.14 513.32 65.89 511.77 64.69C511.77 64.68 511.74 64.7 511.73 64.69C507.08 61.08 502.29 57.65 497.31 54.42C497.3 54.41 497.28 54.42 497.27 54.42C495.62 53.35 493.96 52.26 492.27 51.23C492.26 51.22 492.24 51.23 492.23 51.23C487.14 48.12 481.93 45.17 476.55 42.44C476.54 42.44 476.52 42.45 476.51 42.44C474.72 41.54 472.9 40.66 471.08 39.79C471.07 39.79 471.05 39.8 471.04 39.79C469.22 38.93 467.39 38.05 465.53 37.22C465.52 37.22 465.5 37.23 465.49 37.22C461.78 35.57 458.02 33.99 454.18 32.5C454.17 32.5 454.15 32.51 454.14 32.5C452.23 31.76 450.29 31.05 448.34 30.35C448.33 30.34 448.31 30.35 448.3 30.35C446.36 29.65 444.39 28.94 442.41 28.28C440.44 27.61 438.45 26.95 436.45 26.33C436.43 26.33 436.42 26.33 436.4 26.33C434.4 25.71 432.38 25.09 430.35 24.51C430.34 24.5 430.32 24.51 430.31 24.51C428.28 23.92 426.23 23.35 424.17 22.81C424.16 22.8 424.14 22.81 424.13 22.81C417.93 21.17 411.61 19.67 405.17 18.38C405.17 18.38 405.13 18.38 405.13 18.38C402.99 17.95 400.82 17.57 398.66 17.17C398.65 17.17 398.62 17.17 398.61 17.17C383.39 14.42 367.59 12.58 351.24 11.66C351.23 11.66 351.21 11.66 351.2 11.66C348.87 11.53 346.52 11.43 344.18 11.33C344.16 11.33 344.15 11.33 344.14 11.33C339.43 11.14 334.71 11.01 329.93 10.96C329.91 10.96 329.9 10.96 329.88 10.96C327.49 10.94 325.07 10.95 322.65 10.96C321.8 10.96 320.94 10.99 320.09 11C319.24 10.99 318.38 10.96 317.53 10.96C315.11 10.95 312.69 10.94 310.3 10.96C310.28 10.96 310.27 10.96 310.25 10.96C305.47 11 300.75 11.14 296.05 11.33C296.03 11.33 296.02 11.33 296 11.33C293.66 11.43 291.31 11.53 288.98 11.66C288.97 11.66 288.96 11.66 288.94 11.66C272.59 12.58 256.79 14.42 241.57 17.17C241.56 17.17 241.53 17.17 241.53 17.17C239.36 17.57 237.19 17.95 235.05 18.38C235.05 18.38 235.01 18.38 235.01 18.38C228.57 19.67 222.25 21.17 216.05 22.81C216.04 22.81 216.02 22.8 216.01 22.81C213.95 23.35 211.9 23.92 209.87 24.51C209.86 24.51 209.84 24.5 209.83 24.51C207.8 25.09 205.78 25.71 203.78 26.33C203.77 26.33 203.75 26.33 203.74 26.33C201.73 26.95 199.74 27.61 197.77 28.28C195.79 28.94 193.83 29.65 191.88 30.35C191.87 30.35 191.85 30.34 191.84 30.35C189.9 31.05 187.95 31.76 186.04 32.5C186.03 32.51 186.01 32.5 186 32.5C182.16 33.99 178.4 35.57 174.69 37.22C174.68 37.23 174.66 37.22 174.65 37.22C172.79 38.05 170.96 38.93 169.14 39.79C169.13 39.8 169.11 39.79 169.1 39.79C167.28 40.66 165.46 41.54 163.68 42.44C163.66 42.45 163.64 42.44 163.63 42.44C158.25 45.17 153.04 48.12 147.95 51.23C147.94 51.23 147.92 51.22 147.91 51.23C146.22 52.26 144.56 53.35 142.91 54.42C142.9 54.42 142.88 54.41 142.87 54.42C137.89 57.65 133.1 61.08 128.45 64.69C128.44 64.7 128.42 64.68 128.41 64.69C126.86 65.89 125.33 67.14 123.83 68.38C123.82 68.38 123.79 68.37 123.78 68.38C122.28 69.62 120.8 70.9 119.33 72.19C119.32 72.2 119.29 72.18 119.29 72.19C113.38 77.36 107.79 82.89 102.51 88.76C95.91 96.11 89.85 104.02 84.31 112.5C83.2 114.19 82.1 115.89 81.03 117.64C78.9 121.12 76.84 124.7 74.9 128.37C73.92 130.2 72.97 132.08 72.04 133.96C70.18 137.72 68.41 141.57 66.74 145.52C65.91 147.49 65.13 149.5 64.35 151.52C61.98 157.59 59.84 163.84 57.91 170.33C57.27 172.5 56.65 174.71 56.06 176.92C53.7 185.77 51.72 195 50.18 204.63C49.41 209.45 48.76 214.37 48.2 219.38C46.81 231.92 46.1 245.06 46.1 258.86C46.1 268.17 46 276.96 46.1 285.38C46.15 289.58 46.25 293.67 46.44 297.72C46.53 299.75 46.63 301.77 46.77 303.77C47.06 307.76 47.45 311.71 47.99 315.62C48.93 322.45 50.34 329.2 52.36 335.96C52.94 337.89 53.57 339.82 54.25 341.76C55.64 345.65 57.25 349.53 59.13 353.48C59.6 354.47 60.1 355.43 60.6 356.42C60.62 366.14 60.74 414.72 60.94 502.17C35.67 511.84 21.63 517.21 18.82 518.28C17.7 518.75 16.69 519.4 15.75 520.23C15.74 520.24 15.72 520.26 15.71 520.27C13.85 521.92 12.32 524.19 11.25 526.61C10.89 527.42 10.59 528.26 10.33 529.09C10.2 529.5 10.09 529.93 9.99 530.34C9.89 530.75 9.78 531.17 9.7 531.58C9.46 532.82 9.35 534.02 9.36 535.14C9.36 535.14 9.36 535.14 9.36 535.14C9.63 539.31 10.05 542.17 10.62 543.72Z" id="c3yLa5ru"></path><path d="M10.62 543.72C10.76 544.03 11.43 545.57 12.64 548.36L60.85 536.88C61.08 636.16 61.21 691.31 61.23 702.34C61.46 805.7 45.76 923.1 48.45 1011.14C51.15 1099.19 86.12 1212.81 86.12 1212.81C86.63 1214.63 90.7 1229.14 91.2 1230.96C98.33 1256.48 222.18 1265.05 315.55 1265.05C317.05 1265.05 318.58 1265.02 320.09 1265.01C321.6 1265.02 323.13 1265.05 324.63 1265.05C418 1265.05 541.85 1256.48 548.98 1230.96C549.48 1229.14 553.55 1214.63 554.06 1212.81C554.06 1212.81 589.03 1099.19 591.73 1011.14C594.42 923.1 578.72 805.7 578.95 702.34C578.97 691.31 579.1 636.16 579.33 536.88L627.54 548.36C628.75 545.57 629.42 544.03 629.56 543.72C630.41 541.4 630.81 537.14 630.82 535.14C630.83 534.02 630.72 532.82 630.48 531.58C630.4 531.17 630.29 530.75 630.19 530.34C630.09 529.93 629.98 529.5 629.85 529.09C629.59 528.26 629.29 527.42 628.93 526.61C627.86 524.19 626.37 521.92 624.51 520.27C624.5 520.26 624.49 520.24 624.47 520.23C623.54 519.4 622.52 518.75 621.4 518.28C618.6 517.21 604.59 511.84 579.37 502.17C579.57 414.72 579.68 366.14 579.7 356.42C595.77 324.74 594.12 296.09 594.12 258.86C594.12 82.21 477.65 10.13 323.24 10.96C322.19 10.96 321.14 10.98 320.09 11C319.04 10.98 317.99 10.96 316.94 10.96C162.53 10.13 46.06 82.21 46.06 258.86C46.06 296.09 44.41 324.74 60.48 356.42C60.5 366.14 60.61 414.72 60.81 502.17C35.59 511.84 21.58 517.21 18.78 518.28C17.66 518.75 16.64 519.4 15.71 520.23C15.69 520.24 15.68 520.26 15.67 520.27C13.81 521.92 12.32 524.19 11.25 526.61C10.89 527.42 10.59 528.26 10.33 529.09C10.2 529.5 10.09 529.93 9.99 530.34C9.89 530.75 9.78 531.17 9.7 531.58C9.46 532.82 9.35 534.02 9.36 535.14C9.36 535.14 9.36 535.14 9.36 535.14C9.63 539.31 10.06 542.17 10.62 543.72Z" id="b9gXLTiTl"></path><path d="M502.5 939.47C568.03 905.46 543.21 809.58 544.91 666.96C545.7 601.1 547.44 548.26 548.11 505.85C516.72 568.37 495.69 682.87 495.69 813.78C495.69 858.01 498.11 900.36 502.5 939.47Z" id="a3WQDt9oQI"></path><path d="M495.77 826.46C517.53 825.38 536.47 817.94 548.02 807.11C547.92 800.92 547.76 794.53 547.56 787.97C536.54 799.33 517.66 807.32 495.69 808.81C495.68 810.47 495.69 812.12 495.69 813.78C495.69 818.03 495.73 822.25 495.77 826.46Z" id="a2Frq52Vhj"></path><path d="M459.18 40.12C462.56 68.69 494.12 90.09 532.53 92.2C533.17 92.23 536.37 92.4 542.12 92.7C538.21 88.52 536.03 86.2 535.6 85.74C515.85 64.67 491.87 48.21 464.64 36.15C464.23 35.96 462.14 35.04 458.38 33.37L458.38 33.37C458.86 37.42 459.13 39.67 459.18 40.12Z" id="dDYcCJY68"></path><path d="M473.17 305.86C473.17 305.86 442.78 200.24 430.15 166.17C416.97 130.59 377.5 35.11 377.5 35.11C377.5 35.11 434.63 46.7 455.41 75.52C529.21 177.9 527.85 383.99 527.85 383.99" id="a5Unms4dVP"></path><path d="M448.54 197.08C450.09 195.77 451.8 194.7 453.71 193.93C469.47 187.57 493.03 208.16 501.84 229.56C502.12 230.24 502.97 231.96 504.07 234.08C503.54 232.27 499.37 217.82 498.85 216.01C487.48 193.07 467.8 179.6 453.12 185.52C450.11 186.74 447.51 188.67 445.38 191.2C446.01 192.37 448.22 196.49 448.54 197.08Z" id="a4kId5d3RT"></path><linearGradient id="gradienteqDEJtjiN" gradientUnits="userSpaceOnUse" x1="474.72" y1="178.31" x2="464.47" y2="209.06"><stop style="stop-color: #1a1a1a;stop-opacity: 1" offset="0%"></stop><stop style="stop-color: #f30000;stop-opacity: 0" offset="100%"></stop></linearGradient><path d="M442.54 185.7C444.09 184.39 445.8 183.32 447.71 182.55C463.47 176.19 487.03 196.78 495.84 218.18C496.12 218.86 496.97 220.58 498.06 222.7C497.54 220.89 493.37 206.44 492.85 204.63C481.48 181.69 461.8 168.22 447.12 174.14C444.11 175.36 441.51 177.29 439.38 179.82C440.01 180.99 442.22 185.11 442.54 185.7Z" id="fFrw0hF5C"></path><linearGradient id="gradientbbPim7u9r" gradientUnits="userSpaceOnUse" x1="456.71" y1="138.9" x2="456.8" y2="154.51"><stop style="stop-color: #1a1a1a;stop-opacity: 1" offset="0%"></stop><stop style="stop-color: #f30000;stop-opacity: 0" offset="100%"></stop></linearGradient><path d="M440.63 177.5C442.19 176.19 443.9 175.12 445.8 174.35C461.56 167.99 485.13 188.58 493.93 209.98C494.22 210.66 495.07 212.38 496.16 214.49C495.64 212.69 491.47 198.24 490.95 196.43C479.57 173.49 459.9 160.01 445.21 165.94C442.21 167.15 439.61 169.09 437.48 171.62C438.11 172.79 440.32 176.91 440.63 177.5Z" id="dnRwCgKJ0"></path><linearGradient id="gradientb9Xj1APbd" gradientUnits="userSpaceOnUse" x1="467.11" y1="141.32" x2="459.59" y2="226.37"><stop style="stop-color: #1a1a1a;stop-opacity: 1" offset="0%"></stop><stop style="stop-color: #f30000;stop-opacity: 0" offset="100%"></stop></linearGradient><path d="M434.21 157.41C436.52 156.13 438.96 155.21 441.57 154.71C463.14 150.58 487.69 182.5 493.36 211.76C494.23 216.26 504.89 250.05 505.2 254.39C505.57 254.39 507.42 254.39 510.75 254.39C500.94 221.43 495.5 203.12 494.41 199.45C487.01 164.61 464.21 139.87 442.96 143.94C438.84 144.73 435.07 146.53 431.73 149.2C432.23 150.84 433.96 156.59 434.21 157.41Z" id="a2M9V6jy3"></path><linearGradient id="gradientaJdCKNt5M" gradientUnits="userSpaceOnUse" x1="475.6" y1="126.63" x2="466.15" y2="144.48"><stop style="stop-color: #1a1a1a;stop-opacity: 1" offset="0%"></stop><stop style="stop-color: #f30000;stop-opacity: 0" offset="100%"></stop></linearGradient><path d="M434.21 157.41C436.52 156.13 438.96 155.21 441.57 154.71C463.14 150.58 487.69 182.5 493.36 211.76C494.23 216.26 504.89 250.05 505.2 254.39C505.57 254.39 507.42 254.39 510.75 254.39C500.94 221.43 495.5 203.12 494.41 199.45C487.01 164.61 464.21 139.87 442.96 143.94C438.84 144.73 435.07 146.53 431.73 149.2C432.23 150.84 433.96 156.59 434.21 157.41Z" id="g3LCtO65mL"></path><linearGradient id="gradienta9ctEHQeaR" gradientUnits="userSpaceOnUse" x1="488.59" y1="148.52" x2="420.02" y2="207.82"><stop style="stop-color: #1a1a1a;stop-opacity: 1" offset="0%"></stop><stop style="stop-color: #f30000;stop-opacity: 0" offset="100%"></stop></linearGradient><path d="M454.41 213.48C455.8 212.31 457.33 211.36 459.03 210.67C473.11 204.99 494.16 223.39 502.03 242.5C502.28 243.11 503.04 244.64 504.02 246.53C503.55 244.92 499.83 232.01 499.36 230.4C489.2 209.9 471.63 197.86 458.51 203.16C455.82 204.24 453.5 205.97 451.6 208.23C452.16 209.28 454.13 212.96 454.41 213.48Z" id="azKsVPTI5"></path><linearGradient id="gradientdgHNwAm3Q" gradientUnits="userSpaceOnUse" x1="466.54" y1="168.07" x2="468.04" y2="266.03"><stop style="stop-color: #1a1a1a;stop-opacity: 1" offset="0%"></stop><stop style="stop-color: #f30000;stop-opacity: 0" offset="100%"></stop></linearGradient><path d="M459.22 231.79C460.61 230.62 462.14 229.66 463.84 228.98C477.92 223.29 498.97 241.69 506.84 260.8C507.09 261.41 507.85 262.95 508.83 264.84C508.36 263.22 504.64 250.31 504.17 248.7C494.01 228.21 476.43 216.17 463.31 221.46C460.62 222.55 458.31 224.28 456.4 226.53C456.97 227.58 458.94 231.26 459.22 231.79Z" id="aNfChsUvP"></path><linearGradient id="gradientfJXvyeqUm" gradientUnits="userSpaceOnUse" x1="482.33" y1="195.87" x2="477.53" y2="276.22"><stop style="stop-color: #1a1a1a;stop-opacity: 1" offset="0%"></stop><stop style="stop-color: #f30000;stop-opacity: 0" offset="100%"></stop></linearGradient><path d="M490.68 1009.03C493.09 1009.36 512.34 1012 514.75 1012.33C523.06 1021.45 521.41 1030.56 514.96 1039.68C512.82 1039.38 502.13 1037.91 482.89 1035.27C481.57 1021.59 484.16 1012.84 490.68 1009.03Z" id="a5t2dwrbM"></path><linearGradient id="gradientbTBS3F8vh" gradientUnits="userSpaceOnUse" x1="506.67" y1="1009.02" x2="494.39" y2="1039.67"><stop style="stop-color: #1a1a1a;stop-opacity: 1" offset="0%"></stop><stop style="stop-color: #f30000;stop-opacity: 0" offset="100%"></stop></linearGradient><path d="M494.69 983.41C496.98 983.73 515.31 986.24 517.61 986.56C521.61 995.15 524.61 1003.77 517.8 1012.58C515.77 1012.3 505.6 1010.91 487.28 1008.39C486.77 994.99 489.24 986.66 494.69 983.41Z" id="f1Zehp92d6"></path><linearGradient id="gradientf4leTta5kF" gradientUnits="userSpaceOnUse" x1="509.51" y1="983.41" x2="504.7" y2="1012.58"><stop style="stop-color: #1a1a1a;stop-opacity: 1" offset="0%"></stop><stop style="stop-color: #f30000;stop-opacity: 0" offset="100%"></stop></linearGradient><path d="M551.44 509.1L551.38 512.34L551.32 515.62L551.26 518.94L551.19 522.3L551.12 525.71L551.05 529.15L550.98 532.63L550.9 536.15L550.82 539.72L550.74 543.33L550.65 546.97L550.57 550.66L550.48 554.39L550.39 558.17L550.3 561.98L550.21 565.84L550.12 569.75L550.03 573.69L549.94 577.68L549.84 581.72L549.75 585.79L549.66 589.91L549.57 594.08L549.48 598.29L549.38 602.55L549.29 606.85L549.21 611.2L549.12 615.59L549.03 620.03L548.95 624.51L548.87 629.05L548.78 633.62L548.71 638.25L548.63 642.92L548.56 647.64L548.49 652.41L548.42 657.23L548.36 662.09L548.3 667.01L548.24 672.32L548.22 677.58L548.21 682.81L548.22 687.99L548.26 693.13L548.31 698.22L548.38 703.27L548.46 708.27L548.56 713.23L548.67 718.14L548.79 723.01L548.92 727.84L549.06 732.62L549.21 737.35L549.36 742.04L549.51 746.69L549.67 751.28L549.83 755.84L549.99 760.34L550.15 764.8L550.31 769.22L550.46 773.58L550.61 777.9L550.75 782.18L550.89 786.41L551.01 790.59L551.12 794.72L551.22 798.81L551.31 802.85L551.38 806.84L551.44 810.78L551.48 814.68L551.5 818.53L551.5 822.33L551.47 826.08L551.43 829.78L551.36 833.44L551.26 837.04L551.14 840.6L550.99 844.11L550.9 845.84L550.8 847.57L550.7 849.28L550.59 850.98L550.47 852.67L550.35 854.34L550.21 856L550.07 857.65L549.91 859.29L549.75 860.92L549.58 862.53L549.4 864.13L549.21 865.72L549.01 867.3L548.8 868.86L548.57 870.41L548.34 871.95L548.1 873.48L547.85 874.99L547.58 876.49L547.3 877.98L547.02 879.46L546.72 880.92L546.41 882.38L546.08 883.82L545.75 885.24L545.4 886.66L545.04 888.06L544.66 889.45L544.27 890.82L543.87 892.19L543.46 893.54L543.03 894.88L542.59 896.2L542.13 897.51L541.66 898.81L541.18 900.1L540.68 901.38L540.17 902.64L539.64 903.89L539.09 905.12L538.53 906.35L537.95 907.56L537.36 908.76L536.75 909.94L536.12 911.11L535.48 912.27L534.82 913.41L534.15 914.54L533.45 915.66L532.74 916.76L532.02 917.85L531.27 918.92L530.51 919.98L529.73 921.03L528.93 922.06L528.11 923.08L527.28 924.08L526.43 925.07L525.56 926.05L524.67 927.01L523.76 927.96L522.83 928.89L521.89 929.81L520.92 930.71L519.94 931.6L518.94 932.47L517.91 933.33L516.87 934.17L515.81 935L514.73 935.81L513.63 936.6L512.5 937.39L511.36 938.15L510.2 938.9L509.02 939.64L507.81 940.35L506.59 941.06L505.34 941.74L504.07 942.42L499.7 944.69L499.16 939.85L498.83 936.9L498.51 933.94L498.2 930.96L497.89 927.98L497.6 924.98L497.31 921.98L497.03 918.96L496.76 915.93L496.49 912.88L496.23 909.83L495.98 906.77L495.74 903.69L495.51 900.61L495.28 897.51L495.07 894.41L494.86 891.29L494.65 888.17L494.46 885.03L494.28 881.89L494.1 878.73L493.93 875.57L493.77 872.39L493.62 869.21L493.47 866.02L493.34 862.81L493.21 859.6L493.09 856.38L492.98 853.15L492.88 849.92L492.79 846.67L492.71 843.42L492.63 840.16L492.56 836.89L492.51 833.61L492.46 830.32L492.42 827.03L492.39 823.73L492.36 820.42L492.35 817.11L492.35 813.78L492.38 803.97L492.5 794.22L492.69 784.54L492.96 774.94L493.31 765.4L493.72 755.95L494.21 746.58L494.77 737.29L495.41 728.09L496.11 718.99L496.88 709.97L497.72 701.06L498.63 692.24L499.6 683.54L500.64 674.93L501.74 666.44L502.91 658.07L504.14 649.81L505.43 641.67L506.78 633.66L508.19 625.77L509.66 618.01L511.19 610.39L512.77 602.9L514.41 595.56L516.11 588.36L517.86 581.3L519.66 574.39L521.52 567.64L523.42 561.05L525.38 554.61L527.38 548.34L529.44 542.23L531.54 536.29L533.69 530.52L535.88 524.94L538.12 519.53L540.41 514.3L542.73 509.26L545.1 504.4L551.49 505.89L551.44 509.1ZM540.41 531.94L538.46 537.14L536.54 542.49L534.66 547.99L532.82 553.64L531.02 559.43L529.26 565.36L527.53 571.43L525.86 577.64L524.22 583.98L522.62 590.45L521.07 597.05L519.57 603.78L518.11 610.62L516.7 617.59L515.34 624.68L514.02 631.88L512.76 639.19L511.54 646.61L510.38 654.13L509.26 661.76L508.2 669.49L507.2 677.32L506.24 685.25L505.35 693.27L504.51 701.38L503.72 709.57L503 717.85L502.33 726.22L501.72 734.66L501.17 743.18L500.69 751.77L500.26 760.44L499.9 769.17L499.61 777.97L499.37 786.84L499.21 795.76L499.11 804.75L499.07 813.78L499.08 816.94L499.09 820.09L499.11 823.24L499.14 826.37L499.18 829.5L499.22 832.63L499.28 835.74L499.34 838.85L499.41 841.95L499.49 845.04L499.57 848.13L499.67 851.2L499.77 854.27L499.88 857.33L500 860.39L500.12 863.43L500.25 866.47L500.39 869.49L500.54 872.51L500.7 875.53L500.86 878.53L501.03 881.52L501.21 884.51L501.4 887.48L501.59 890.45L501.79 893.41L502 896.35L502.21 899.29L502.43 902.22L502.66 905.14L502.9 908.05L503.14 910.95L503.39 913.84L503.65 916.73L503.91 919.6L504.18 922.46L504.46 925.31L504.75 928.15L505.04 930.98L505.33 933.8L506.31 933.2L507.27 932.58L508.22 931.96L509.15 931.33L510.06 930.68L510.96 930.03L511.85 929.36L512.72 928.69L513.58 928L514.42 927.31L515.25 926.6L516.06 925.89L516.86 925.16L517.65 924.42L518.42 923.67L519.18 922.91L519.92 922.14L520.65 921.36L521.37 920.57L522.07 919.77L522.76 918.95L523.44 918.13L524.1 917.29L524.75 916.44L525.39 915.58L526.01 914.71L526.62 913.83L527.22 912.94L527.81 912.04L528.38 911.12L528.94 910.19L529.49 909.25L530.03 908.3L530.55 907.34L531.07 906.37L531.57 905.38L532.06 904.38L532.54 903.37L533 902.35L533.46 901.32L533.95 900.16L534.43 898.98L534.9 897.78L535.35 896.58L535.79 895.35L536.22 894.12L536.64 892.87L537.04 891.6L537.43 890.32L537.81 889.03L538.18 887.72L538.53 886.4L538.88 885.06L539.21 883.71L539.53 882.35L539.84 880.97L540.14 879.58L540.43 878.17L540.7 876.75L540.97 875.32L541.23 873.87L541.47 872.41L541.71 870.94L541.93 869.45L542.15 867.94L542.36 866.43L542.55 864.9L542.74 863.35L542.92 861.8L543.09 860.23L543.24 858.64L543.4 857.04L543.54 855.43L543.67 853.81L543.8 852.17L543.91 850.52L544.02 848.85L544.12 847.17L544.22 845.48L544.3 843.78L544.45 840.33L544.57 836.83L544.66 833.27L544.73 829.66L544.78 826.01L544.8 822.3L544.79 818.53L544.77 814.72L544.73 810.86L544.67 806.94L544.6 802.98L544.51 798.96L544.41 794.9L544.3 790.78L544.17 786.62L544.04 782.4L543.89 778.14L543.75 773.82L543.59 769.46L543.43 765.05L543.27 760.59L543.11 756.08L542.95 751.52L542.79 746.92L542.63 742.27L542.48 737.57L542.33 732.82L542.2 728.03L542.06 723.19L541.94 718.3L541.83 713.37L541.74 708.39L541.65 703.37L541.58 698.3L541.53 693.18L541.5 688.02L541.48 682.81L541.49 677.56L541.52 672.26L541.57 666.92L541.62 662.56L541.68 658.24L541.74 653.96L541.8 649.73L541.86 645.54L541.93 641.39L541.99 637.28L542.06 633.21L542.13 629.19L542.2 625.2L542.27 621.25L542.35 617.34L542.42 613.47L542.5 609.64L542.57 605.85L542.65 602.09L542.73 598.37L542.81 594.69L542.89 591.04L542.97 587.43L543.05 583.86L543.13 580.32L543.21 576.81L543.28 573.34L543.36 569.9L543.44 566.49L543.52 563.11L543.6 559.77L543.67 556.46L543.75 553.18L543.82 549.93L543.9 546.72L543.97 543.53L544.04 540.37L544.11 537.24L544.18 534.14L544.24 531.06L544.31 528.02L544.37 525L544.43 522.01L542.4 526.9L540.41 531.94Z" id="e28txNQpPz"></path><path d="M179.06 1102.24C184.92 1138.24 244.67 1167.13 320.09 1169.85C395.51 1167.13 455.26 1138.24 461.12 1102.24C462.8 1091.94 476.22 1009.48 477.89 999.17C477.89 981.55 463.49 967.36 445.61 967.36C420.51 967.36 219.67 967.36 194.57 967.36C176.69 967.36 162.29 981.55 162.29 999.17C165.64 1019.79 177.38 1091.94 179.06 1102.24Z" id="a245ZTk1ud"></path><path d="M117.56 438.82C117.55 438.84 117.53 438.85 117.52 438.86C119.18 447.33 132.42 515.04 134.08 523.5C142.97 547 153.28 565.92 177.13 565.92C205.72 565.92 434.46 565.92 463.05 565.92C486.9 565.92 497.21 547 506.1 523.5C507.76 515.04 521.01 447.33 522.66 438.86C522.65 438.85 522.63 438.84 522.62 438.82C523.48 434.99 523.92 431.12 523.92 427.18C523.92 367 446.76 318.21 320.09 318.06C193.42 318.21 116.26 367 116.26 427.18C116.26 427.18 116.26 427.18 116.26 427.18C116.56 432.39 116.99 436.27 117.56 438.82Z" id="aANlzDjBw"></path><path d="M137.68 939.47C72.15 905.46 96.97 809.58 95.27 666.96C94.48 601.1 92.74 548.26 92.07 505.85C123.46 568.37 144.49 682.87 144.49 813.78C144.49 858.01 142.07 900.36 137.68 939.47Z" id="a5dSHhmBBo"></path><path d="M144.41 826.46C122.65 825.38 103.71 817.94 92.15 807.11C92.26 800.92 92.42 794.53 92.62 787.97C103.64 799.33 122.52 807.32 144.49 808.81C144.5 810.47 144.49 812.12 144.49 813.78C144.49 818.03 144.45 822.25 144.41 826.46Z" id="i1GrkwytNK"></path><path d="M182.35 40.12C178.97 68.69 147.4 90.09 108.99 92.2C108.35 92.23 105.16 92.4 99.41 92.7C103.32 88.52 105.49 86.2 105.92 85.74C125.67 64.67 149.65 48.21 176.88 36.15C177.3 35.96 179.39 35.04 183.14 33.37L183.14 33.37C182.67 37.42 182.4 39.67 182.35 40.12Z" id="balYcaRk0"></path><path d="M167.01 305.86C167.01 305.86 197.4 200.24 210.03 166.17C223.21 130.59 262.68 35.11 262.68 35.11C262.68 35.11 205.55 46.7 184.77 75.52C110.97 177.9 112.33 383.99 112.33 383.99" id="b2geNwWEes"></path><path d="M191.64 197.08C190.09 195.77 188.38 194.7 186.47 193.93C170.71 187.57 147.15 208.16 138.34 229.56C138.06 230.24 137.21 231.96 136.11 234.08C136.64 232.27 140.81 217.82 141.33 216.01C152.7 193.07 172.38 179.6 187.06 185.52C190.07 186.74 192.67 188.67 194.8 191.2C194.17 192.37 191.96 196.49 191.64 197.08Z" id="aelc5uLTk"></path><linearGradient id="gradientagv708xfH" gradientUnits="userSpaceOnUse" x1="165.45" y1="178.31" x2="175.71" y2="209.06"><stop style="stop-color: #1a1a1a;stop-opacity: 1" offset="0%"></stop><stop style="stop-color: #f30000;stop-opacity: 0" offset="100%"></stop></linearGradient><path d="M197.64 185.7C196.09 184.39 194.38 183.32 192.47 182.55C176.71 176.19 153.15 196.78 144.34 218.18C144.06 218.86 143.21 220.58 142.11 222.7C142.64 220.89 146.81 206.44 147.33 204.63C158.7 181.69 178.38 168.22 193.06 174.14C196.07 175.36 198.67 177.29 200.8 179.82C200.17 180.99 197.96 185.11 197.64 185.7Z" id="b5wN9opyy9"></path><linearGradient id="gradienth2cx3kFnUw" gradientUnits="userSpaceOnUse" x1="183.46" y1="138.9" x2="183.38" y2="154.51"><stop style="stop-color: #1a1a1a;stop-opacity: 1" offset="0%"></stop><stop style="stop-color: #f30000;stop-opacity: 0" offset="100%"></stop></linearGradient><path d="M199.55 177.5C197.99 176.19 196.28 175.12 194.38 174.35C178.62 167.99 155.05 188.58 146.25 209.98C145.96 210.66 145.11 212.38 144.02 214.49C144.54 212.69 148.71 198.24 149.23 196.43C160.61 173.49 180.28 160.01 194.96 165.94C197.97 167.15 200.57 169.09 202.7 171.62C202.07 172.79 199.86 176.91 199.55 177.5Z" id="a4sdOCh8FU"></path><linearGradient id="gradientaaj7evrAAW" gradientUnits="userSpaceOnUse" x1="173.07" y1="141.32" x2="180.59" y2="226.37"><stop style="stop-color: #1a1a1a;stop-opacity: 1" offset="0%"></stop><stop style="stop-color: #f30000;stop-opacity: 0" offset="100%"></stop></linearGradient><path d="M205.97 157.41C203.66 156.13 201.22 155.21 198.61 154.71C177.04 150.58 152.49 182.5 146.82 211.76C145.95 216.26 135.29 250.05 134.98 254.39C134.61 254.39 132.76 254.39 129.43 254.39C139.24 221.43 144.68 203.12 145.77 199.45C153.17 164.61 175.97 139.87 197.22 143.94C201.34 144.73 205.11 146.53 208.45 149.2C207.95 150.84 206.22 156.59 205.97 157.41Z" id="a5EOeEsEp"></path><linearGradient id="gradienta1k18usmu2" gradientUnits="userSpaceOnUse" x1="164.58" y1="126.63" x2="174.03" y2="144.48"><stop style="stop-color: #1a1a1a;stop-opacity: 1" offset="0%"></stop><stop style="stop-color: #f30000;stop-opacity: 0" offset="100%"></stop></linearGradient><path d="M205.97 157.41C203.66 156.13 201.22 155.21 198.61 154.71C177.04 150.58 152.49 182.5 146.82 211.76C145.95 216.26 135.29 250.05 134.98 254.39C134.61 254.39 132.76 254.39 129.43 254.39C139.24 221.43 144.68 203.12 145.77 199.45C153.17 164.61 175.97 139.87 197.22 143.94C201.34 144.73 205.11 146.53 208.45 149.2C207.95 150.84 206.22 156.59 205.97 157.41Z" id="b3FLXUHfP"></path><linearGradient id="gradientb1fd56B4li" gradientUnits="userSpaceOnUse" x1="151.59" y1="148.52" x2="220.16" y2="207.82"><stop style="stop-color: #1a1a1a;stop-opacity: 1" offset="0%"></stop><stop style="stop-color: #f30000;stop-opacity: 0" offset="100%"></stop></linearGradient><path d="M185.77 213.48C184.38 212.31 182.85 211.36 181.15 210.67C167.07 204.99 146.02 223.39 138.15 242.5C137.9 243.11 137.14 244.64 136.16 246.53C136.63 244.92 140.35 232.01 140.82 230.4C150.98 209.9 168.55 197.86 181.67 203.16C184.36 204.24 186.68 205.97 188.58 208.23C188.02 209.28 186.05 212.96 185.77 213.48Z" id="eaap0FDQgI"></path><linearGradient id="gradientdXiCzXlGj" gradientUnits="userSpaceOnUse" x1="173.64" y1="168.07" x2="172.14" y2="266.03"><stop style="stop-color: #1a1a1a;stop-opacity: 1" offset="0%"></stop><stop style="stop-color: #f30000;stop-opacity: 0" offset="100%"></stop></linearGradient><path d="M180.96 231.79C179.57 230.62 178.04 229.66 176.34 228.98C162.26 223.29 141.21 241.69 133.34 260.8C133.09 261.41 132.33 262.95 131.35 264.84C131.82 263.22 135.54 250.31 136.01 248.7C146.17 228.21 163.75 216.17 176.87 221.46C179.55 222.55 181.87 224.28 183.78 226.53C183.21 227.58 181.24 231.26 180.96 231.79Z" id="f9yDvxFcw"></path><linearGradient id="gradientb5IJnXSYu" gradientUnits="userSpaceOnUse" x1="157.85" y1="195.87" x2="162.65" y2="276.22"><stop style="stop-color: #1a1a1a;stop-opacity: 1" offset="0%"></stop><stop style="stop-color: #f30000;stop-opacity: 0" offset="100%"></stop></linearGradient><path d="M149.5 1009.03C147.09 1009.36 127.83 1012 125.43 1012.33C117.12 1021.45 118.77 1030.56 125.22 1039.68C127.36 1039.38 138.05 1037.91 157.29 1035.27L157.29 1035.27C158.61 1021.59 156.02 1012.84 149.5 1009.03Z" id="b1KXskwux"></path><linearGradient id="gradienta2r7sJqM7h" gradientUnits="userSpaceOnUse" x1="133.51" y1="1009.02" x2="145.79" y2="1039.67"><stop style="stop-color: #1a1a1a;stop-opacity: 1" offset="0%"></stop><stop style="stop-color: #f30000;stop-opacity: 0" offset="100%"></stop></linearGradient><path d="M145.49 983.41C143.2 983.73 124.87 986.24 122.57 986.56C118.57 995.15 115.57 1003.77 122.38 1012.58C124.41 1012.3 134.58 1010.91 152.9 1008.39C153.41 994.99 150.94 986.66 145.49 983.41Z" id="e1jpv2Ocp"></path><linearGradient id="gradientb7dvK9RVM" gradientUnits="userSpaceOnUse" x1="130.67" y1="983.41" x2="135.47" y2="1012.58"><stop style="stop-color: #1a1a1a;stop-opacity: 1" offset="0%"></stop><stop style="stop-color: #f30000;stop-opacity: 0" offset="100%"></stop></linearGradient><path d="M99.77 514.3L102.06 519.53L104.3 524.94L106.49 530.52L108.64 536.29L110.74 542.23L112.79 548.34L114.8 554.61L116.76 561.05L118.66 567.64L120.52 574.39L122.32 581.3L124.07 588.36L125.77 595.56L127.41 602.9L128.99 610.39L130.52 618.01L131.99 625.77L133.4 633.66L134.75 641.67L136.04 649.81L137.27 658.07L138.44 666.44L139.54 674.93L140.58 683.54L141.55 692.24L142.46 701.06L143.3 709.97L144.07 718.99L144.77 728.09L145.4 737.29L145.97 746.58L146.46 755.95L146.87 765.4L147.22 774.94L147.49 784.54L147.68 794.22L147.8 803.97L147.83 813.78L147.83 817.11L147.82 820.42L147.79 823.73L147.76 827.03L147.72 830.32L147.67 833.61L147.62 836.89L147.55 840.16L147.47 843.42L147.39 846.67L147.3 849.92L147.2 853.15L147.09 856.38L146.97 859.6L146.84 862.81L146.71 866.02L146.56 869.21L146.41 872.39L146.25 875.57L146.08 878.73L145.9 881.89L145.72 885.03L145.52 888.17L145.32 891.29L145.11 894.41L144.9 897.51L144.67 900.61L144.44 903.69L144.2 906.77L143.95 909.83L143.69 912.88L143.42 915.93L143.15 918.96L142.87 921.98L142.58 924.98L142.28 927.98L141.98 930.96L141.67 933.94L141.35 936.9L141.02 939.85L140.48 944.69L136.11 942.42L134.84 941.74L133.59 941.06L132.37 940.35L131.16 939.64L129.98 938.9L128.82 938.15L127.68 937.39L126.55 936.6L125.45 935.81L124.37 935L123.31 934.17L122.27 933.33L121.24 932.47L120.24 931.6L119.26 930.71L118.29 929.81L117.35 928.89L116.42 927.96L115.51 927.01L114.62 926.05L113.75 925.07L112.9 924.08L112.07 923.08L111.25 922.06L110.45 921.03L109.67 919.98L108.91 918.92L108.16 917.85L107.44 916.76L106.73 915.66L106.03 914.54L105.36 913.41L104.7 912.27L104.06 911.11L103.43 909.94L102.82 908.76L102.23 907.56L101.65 906.35L101.09 905.12L100.54 903.89L100.01 902.64L99.5 901.38L99 900.1L98.52 898.81L98.05 897.51L97.59 896.2L97.15 894.88L96.72 893.54L96.31 892.19L95.91 890.82L95.52 889.45L95.14 888.06L94.78 886.66L94.43 885.24L94.1 883.82L93.77 882.38L93.46 880.92L93.16 879.46L92.88 877.98L92.6 876.49L92.33 874.99L92.08 873.48L91.84 871.95L91.61 870.41L91.38 868.86L91.17 867.3L90.97 865.72L90.78 864.13L90.6 862.53L90.43 860.92L90.27 859.29L90.11 857.65L89.97 856L89.83 854.34L89.71 852.67L89.59 850.98L89.48 849.28L89.38 847.57L89.28 845.84L89.19 844.11L89.04 840.6L88.92 837.04L88.82 833.44L88.75 829.78L88.71 826.08L88.68 822.33L88.68 818.53L88.7 814.68L88.74 810.78L88.8 806.84L88.87 802.85L88.96 798.81L89.06 794.72L89.17 790.59L89.29 786.41L89.43 782.18L89.57 777.9L89.72 773.58L89.87 769.22L90.03 764.8L90.18 760.34L90.35 755.84L90.51 751.28L90.67 746.69L90.82 742.04L90.97 737.35L91.12 732.62L91.26 727.84L91.39 723.01L91.51 718.14L91.62 713.23L91.72 708.27L91.8 703.27L91.87 698.22L91.92 693.13L91.96 687.99L91.97 682.81L91.96 677.58L91.94 672.32L91.88 667.01L91.82 662.09L91.76 657.23L91.69 652.41L91.62 647.64L91.55 642.92L91.47 638.25L91.39 633.62L91.31 629.05L91.23 624.51L91.15 620.03L91.06 615.59L90.97 611.2L90.88 606.85L90.79 602.55L90.7 598.29L90.61 594.08L90.52 589.91L90.43 585.79L90.34 581.72L90.24 577.68L90.15 573.69L90.06 569.75L89.97 565.84L89.88 561.98L89.79 558.17L89.7 554.39L89.61 550.66L89.53 546.97L89.44 543.33L89.36 539.72L89.28 536.15L89.2 532.63L89.13 529.15L89.06 525.71L88.99 522.3L88.92 518.94L88.86 515.62L88.8 512.34L88.74 509.1L88.69 505.89L95.08 504.4L97.45 509.26L99.77 514.3ZM95.87 528.02L95.94 531.06L96 534.14L96.07 537.24L96.14 540.37L96.21 543.53L96.28 546.72L96.36 549.93L96.43 553.18L96.51 556.46L96.58 559.77L96.66 563.11L96.74 566.49L96.82 569.9L96.9 573.34L96.97 576.81L97.05 580.32L97.13 583.86L97.21 587.43L97.29 591.04L97.37 594.69L97.45 598.37L97.53 602.09L97.61 605.85L97.68 609.64L97.76 613.47L97.83 617.34L97.91 621.25L97.98 625.2L98.05 629.19L98.12 633.21L98.19 637.28L98.25 641.39L98.32 645.54L98.38 649.73L98.44 653.96L98.5 658.24L98.56 662.56L98.61 666.92L98.66 672.26L98.69 677.56L98.7 682.81L98.68 688.02L98.65 693.18L98.6 698.3L98.53 703.37L98.44 708.39L98.35 713.37L98.24 718.3L98.12 723.19L97.98 728.03L97.84 732.82L97.7 737.57L97.55 742.27L97.39 746.92L97.23 751.52L97.07 756.08L96.91 760.59L96.75 765.05L96.59 769.46L96.43 773.82L96.29 778.14L96.14 782.4L96.01 786.62L95.88 790.78L95.77 794.9L95.67 798.96L95.58 802.98L95.5 806.94L95.45 810.86L95.41 814.72L95.39 818.53L95.38 822.3L95.4 826.01L95.45 829.66L95.52 833.27L95.61 836.83L95.73 840.33L95.88 843.78L95.96 845.48L96.06 847.17L96.16 848.85L96.27 850.52L96.38 852.17L96.51 853.81L96.64 855.43L96.78 857.04L96.93 858.64L97.09 860.23L97.26 861.8L97.44 863.35L97.63 864.9L97.82 866.43L98.03 867.94L98.25 869.45L98.47 870.94L98.71 872.41L98.95 873.87L99.21 875.32L99.48 876.75L99.75 878.17L100.04 879.58L100.34 880.97L100.65 882.35L100.97 883.71L101.3 885.06L101.65 886.4L102 887.72L102.37 889.03L102.75 890.32L103.14 891.6L103.54 892.87L103.96 894.12L104.39 895.35L104.83 896.58L105.28 897.78L105.75 898.98L106.23 900.16L106.72 901.32L107.18 902.35L107.64 903.37L108.12 904.38L108.61 905.38L109.11 906.37L109.63 907.34L110.15 908.3L110.69 909.25L111.24 910.19L111.8 911.12L112.37 912.04L112.96 912.94L113.56 913.83L114.17 914.71L114.79 915.58L115.43 916.44L116.08 917.29L116.74 918.13L117.42 918.95L118.11 919.77L118.81 920.57L119.53 921.36L120.26 922.14L121 922.91L121.76 923.67L122.53 924.42L123.32 925.16L124.12 925.89L124.93 926.6L125.76 927.31L126.6 928L127.46 928.69L128.33 929.36L129.22 930.03L130.12 930.68L131.03 931.33L131.96 931.96L132.91 932.58L133.87 933.2L134.85 933.8L135.14 930.98L135.43 928.15L135.72 925.31L136 922.46L136.27 919.6L136.53 916.73L136.79 913.84L137.04 910.95L137.28 908.05L137.52 905.14L137.75 902.22L137.97 899.29L138.18 896.35L138.39 893.41L138.59 890.45L138.78 887.48L138.97 884.51L139.15 881.52L139.32 878.53L139.48 875.53L139.64 872.51L139.79 869.49L139.93 866.47L140.06 863.43L140.18 860.39L140.3 857.33L140.41 854.27L140.51 851.2L140.61 848.13L140.69 845.04L140.77 841.95L140.84 838.85L140.9 835.74L140.96 832.63L141 829.5L141.04 826.37L141.07 823.24L141.09 820.09L141.1 816.94L141.11 813.78L141.07 804.75L140.97 795.76L140.81 786.84L140.57 777.97L140.28 769.17L139.92 760.44L139.49 751.77L139.01 743.18L138.46 734.66L137.85 726.22L137.18 717.85L136.46 709.57L135.67 701.38L134.83 693.27L133.94 685.25L132.98 677.32L131.98 669.49L130.92 661.76L129.8 654.13L128.64 646.61L127.42 639.19L126.16 631.88L124.84 624.68L123.48 617.59L122.07 610.62L120.61 603.78L119.1 597.05L117.56 590.45L115.96 583.98L114.32 577.64L112.64 571.43L110.92 565.36L109.16 559.43L107.36 553.64L105.52 547.99L103.64 542.49L101.72 537.14L99.77 531.94L97.78 526.9L95.75 522.01L95.81 525L95.87 528.02Z" id="a3resZLMy1"></path><path d="M181.17 1220.54C181.17 1230.24 166.23 1238.11 147.83 1238.11C129.44 1238.11 114.5 1230.24 114.5 1220.54C114.5 1210.85 129.44 1202.98 147.83 1202.98C166.23 1202.98 181.17 1210.85 181.17 1220.54Z" id="bgddD4Ov4"></path><path d="M534.81 1214.33C534.81 1224.02 519.88 1231.89 501.48 1231.89C483.08 1231.89 468.15 1224.02 468.15 1214.33C468.15 1204.63 483.08 1196.76 501.48 1196.76C519.88 1196.76 534.81 1204.63 534.81 1214.33Z" id="a8OsXxs2Fd"></path></defs><g><g><g><use xlink:href="#c3yLa5ru" opacity="1" fill="#000000" fill-opacity="1"></use><g><use xlink:href="#c3yLa5ru" opacity="1" fill-opacity="0" stroke="#191919" stroke-width="14" stroke-opacity="1"></use></g></g><g><use xlink:href="#b9gXLTiTl" opacity="1" fill="#030303" fill-opacity="1"></use><g><use xlink:href="#b9gXLTiTl" opacity="1" fill-opacity="0" stroke="#000000" stroke-width="1" stroke-opacity="0"></use></g></g><g><use xlink:href="#a3WQDt9oQI" opacity="1" fill="#000000" fill-opacity="1"></use><g><use xlink:href="#a3WQDt9oQI" opacity="1" fill-opacity="0" stroke="#000000" stroke-width="1" stroke-opacity="0"></use></g></g><g><use xlink:href="#a2Frq52Vhj" opacity="1" fill="#000000" fill-opacity="1"></use><g><use xlink:href="#a2Frq52Vhj" opacity="1" fill-opacity="0" stroke="#000000" stroke-width="1" stroke-opacity="0"></use></g></g><g><use xlink:href="#dDYcCJY68" opacity="1" fill="#ffffff" fill-opacity="1"></use><g><use xlink:href="#dDYcCJY68" opacity="1" fill-opacity="0" stroke="#191919" stroke-width="5" stroke-opacity="1"></use></g></g><g><use xlink:href="#a5Unms4dVP" opacity="1" fill="#000000" fill-opacity="0"></use><g><use xlink:href="#a5Unms4dVP" opacity="1" fill-opacity="0" stroke="#292929" stroke-width="6" stroke-opacity="1"></use></g></g><g><use xlink:href="#a4kId5d3RT" opacity="1" fill="url(#gradienteqDEJtjiN)"></use><g><use xlink:href="#a4kId5d3RT" opacity="1" fill-opacity="0" stroke="#000000" stroke-width="1" stroke-opacity="0"></use></g></g><g><use xlink:href="#fFrw0hF5C" opacity="1" fill="url(#gradientbbPim7u9r)"></use><g><use xlink:href="#fFrw0hF5C" opacity="1" fill-opacity="0" stroke="#000000" stroke-width="1" stroke-opacity="0"></use></g></g><g><use xlink:href="#dnRwCgKJ0" opacity="1" fill="url(#gradientb9Xj1APbd)"></use><g><use xlink:href="#dnRwCgKJ0" opacity="1" fill-opacity="0" stroke="#000000" stroke-width="1" stroke-opacity="0"></use></g></g><g><use xlink:href="#a2M9V6jy3" opacity="1" fill="url(#gradientaJdCKNt5M)"></use><g><use xlink:href="#a2M9V6jy3" opacity="1" fill-opacity="0" stroke="#000000" stroke-width="1" stroke-opacity="0"></use></g></g><g><use xlink:href="#g3LCtO65mL" opacity="1" fill="url(#gradienta9ctEHQeaR)"></use><g><use xlink:href="#g3LCtO65mL" opacity="1" fill-opacity="0" stroke="#000000" stroke-width="1" stroke-opacity="0"></use></g></g><g><use xlink:href="#azKsVPTI5" opacity="1" fill="url(#gradientdgHNwAm3Q)"></use><g><use xlink:href="#azKsVPTI5" opacity="1" fill-opacity="0" stroke="#000000" stroke-width="1" stroke-opacity="0"></use></g></g><g><use xlink:href="#aNfChsUvP" opacity="1" fill="url(#gradientfJXvyeqUm)"></use><g><use xlink:href="#aNfChsUvP" opacity="1" fill-opacity="0" stroke="#000000" stroke-width="1" stroke-opacity="0"></use></g></g><g><use xlink:href="#a5t2dwrbM" opacity="1" fill="url(#gradientbTBS3F8vh)"></use><g><use xlink:href="#a5t2dwrbM" opacity="1" fill-opacity="0" stroke="#000000" stroke-width="1" stroke-opacity="0"></use></g></g><g><use xlink:href="#f1Zehp92d6" opacity="1" fill="url(#gradientf4leTta5kF)"></use><g><use xlink:href="#f1Zehp92d6" opacity="1" fill-opacity="0" stroke="#000000" stroke-width="1" stroke-opacity="0"></use></g></g><g><use xlink:href="#e28txNQpPz" opacity="1" fill="#191919" fill-opacity="1"></use><g><use xlink:href="#e28txNQpPz" opacity="1" fill-opacity="0" stroke="#000000" stroke-width="5" stroke-opacity="0"></use></g></g><g><use xlink:href="#a245ZTk1ud" opacity="1" fill="#000000" fill-opacity="1"></use><g><use xlink:href="#a245ZTk1ud" opacity="1" fill-opacity="0" stroke="#191919" stroke-width="5" stroke-opacity="1"></use></g></g><g><use xlink:href="#aANlzDjBw" opacity="1" fill="#000000" fill-opacity="1"></use><g><use xlink:href="#aANlzDjBw" opacity="1" fill-opacity="0" stroke="#191919" stroke-width="5" stroke-opacity="1"></use></g></g><g><use xlink:href="#a5dSHhmBBo" opacity="1" fill="#000000" fill-opacity="1"></use><g><use xlink:href="#a5dSHhmBBo" opacity="1" fill-opacity="0" stroke="#000000" stroke-width="1" stroke-opacity="0"></use></g></g><g><use xlink:href="#i1GrkwytNK" opacity="1" fill="#000000" fill-opacity="1"></use><g><use xlink:href="#i1GrkwytNK" opacity="1" fill-opacity="0" stroke="#000000" stroke-width="1" stroke-opacity="0"></use></g></g><g><use xlink:href="#balYcaRk0" opacity="1" fill="#ffffff" fill-opacity="1"></use><g><use xlink:href="#balYcaRk0" opacity="1" fill-opacity="0" stroke="#191919" stroke-width="5" stroke-opacity="1"></use></g></g><g><use xlink:href="#b2geNwWEes" opacity="1" fill="#000000" fill-opacity="0"></use><g><use xlink:href="#b2geNwWEes" opacity="1" fill-opacity="0" stroke="#292929" stroke-width="6" stroke-opacity="1"></use></g></g><g><use xlink:href="#aelc5uLTk" opacity="1" fill="url(#gradientagv708xfH)"></use><g><use xlink:href="#aelc5uLTk" opacity="1" fill-opacity="0" stroke="#000000" stroke-width="1" stroke-opacity="0"></use></g></g><g><use xlink:href="#b5wN9opyy9" opacity="1" fill="url(#gradienth2cx3kFnUw)"></use><g><use xlink:href="#b5wN9opyy9" opacity="1" fill-opacity="0" stroke="#000000" stroke-width="1" stroke-opacity="0"></use></g></g><g><use xlink:href="#a4sdOCh8FU" opacity="1" fill="url(#gradientaaj7evrAAW)"></use><g><use xlink:href="#a4sdOCh8FU" opacity="1" fill-opacity="0" stroke="#000000" stroke-width="1" stroke-opacity="0"></use></g></g><g><use xlink:href="#a5EOeEsEp" opacity="1" fill="url(#gradienta1k18usmu2)"></use><g><use xlink:href="#a5EOeEsEp" opacity="1" fill-opacity="0" stroke="#000000" stroke-width="1" stroke-opacity="0"></use></g></g><g><use xlink:href="#b3FLXUHfP" opacity="1" fill="url(#gradientb1fd56B4li)"></use><g><use xlink:href="#b3FLXUHfP" opacity="1" fill-opacity="0" stroke="#000000" stroke-width="1" stroke-opacity="0"></use></g></g><g><use xlink:href="#eaap0FDQgI" opacity="1" fill="url(#gradientdXiCzXlGj)"></use><g><use xlink:href="#eaap0FDQgI" opacity="1" fill-opacity="0" stroke="#000000" stroke-width="1" stroke-opacity="0"></use></g></g><g><use xlink:href="#f9yDvxFcw" opacity="1" fill="url(#gradientb5IJnXSYu)"></use><g><use xlink:href="#f9yDvxFcw" opacity="1" fill-opacity="0" stroke="#000000" stroke-width="1" stroke-opacity="0"></use></g></g><g><use xlink:href="#b1KXskwux" opacity="1" fill="url(#gradienta2r7sJqM7h)"></use><g><use xlink:href="#b1KXskwux" opacity="1" fill-opacity="0" stroke="#000000" stroke-width="1" stroke-opacity="0"></use></g></g><g><use xlink:href="#e1jpv2Ocp" opacity="1" fill="url(#gradientb7dvK9RVM)"></use><g><use xlink:href="#e1jpv2Ocp" opacity="1" fill-opacity="0" stroke="#000000" stroke-width="1" stroke-opacity="0"></use></g></g><g><use xlink:href="#a3resZLMy1" opacity="1" fill="#191919" fill-opacity="1"></use><g><use xlink:href="#a3resZLMy1" opacity="1" fill-opacity="0" stroke="#000000" stroke-width="5" stroke-opacity="0"></use></g></g><g><use xlink:href="#bgddD4Ov4" opacity="1" fill="#f52203" fill-opacity="1"></use><g><use xlink:href="#bgddD4Ov4" opacity="1" fill-opacity="0" stroke="#990410" stroke-width="5" stroke-opacity="1"></use></g></g><g><use xlink:href="#a8OsXxs2Fd" opacity="1" fill="#f52203" fill-opacity="1"></use><g><use xlink:href="#a8OsXxs2Fd" opacity="1" fill-opacity="0" stroke="#6f030c" stroke-width="5" stroke-opacity="1"></use></g></g></g></g></svg>