<svg xmlns="http://www.w3.org/2000/svg" xmlns:xlink="http://www.w3.org/1999/xlink" preserveAspectRatio="xMidYMid meet" width="640" height="1280"><style><![CDATA[.B{fill-opacity:0}.C{stroke:#000}.D{stroke-opacity:0}.E{fill:#4f4c4c}.F{fill:#d3d2d2}.G{fill:#231f20}.H{fill:#eaf1f3}.I{fill:#bdbcbc}.J{fill:#ed1c24}.K{fill:#656263}.L{fill:#ec3f41}.M{fill:#fff}.N{fill:#e9e9e9}]]></style><defs><path d="M285.58 830.16v-39.58h-22.75v39.58h22.75" id="A"/><path d="M283.13 790.82v17.5h-17.9v-17.5h17.9" id="B"/><path d="M402.8 1229.06l-45.3 29.54-85.78-.2-43.93-29.23v-17.87l72.92 46.62 27.62.06 74.5-46.55v17.62" id="C"/><path d="M403.2 1166.83v14.47H226.6v-14.47h176.6" id="D"/><path d="M214.55 692.65c10.02-3.78 21.68-5.55 34.98-5.3 21.44.84 33.68 4.46 36.05 10.4v96.77c-6.84 6.16-18.38 9.16-34.63 9.24-9.3.23-19.78-.85-31.46-3.46l-4.94-107.63" id="E"/><path d="M322.05 1272.98v32.46h-18.58v-32.46h5v-2h8.8v2h4.76" id="F"/><path d="M402.03 1257.78v13.64H227.95v-13.64h174.08" id="G"/><path d="M330.4 697.62l8.6 7.8v20.67h-10.26l3.3 82.7 70.56.16.5 18.13h-69.07l1.57 38.3h11.52v20.18l-6.8 8.9v2.4h5.75l.53 6.16h11l.52-7.52 17.8-.34v8.2h28.27l-1.07 22.5H376l-.4 55.15 26.87-20.37-.04 89.36-55.94-35.25-8.75-.04v3.3l9.8-.44v20.08l-10.55 8.2-.42 10.2h10.28v8.32l-2.47.8v6.98h2.88l21.36 13.7 17.66-.27 1.64 1.88h16.02l-.82 20.4-14.78.27-1.23 1.88-.84.2-.43.1-.42.1-.42.1-2.52.6-.85.2-2.94.7-.43.1-1.68.4-.42.1-1.26.3-.43.1-3.78.9-.43.1-.96 1.73-1.17 1.64-1.37 1.54-1.56 1.44-1.73 1.35-1.9 1.26-2.06 1.17-2.2 1.07-2.34.98-2.46.9-2.58.8-2.68.72-2.77.64-2.86.55-2.93.46-3 .38-3.05.3-3.08.22-3.12.13-3.13.06-3.15-.02-3.14-.1-3.14-.17-3.1-.25-3.08-.32-3.03-.4-3-.46-2.92-.54-2.84-.6-2.76-.67-2.67-.75-2.56-.8-2.45-.87-2.3-.95-2.2-1-2.03-1.07-1.88-1.13-1.7-1.2-1.53-1.25-1.34-1.3v-4.02l-.1-.05-.1-.04-.2-.1-.2-.1-.1-.05-.1-.05-.1-.04-.2-.1-.1-.05-.1-.04-.2-.1-.1-.04-.2-.1-.1-.04-.1-.05-.2-.1-.1-.04-.1-.05-.1-.05-.1-.04-.1-.05-.1-.05-.1-.04-.2-.1-.1-.04-.2-.1-.1-.04-.1-.05-.1-.05-.1-.04-.1-.05-.1-.05v4.83h-.4l-.78-.02h-.4l-.78-.02h-.4l-.78-.02h-.4l-.78-.02h-.4l-1.17-.03h-.4l-.4-.01-1.17-.02h-.4-.4l-.78-.02h-.4l-.78-.02h-.4l-.78-.02h-.4l-.4-.01-.4-.01h-.4-.78-.4l-.78-.02-.01-.17-.01-.18-.01-.17-.01-.18-.02-.34v-.18l-.02-.17-.01-.18-.01-.17-.01-.18-.01-.17-.01-.18-.01-.17-.01-.18v-.34-.18l-.01-.17-.02-.35-.01-.18-.01-.17-.01-.18-.02-.34v-.18-.17l-.01-.18-.01-.17-.01-.18-.01-.17-.01-.18-.01-.17-.02-.18v-.17-.18l-.02-.34-.01-.18-26.28-.26.4-20.95 28.35-1.07v-53.16l-26.7 16.65-.6-89.4 55.73 37h31.45v-40.35h-11.44V936.7l-1.33.67-1.4.64-1.44.6-1.48.58-1.53.54-1.56.5-1.6.48-1.64.45-1.68.42-1.72.38-1.74.36-1.77.32-1.8.3-1.82.26-1.85.24-1.87.2-1.88.18-1.9.14-1.9.12-1.93.08-1.93.06-1.94.03-1.95.01-1.95-.03-1.95-.05-1.95-.08-1.94-.1-1.94-.13-1.94-.16-1.92-.2-1.9-.22-1.9-.24-1.88-.26-1.86-.3-1.84-.32-1.82-.34-1.8-.37-1.77-.4-1.73-.4-1.7-.44-.12-.06-.12-.05-.24-.12-.12-.05-.12-.06-.13-.05-.24-.12-.12-.05-.12-.06-.12-.05-.13-.06-.48-.22-.12-.06-.5-.22-.24-.12-.12-.05-.25-.1-.24-.12-.12-.05-.12-.06-.12-.05-.13-.06-.12-.06-.12-.05-.12-.06-.12-.05-.12-.06-.13-.06-.12-.05.6-41.5 13.15-4.53 8.9-6.86 5.52-.23v-7.8h-2.14l-1.07-1.05v-6.16l1.25-1.4h7.47v-10.1l-8.58-7.94V830.2h11.02v-5.33h22v5.52h10.73l-.27 20.24-9.6 6.8v11.22l8.47.2 1.4 1.65-.27 4.6-1.7 2.03v7.73l6.5 5.9 6.8 1.84 2.4 1.18v3.5h4.53v-3.68l-3.98-3.42-6.04-3.95v-18.66l1.23-1.44h8.24l-7.98-140.17H294.7l-.4-20 9.7-7.84v-4.56l26.43.03v4.02zm-64 388.2h9.33l27-13.88h2.8v-6.78l-3-.9.07-8.73h7.82v-9.55l-8.58-8.08v-20.1l10.85-.16v-3.3l-28.18-.12-18.12 11.67v59.94zm80.73-159.03h-9v3.2l8.75 6.7v20.65h-10.56l.27 40.96 8.23-.16 14.7-9.9V976.3l3.1-.67v-48.68l-.78-1.68-14.68.17v1.34z" id="H"/><path d="M334.26 808.7v18.4h-108.3v-18.4h108.3" id="I"/><path d="M282.7 711.5v67.86h-54.28V711.5h54.28" id="J"/><path d="M282.7 781.1v11.43h-54.28V781.1h54.28" id="K"/><path d="M282.7 698.37v11.43h-54.28v-11.43h54.28" id="L"/><path d="M211.98 696.8c3.2-4.67 17.76-8.2 35.25-8.2 17.48 0 32.04 3.52 35.24 8.2h-70.5" id="M"/><path d="M212.68 794.22c3.2 4.66 17.74 8.18 35.23 8.18 17.48 0 32.04-3.52 35.25-8.18h-70.48" id="N"/><path d="M228.84 692.36v580.15h-25.7V692.36h25.7" id="O"/><path d="M427.83 692.36v580.15h-25.68V692.36h25.68" id="P"/><path d="M425.36 693.73v577.12h-21.03V693.73h21.03" id="Q"/><path d="M400.53 1259.05v10.9h-170.6v-10.9h170.6" id="R"/><path d="M345.1 999.4v13.15h-61.87V999.4h61.87" id="S"/><path d="M401.72 810.55v15.06H229.44v-15.06h172.28" id="T"/><path d="M343.57 898.3v27H309.7v-27h33.87" id="U"/><path d="M345.44 937.23v18.6h-8.05v-15.2H313.8v15.2h-8.05v-18.6l3.83-3.2h4.22v.12h23.58v-.12h3.02l5.03 3.2" id="V"/><path d="M335.54 926.73v3.35l3.18 2.4H310.2l3.7-2.75v-3h21.64" id="W"/><path d="M334.44 942.95v54.03h-17.9v-54.03h17.9" id="X"/><path d="M334.44 1014.4v17.5h-17.9v-17.5h17.9" id="Y"/><path d="M344.97 1037.75v-18.6h-8.06v15.2h-23.57v-15.2h-8.05v18.6l3.84 3.18h4.2v-.1h23.57v.1h3.03l5.03-3.18" id="Z"/><path d="M335.08 1048.25v-3.35l3.17-2.4h-28.52l3.7 2.76v3h21.65" id="a"/><path d="M334.93 1050.24v5.28h-21.55v-5.28h21.55" id="b"/><path d="M344.55 1057.3v6.03H305.3v-6.03h39.25" id="c"/><path d="M367.22 1114.7c-1.43 8.37-21.6 15-46.26 15s-44.82-6.64-46.25-15h92.5" id="d"/><path d="M400.6 1088.5v17.93h-13.3v-17.93h13.3" id="e"/><path d="M384.3 1087.1v22.13l-16.58 3.28-91.98.24-7.2-3.52v-22.13h8.16l26.57-13.46 41.95-.12 22.8 13.58h16.3" id="f"/><path d="M266.1 1096.24v18.42H254.3v-18.42h11.82" id="g"/><path d="M264.3 1027.9v66.26H257v-61.95l7.3-4.3" id="h"/><path d="M252.82 1088.75v18.97h-25.28v-18.97h25.28" id="i"/><path d="M226.44 693.73v577.12h-21V693.73h21" id="j"/><path d="M229.1 964.07v83.27l52.16-33.1v-15.6l-52.16-34.57" id="k"/><path d="M305.54 885.83v-18.6h8.05v15.2h23.58v-15.2h8.05v18.6l-3.85 3.2h-4.2v-.13H313.6v.13h-3.03l-5.02-3.2" id="l"/><path d="M316.17 896.33v-3.35l-3.17-2.4h28.53l-3.7 2.74v3h-21.65" id="m"/><path d="M296.5 705.7v18.62h8.06v-15.2h23.57v15.2h8.05V705.7l-3.84-3.18h-4.2v.12h-23.57v-.12h-3.03l-5.03 3.18" id="n"/><path d="M306.4 695.2v3.35l-3.18 2.4h28.5l-3.7-2.75v-3H306.4" id="o"/><path d="M306.93 925.1l-77.82.2v-28.23l12.33-4.33 9.14-6.53 41.95-.13 6.56 5.53 7.84 2.63v30.86" id="p"/><path d="M310.2 927.44c-1.43 8.37-21.6 15-46.26 15-13.7 0-26-2.05-34.47-5.3v-9.7h80.73" id="q"/><path d="M342.63 1064.86v7.32H308v-7.32h34.64" id="r"/><path d="M283.13 826.68v17.48h-17.9v-17.48h17.9" id="s"/><path d="M293.65 850.03v-18.6h-8.06v15.2H262v-15.2h-8.04v18.6l3.83 3.2h4.2v-.12h23.58v.12h3.03l5.03-3.2" id="t"/><path d="M283.75 860.53v-3.35l3.18-2.4H258.4l3.7 2.75v3h21.64" id="u"/><path d="M283.6 862.53v5.28h-21.56v-5.28h21.56" id="v"/><path d="M293.23 869.57v6.04h-39.26v-6.04h39.26" id="w"/><path d="M291.3 877.14v7.32h-34.64v-7.32h34.64" id="x"/><path d="M400.24 963.38v83.26l-52.16-33.1v-15.58l12.27-8.15v.8l14.98-.64v-7.7l24.9-18.9" id="y"/><path d="M357.5 904.64v13.58h4.65v5.9h-6.3v-.18h-9v-19.3h10.66" id="z"/><path d="M401.2 904.94v18.9h-25.2v-18.9h25.2" id="AA"/><path d="M320.05 1273.9v14.2H305.8v-14.2h14.26" id="AB"/><path d="M320.05 1290.3v14.2H305.8v-14.2h14.26" id="AC"/><path d="M400.9 1228.52v-14.67l-68.95 43.33h25.12l43.83-28.66" id="AD"/><path d="M228.53 1228.52v-14.67l68.97 43.33h-25.12l-43.85-28.66" id="AE"/><path d="M400.53 1168.75v10.9H228.1v-10.9h172.42" id="AF"/><path d="M373.4 896.8v19.37h-13.08V896.8h13.08" id="AG"/><path d="M373.03 918.93v56.35h-8.47v-56.35h8.47" id="AH"/><path d="M373.03 978.04v11.07h-10.4v-11.07h10.4" id="AI"/><path d="M428.6 993.87h6.23l.74-6.7h34.84l1.47 9.35h12.47v18.22H472.6l-1.47 9.1-2.94.72v6l-6.23.24v21.1l5.13.24v8.15h-4.76v12.47h4.4v6.96h-4.76v13.9h5.13l2.2-4.08.36-23.25h5.5l-.1 66.96h-5.17v-24.06l-2.88-3.65-1.62-.12-.5 10.74h-19.45l-.36-12h-2.56l-.17 5.28h-19.28v-22.78h18.34l.73 4.8h2.37l-.16-11.26-6.24-.24V1073l5.86-.24v-12.7h-5.86v-8.15h5.5v-20.86l-4.03-.48v-6.48h-4.03v-5.27h-11.02v-24.46l4.05-.48" id="AJ"/><path d="M428.6 1017.53h6.23l.74 6.72h34.84l1.47-9.35h12.47v-18.23H472.6l-1.47-9.1-2.94-.72v-6l-6.23-.24v-21.1l5.13-.24v-8.15h-4.76v-12.47h4.4v-6.95h-4.76v-13.9h5.13l2.2 4.08.36 23.26h5.5l-.1-66.97h-5.17v24.06l-2.88 3.65-1.62.12-.5-10.74h-19.45l-.36 12h-2.56l-.17-5.28h-19.28v22.78h18.34l.73-4.8h2.37l-.16 11.27-6.24.24v6.95l5.86.24v12.7h-5.86v8.15h5.5v20.86l-4.03.5v6.47h-4.03v5.27h-11.02v24.46l4.05.48" id="AK"/><path d="M474.77 1028.5v138.18c0 6.2 7.77 11.3 17.3 11.3h28.18c9.5 0 17.27-5.08 17.27-11.3V1028.5c0-6.2-7.76-11.3-17.27-11.3h-28.18c-9.52 0-17.3 5.08-17.3 11.3" id="AL"/><path d="M432.34 1087.83v19.9h7.95v-19.9h-7.95" id="AM"/><path d="M444.25 1095.4v6.3h22.04v-6.3h-22.04" id="AN"/><path d="M437.56 988.32v33.9h31.25v-33.9h-31.25" id="AO"/><path d="M441.82 1025v4.18h24.14V1025h-24.14" id="AP"/><path d="M446.9 1030.93v21.02H459v-21.02h-12.1" id="AQ"/><path d="M441 1053.92v4.17h24.13v-4.17H441" id="AR"/><path d="M441 1074.1v4.18h24.13v-4.18H441" id="AS"/><path d="M447.3 1060.4v12.28h12.1v-12.28h-12.1" id="AT"/><path d="M447.3 1080.06v12.28h12.1v-12.28h-12.1" id="AU"/><path d="M447.3 1104.02v9.96h15.74v-9.96H447.3" id="AV"/><path d="M471.6 998.18v14.86h10.47v-14.86H471.6" id="AW"/><path d="M429.3 995.2v21.4h5.46v-21.4h-5.46" id="AX"/><path d="M487 1175.56l-.44-.1-.43-.12-.42-.12-.42-.14-.4-.14-.4-.15-.4-.15-.4-.17-.37-.17-.37-.18-.36-.2-.35-.2-.34-.2-.33-.2-.32-.22-.62-.44-.3-.24-.27-.23-.27-.25-.26-.25-.24-.25-.24-.26-.22-.27-.2-.27-.2-.27-.18-.28-.17-.3-.16-.3-.14-.3-.13-.3-.1-.3-.1-.3-.1-.3-.07-.3-.05-.32-.04-.3-.03-.32-.01-.32.04-138.66.04-.3.05-.32.07-.3.1-.3.1-.3.1-.3.13-.3.14-.3.16-.3.17-.3.18-.28.2-.27.2-.27.22-.27.24-.26.24-.25.26-.25.27-.25.27-.24.3-.23.3-.22.3-.23.32-.2.33-.2.34-.2.35-.2.36-.2.37-.18.37-.17.4-.17.4-.15.4-.15.4-.15.42-.13.42-.12.43-.12.44-.1.44-.1v156.46l-.44-.1z" id="AY"/><path d="M541.36 1029v138.18c0 6.2 7.77 11.3 17.27 11.3h28.18c9.52 0 17.3-5.08 17.3-11.3V1029c0-6.2-7.77-11.3-17.3-11.3h-28.18c-9.5 0-17.27 5.08-17.27 11.3" id="AZ"/><path d="M553.58 1176.07l-.44-.1-.43-.12-.42-.12-.42-.14-.4-.14-.4-.15-.4-.15-.76-.34-.37-.18-.36-.2-.35-.2-.34-.2-.33-.2-.64-.44-.3-.22-.3-.24-.28-.23-.52-.5-.25-.25-.23-.26-.22-.27-.2-.27-.2-.27-.18-.28-.17-.3-.16-.28-.14-.3-.13-.3-.1-.3-.1-.3-.1-.3-.07-.3-.05-.3-.04-.32-.03-.32-.01-.32.04-138.66.04-.3.05-.32.07-.3.1-.3.1-.3.1-.3.13-.3.14-.3.16-.3.17-.3.18-.27.2-.28.2-.27.22-.26.23-.27.25-.25.26-.25.26-.24.28-.24.3-.24.3-.22.64-.44.33-.2.34-.2.35-.2.36-.2.37-.18.38-.17.38-.16.4-.16.4-.15.4-.14.42-.14.42-.12.43-.12.44-.1.44-.1v156.45l-.44-.1z" id="Aa"/><path d="M474.77 982.9V844.73c0-6.2 7.77-11.3 17.3-11.3h28.18c9.5 0 17.27 5.08 17.27 11.3V982.9c0 6.2-7.76 11.3-17.27 11.3h-28.18c-9.52 0-17.3-5.08-17.3-11.3" id="Ab"/><path d="M432.34 923.57V903.7h7.95v19.88h-7.95" id="Ac"/><path d="M444.25 916v-6.28h22.04V916h-22.04" id="Ad"/><path d="M437.56 1023.08v-33.9h31.25v33.9h-31.25" id="Ae"/><path d="M441.82 986.4v-4.18h24.14v4.18h-24.14" id="Af"/><path d="M446.9 980.46v-21H459v21h-12.1" id="Ag"/><path d="M441 957.48v-4.17h24.13v4.17H441" id="Ah"/><path d="M441 937.3v-4.18h24.13v4.18H441" id="Ai"/><path d="M447.3 951V938.7h12.1V951h-12.1" id="Aj"/><path d="M447.3 931.35v-12.28h12.1v12.28h-12.1" id="Ak"/><path d="M447.3 907.37v-9.95h15.74v9.95H447.3" id="Al"/><path d="M471.6 1013.23v-14.86h10.47v14.86H471.6" id="Am"/><path d="M429.3 1016.2v-21.4h5.46v21.4h-5.46" id="An"/><path d="M487 992.1l-.44-.1-.43-.1-.84-.26-.4-.14-.4-.15-.4-.16-.4-.17-.37-.17-.37-.18-.36-.2-.35-.2-.34-.2-.33-.2-.32-.2-.3-.22-.3-.23-.3-.23-.27-.24-.27-.25-.26-.25-.24-.25-.24-.26-.22-.27-.2-.27-.2-.27-.18-.28-.17-.3-.16-.28-.14-.3-.13-.3-.1-.3-.1-.3-.1-.3-.07-.3-.05-.3-.04-.32-.03-.3-.01-.32.04-138.67.04-.3.05-.3.07-.3.1-.3.1-.3.1-.3.13-.3.14-.3.16-.3.17-.28.18-.28.2-.28.2-.27.22-.26.48-.52.26-.25.54-.48.3-.24.62-.44.32-.22.33-.2.34-.2.35-.2.36-.2.37-.18.37-.17.78-.32.4-.15.4-.14.42-.14.42-.12.43-.12.44-.1.44-.1V992.2l-.44-.1z" id="Ao"/><path d="M541.36 982.4V844.22c0-6.2 7.77-11.3 17.27-11.3h28.18c9.52 0 17.3 5.08 17.3 11.3V982.4c0 6.2-7.77 11.3-17.3 11.3h-28.18c-9.5 0-17.27-5.08-17.27-11.3" id="Ap"/><path d="M553.58 991.6l-.44-.1-.43-.12-.42-.12-.42-.14-.4-.14-.4-.15-.4-.15-.76-.34-.37-.18-.36-.2-.35-.2-.34-.2-.33-.2-.64-.44-.3-.22-.3-.24-.28-.23-.52-.5-.25-.25-.23-.26-.22-.27-.2-.27-.2-.27-.18-.28-.17-.3-.16-.28-.14-.3-.13-.3-.1-.3-.1-.3-.1-.3-.07-.3-.05-.3-.04-.32-.03-.32-.01-.32.04-138.66.04-.3.05-.32.07-.3.1-.3.1-.3.1-.3.13-.3.14-.3.16-.3.17-.28.18-.28.2-.28.2-.27.22-.26.23-.26.25-.26.26-.25.26-.24.28-.24.3-.24.3-.22.64-.44.33-.2.34-.2.35-.2.36-.2.37-.18.76-.34.4-.15.4-.15.4-.14.42-.14.42-.12.43-.12.44-.1.44-.1V991.7l-.44-.1z" id="Aq"/><path d="M312 808.66l-4.54-94.8h17.9l4.53 94.8H312z" id="Ar"/><path d="M166.56 1250.96v16.15h-96.6v-16.15h-20.3v-10.1H203.6v10.1h-10.14v8.65H175.4v-8.65h-8.83" id="As"/><path d="M202.53 1242.1v7.86H52.27v-7.86h150.26" id="At"/><path d="M164.34 1262.8v2.9H73.57v-2.9h90.77" id="Au"/><path d="M462.76 1250.96v16.15h96.62v-16.15h20.3v-10.1H425.7v10.1h10.15v8.65h18.08v-8.65h8.82" id="Av"/><path d="M426.8 1242.1v7.86h150.26v-7.86H426.8" id="Aw"/><path d="M465 1262.8v2.9h90.76v-2.9H465" id="Ax"/><path d="M203.57 993.87h-6.23l-.74-6.7h-34.86l-1.46 9.35H147.8v18.22h11.73l1.47 9.1 2.94.72v6l6.23.24v21.1l-5.14.24v8.15h4.78v12.47h-4.4v6.96h4.77v13.9h-5.14l-2.2-4.08-.37-23.25h-5.5l.1 66.96h5.18v-24.06l2.88-3.65 1.62-.12.5 10.74h19.45l.36-12h2.57l.14 5.28h19.3v-22.78h-18.34l-.74 4.8h-2.38l.18-11.26 6.24-.24V1073l-5.88-.24v-12.7h5.88v-8.15h-5.5v-20.86l4.03-.48v-6.48h4.04v-5.27h11v-24.46l-4.03-.48" id="Ay"/><path d="M203.57 1017.53h-6.23l-.74 6.72h-34.86l-1.46-9.35H147.8v-18.23h11.73l1.47-9.1 2.94-.72v-6l6.23-.24v-21.1l-5.14-.24v-8.15h4.78v-12.47h-4.4v-6.95h4.77v-13.9h-5.14l-2.2 4.08-.37 23.26h-5.5l.1-66.97h5.18v24.06l2.88 3.65 1.62.12.5-10.74h19.45l.36 12h2.57l.14-5.28h19.3v22.78h-18.34l-.74-4.8h-2.38l.18 11.27 6.24.24v6.95l-5.88.24v12.7h5.88v8.15h-5.5v20.86l4.03.5v6.47h4.04v5.27h11v24.46l-4.03.48" id="Az"/><path d="M157.37 1028.5v138.18c0 6.2-7.78 11.3-17.28 11.3H111.9c-9.5 0-17.3-5.08-17.3-11.3V1028.5c0-6.2 7.78-11.3 17.3-11.3h28.18c9.5 0 17.28 5.08 17.28 11.3" id="BA"/><path d="M199.8 1087.83v19.9h-7.97v-19.9h7.97" id="BB"/><path d="M187.9 1095.4v6.3h-22.04v-6.3h22.04" id="BC"/><path d="M194.58 988.32v33.9h-31.25v-33.9h31.25" id="BD"/><path d="M190.33 1025v4.18h-24.15V1025h24.15" id="BE"/><path d="M185.27 1030.93v21.02h-12.1v-21.02h12.1" id="BF"/><path d="M191.16 1053.92v4.17H167v-4.17h24.15" id="BG"/><path d="M191.16 1074.1v4.18H167v-4.18h24.15" id="BH"/><path d="M184.85 1060.4v12.28h-12.1v-12.28h12.1" id="BI"/><path d="M184.85 1080.06v12.28h-12.1v-12.28h12.1" id="BJ"/><path d="M184.85 1104.02v9.96H169.1v-9.96h15.75" id="BK"/><path d="M160.56 998.18v14.86H150.1v-14.86h10.47" id="BL"/><path d="M202.84 995.2v21.4h-5.46v-21.4h5.46" id="BM"/><path d="M145.58 1019.4l.86.24.4.13.4.15.4.15.4.15.4.17.38.17.36.18.36.2.35.2.35.2.33.2.32.2.3.23.3.22.3.23.28.24.27.25.26.25.24.25.23.26.23.27.4.54.18.28.17.3.16.3.14.3.13.3.12.3.1.3.08.3.07.3.06.32.04.3.02.32.01.32-.07 138.97-.06.32-.07.3-.08.3-.1.3-.12.3-.13.3-.14.3-.16.3-.17.3-.18.28-.4.54-.23.27-.23.26-.24.25-.26.25-.27.25-.28.23-.3.24-.3.22-.3.22-.32.22-.33.2-.35.2-.35.2-.36.2-.36.18-.38.17-.4.17-.4.15-.4.15-.82.28-.86.24-.43.1-.45.1V1019.2l.45.1.43.1z" id="BN"/><path d="M90.8 1029v138.18c0 6.2-7.78 11.3-17.27 11.3h-28.2c-9.5 0-17.27-5.08-17.27-11.3V1029c0-6.2 7.78-11.3 17.27-11.3h28.2c9.5 0 17.27 5.08 17.27 11.3" id="BO"/><path d="M79 1019.92l.43.12.42.12.42.14.4.14.4.15.78.32.37.17.37.18.36.2.35.2.34.2.33.2.32.22.62.44.3.24.54.48.26.25.25.25.23.27.22.26.2.27.2.28.2.27.17.3.3.58.13.3.1.3.1.3.1.3.07.3.05.32.04.3.03.32-.07 139.3-.05.3-.07.3-.1.3-.1.3-.1.3-.13.3-.15.3-.15.28-.17.3-.2.28-.2.27-.2.27-.22.27-.23.26-.25.25-.26.25-.27.25-.27.23-.3.24-.62.44-.32.22-.33.2-.34.2-.35.2-.36.2-.37.18-.37.17-.4.17-.4.15-.4.15-.4.14-.42.14-.42.12-.43.12-.43.1-.45.1v-156.45l.45.1.43.1z" id="BP"/><path d="M157.37 982.9V844.73c0-6.2-7.78-11.3-17.28-11.3H111.9c-9.5 0-17.3 5.08-17.3 11.3V982.9c0 6.2 7.78 11.3 17.3 11.3h28.18c9.5 0 17.28-5.08 17.28-11.3" id="BQ"/><path d="M199.8 923.57V903.7h-7.97v19.88h7.97" id="BR"/><path d="M187.9 916v-6.28h-22.04V916h22.04" id="BS"/><path d="M194.58 1023.08v-33.9h-31.25v33.9h31.25" id="BT"/><path d="M190.33 986.4v-4.18h-24.15v4.18h24.15" id="BU"/><path d="M185.27 980.46v-21h-12.1v21h12.1" id="BV"/><path d="M191.16 957.48v-4.17H167v4.17h24.15" id="BW"/><path d="M191.16 937.3v-4.18H167v4.18h24.15" id="BX"/><path d="M184.85 951V938.7h-12.1V951h12.1" id="BY"/><path d="M184.85 931.35v-12.28h-12.1v12.28h12.1" id="BZ"/><path d="M184.85 907.37v-9.95H169.1v9.95h15.75" id="Ba"/><path d="M160.56 1013.23v-14.86H150.1v14.86h10.47" id="Bb"/><path d="M202.84 1016.2v-21.4h-5.46v21.4h5.46" id="Bc"/><path d="M145.58 835.95l.86.24.82.28.4.15.78.32.38.17.36.18.36.2.35.2.35.2.33.2.32.22.3.22.3.22.3.24.28.24.27.24.26.25.24.26.46.52.2.27.2.28.18.28.17.28.16.3.14.3.13.3.12.3.1.3.08.3.07.3.06.3.04.3.02.32.01.32-.07 138.98-.06.3-.07.3-.08.3-.1.3-.12.3-.13.3-.14.3-.16.28-.17.3-.18.28-.4.54-.23.27-.23.26-.24.25-.26.25-.27.25-.28.24-.3.23-.3.23-.3.22-.32.2-.33.2-.35.2-.35.2-.36.2-.36.18-.38.17-.4.17-.4.16-.4.15-.4.14-.4.13-.43.13-.86.22-.45.1V835.74l.45.1.43.1z" id="Bd"/><path d="M90.8 982.4V844.22c0-6.2-7.78-11.3-17.27-11.3h-28.2c-9.5 0-17.27 5.08-17.27 11.3V982.4c0 6.2 7.78 11.3 17.27 11.3h28.2c9.5 0 17.27-5.08 17.27-11.3" id="Be"/><path d="M79 835.44l.43.12.42.12.42.14.4.14.4.15.4.15.4.17.37.17.37.18.36.2.35.2.34.2.33.2.32.22.62.44.3.24.54.48.26.25.25.26.23.26.22.26.2.27.38.56.17.28.3.58.13.3.1.3.1.3.1.3.07.3.05.32.04.3.03.32-.07 139.3-.05.3-.07.3-.1.3-.1.3-.1.3-.13.3-.15.3-.15.28-.17.3-.2.28-.2.27-.2.27-.22.27-.23.26-.25.25-.26.25-.27.25-.27.23-.3.24-.62.44-.32.22-.33.2-.34.2-.35.2-.36.2-.37.18-.37.17-.4.17-.4.15-.4.15-.4.14-.42.14-.42.12-.43.12-.43.1-.45.1V835.23l.45.1.43.1z" id="Bf"/><path d="M316.08 10.45L39.43 9.9C11.03 9.85 1.05 25.67 0 40.72h41.92v47.94c-8.63 3.4-15.72 8.5-15.72 17.73V271.9c0 7.76 10.36 12.26 17.02 15.1 3.2 3.24 6 7.32 9.2 10.56-8.96 8.67-7.44 17.94 2.6 29.1v5.7l-16.6.57-12.23 6.85 3.74 182.56 11.37 9.5 16.37.9-26.83 18.72-1.4 221.7h28.1l42.13-20.52 216.42-.5 216.4.5 42.13 20.52h28.07l-1.4-221.7-26.83-18.72 16.36-.9 11.37-9.5 3.75-182.56-12.24-6.85-16.6-.57v-5.7c10.05-11.17 11.58-20.44 2.63-29.1 3.2-3.24 5.96-7.32 9.17-10.56 6.68-2.84 17.03-7.34 17.03-15.1V106.4c0-9.22-7.1-14.33-15.73-17.73V40.72h41.92C631.1 25.67 621.12 9.85 592.72 9.9l-276.64.55" id="Bg"/><path d="M627.26 37.55H419.64l-2.85-9.1-106.03.16-95.4-.16-2.86 9.1H4.87c0-15.23 16.65-24.5 39.6-24.5h543.2c22.95 0 39.6 9.26 39.6 24.5" id="Bh"/><path d="M420.14 49.05l86.8 257.54-190.87-.5-190.88.5L212 49.05h208.13" id="Bi"/><path d="M497.8 350.3v15.48c0 2.23-2.84 4.05-6.3 4.05H332.4c-3.46 0-6.3-1.82-6.3-4.05V350.3c0-2.23 2.84-4.05 6.3-4.05h159.1c3.46 0 6.3 1.82 6.3 4.05" id="Bj"/><path d="M520.47 352.38l-3.56 29.02c0-6.44-8.06-11.7-17.9-11.7h-2.6c2.96-.5 5.16-2.28 5.16-4.37v-17.24c0-2.48-3.12-4.5-6.92-4.5H328.22c-3.8 0-6.9 2.03-6.9 4.5v17.24c0 2.1 2.2 3.86 5.15 4.37h-20.78c2.96-.5 5.16-2.28 5.16-4.37v-17.24c0-2.48-3.12-4.5-6.9-4.5H137.5c-3.8 0-6.9 2.03-6.9 4.5v17.24c0 2.1 2.2 3.86 5.15 4.37h-2.6c-9.86 0-17.9 5.27-17.9 11.7l-3.56-29.02c-.82-6.7 8.42-12.23 18.7-12.23h371.38c10.28 0 19.52 5.52 18.7 12.23" id="Bk"/><path d="M506.35 396.2l12.52 111.5c.02.07-20.46.12-30.16.15l-177.27.42-198.16-.57 12.5-111.5c.7-6.3 7.95-11.5 17.65-11.5H488.7c9.7 0 16.93 5.2 17.64 11.5" id="Bl"/><path d="M584.53 40.56v48.6h-146.2l-17.27-48.88 163.48.3" id="Bm"/><path d="M557.08 670.28l2.4-.38-22.17-159.06 60.4 40.85 1.37 219.13h-22.9l-42.88-21.63H98.83l-42.9 21.63H33.06l1.37-219.13 60.4-40.85L72.67 669.9l2.38.38 23.38-159.1 217.65.84 217.64-.84 23.36 159.1" id="Bn"/><path d="M580.74 310.37c0 11.6-14.4 21-32.13 21-17.75 0-32.15-9.4-32.15-21 0-11.6 14.4-21 32.15-21 17.73 0 32.13 9.4 32.13 21" id="Bo"/><path d="M582.46 286.27l-7.1 10.28-.52-.42-.54-.4-.55-.4-.57-.4-.58-.4-.6-.37-.6-.37-.62-.36-.64-.34-.65-.34-.66-.33-.67-.32-.68-.3-.7-.3-.7-.3-.72-.27-.73-.27-.74-.25-.75-.24-.76-.23-.77-.22-.78-.2-.8-.2-.8-.18-.8-.17-.82-.16-.82-.15-.83-.13-.84-.12-.84-.1-.86-.1-.86-.08-.86-.06-.88-.05-.87-.04-.9-.02-.9-.01-1.42.02-1.4.05-1.4.1-1.38.12-1.36.17-1.34.2-1.32.24-1.3.26-1.28.3-1.25.33-1.23.36-1.2.4-1.17.4-1.15.45-1.12.47-1.1.5-1.06.52-1.03.56-1 .57-.96.6-.92.63-.9.64-.84.67-.8.7-.77.7-.73.73-.7.75-.64.77-.6.78-.55.8-.5.82-.46.83-.4.85-.36.86-.3.88-.25.88-.2.9-8.38-22.24 10.93 3.38 66.14-2.63z" id="Bp"/><path d="M598.78 339.96l-.95 182.34-10.3 7.97H571.6l-29.4-20.72-17.48-175.72 66.56 1.84 7.5 4.3zm-15.6 3.94h-.1l-.1.02-.1.01-.2.04-.1.03-.1.02-.18.06-.1.04-.1.03-.1.04-.08.04-.08.05-.08.04-.07.05-.08.05-.14.1-.06.05-.18.18-.1.12-.04.06-.05.07-.03.07-.04.06-.06.14-.04.14-.02.08-.01.07.05 172.6.02.07.06.14.04.07.03.06.05.07.04.06.1.12.18.18.06.05.07.05.07.06.08.04.07.05.08.05.16.08.1.04.1.03.1.04.18.06.1.03.4.08h.1.1l.1.01h.43l.1-.01h.1.1l.4-.08.1-.03.1-.03.1-.03.1-.04.1-.03.08-.04.1-.04.08-.04.07-.05.08-.05.07-.04.07-.06.14-.1.12-.12.05-.06.06-.06.04-.06.05-.06.04-.07.04-.06.04-.07.03-.07.02-.07.03-.07.02-.07.01-.08.02-.14-.1-172.66-.03-.07-.04-.06-.08-.14-.05-.06-.04-.06-.06-.06-.05-.06-.12-.12-.28-.2-.08-.05-.07-.04-.08-.05-.1-.04-.08-.04-.1-.03-.1-.04-.1-.03-.1-.03-.1-.02-.1-.03-.2-.04-.1-.01-.1-.02h-.1-.1-.1-.2-.1-.1zm-16.2 0h-.1-.1l-.1.02-.1.01-.1.02-.1.02-.1.02-.1.03-.27.1-.1.04-.1.03-.16.08-.08.05-.07.04-.08.05-.07.05-.06.05-.07.05-.06.06-.06.05-.05.06-.06.06-.04.06-.05.06-.04.06-.04.07-.03.06-.04.07-.02.06-.03.07-.01.07-.02.07v.07l-.01.08.04 166.74.01.07.03.07.02.07.04.06.03.07.04.06.04.07.05.06.04.06.06.06.05.06.06.05.06.06.07.05.06.05.07.05.08.05.07.04.08.04.08.05.08.04.1.03.1.04.27.1.1.03.1.02.1.02.1.02.1.01.1.02h.1.1l.1.01h.22l.1-.01h.1.1l.1-.02.1-.01.3-.06.1-.03.27-.1.1-.04.1-.03.08-.04.08-.05.08-.04.07-.04.08-.05.07-.05.06-.05.07-.05.06-.06.06-.05.06-.06.1-.12.04-.06.04-.07.04-.06.04-.07.03-.06.02-.07.03-.07.02-.07.03-.2-.1-166.95-.03-.07-.04-.06-.04-.07-.08-.12-.1-.12-.06-.06-.06-.05-.06-.06-.07-.05-.06-.05-.07-.05-.08-.05-.07-.04-.08-.05-.16-.08-.1-.03-.1-.04-.27-.1-.1-.03-.3-.06-.1-.01-.1-.02h-.1-.1-.1-.22-.1zm-19-.01h-.1l-.2.02-.1.02-.1.02-.1.02-.2.04-.36.12-.08.04-.1.03-.08.04-.08.05-.07.04-.08.04-.07.05-.06.05-.07.05-.12.1-.05.06-.06.05-.05.06-.16.24-.03.06-.03.07-.02.06-.02.07v.07.06l-.01.07.03 158.52.02.07.02.06.03.07.03.06.16.24.05.06.06.05.05.06.12.1.07.05.06.05.07.05.08.04.07.04.08.05.08.04.1.03.08.04.36.12.2.04.1.02.1.02.1.02.2.02h.1l.1.01h.2l.1-.01h.1l.1-.01h.1l.4-.08.1-.02.1-.03.27-.1.08-.04.08-.03.1-.04.07-.05.08-.04.07-.04.2-.15.12-.1.05-.06.05-.05.1-.12.08-.12.06-.12.03-.07.02-.06.04-.14.01-.06v-.07l.01-.07-.1-158.65-.06-.12-.08-.12-.1-.12-.05-.05-.05-.06-.12-.1-.2-.15-.07-.04-.08-.04-.07-.05-.1-.04-.08-.03-.08-.04-.27-.1-.1-.03-.1-.02-.4-.08-.1-.01h-.1-.1-.43z" id="Bq"/><path d="M582.68 91.64l.7.05.7.07.7.08.68.1.68.12.66.14.65.15.64.17.63.18.6.2.6.2.6.23.57.24.56.26.54.27.52.28.5.3.48.3.48.32.45.33.43.34.4.36.4.36.38.37.34.4.33.4.3.4.28.4.25.42.24.42.2.44.18.44.16.45.13.45.1.46.07.46.04.47.02.48-.06 170.65-.07.46-.1.46-.13.45-.16.44-.18.44-.2.43-.23.42-.26.4-.28.4-.3.4-.33.38-.35.38-.37.37-.4.35-.4.35-.44.34-.45.32-.47.32-.5.3-.5.3-.52.28-.54.27-.56.25-.57.24-.58.23-.6.22-.62.2-.63.18-.64.18-.65.15-.66.15-.67.12-.68.12-.7.1-.7.08-.7.06-.72.05-.72.03-62.84 1.72-.7-.01-.7-.04-.68-.05-.66-.07-.65-.1-.64-.1-.62-.13-.6-.15-.6-.17-.58-.18-.57-.2-.54-.22-.54-.23-.52-.25-.5-.26-.5-.28-.47-.3-.47-.3-.45-.32-.43-.33-.42-.34-.4-.35-.4-.36-.38-.37-.36-.38-.35-.4-.33-.4-.33-.4-.3-.4-.3-.42-.28-.43-.26-.44-.25-.44-.24-.44-.22-.45-.2-.45-.2-.46-.17-.46-.17-.47L441.6 97.3l-.18-.38-.2-.37-.2-.35-.18-.34-.2-.32-.17-.3-.18-.3-.16-.27-.16-.26-.14-.24-.14-.23-.1-.22-.1-.2-.08-.2-.07-.18-.04-.16-.03-.16v-.15l.03-.13.05-.12.08-.1.1-.1.15-.1.17-.1.22-.07.24-.07.3-.06.33-.05.36-.04.4-.04.46-.03.5-.02.55-.02.6-.02 138.84.03zm-129.06 30.73H578.4v-25.2H453.62v25.2z" id="Br"/><path d="M574.28 105.5v14.25H457.75V105.5h116.53" id="Bs"/><path d="M574.28 99.48v4.06H457.75v-4.06h116.53" id="Bt"/><path d="M218.8 30.56l-5.3 16.34h205.2l-5.33-16.34H218.8" id="Bu"/><path d="M124.17 309.38H508l12.07 24 .24 10.9.13 2.07-2.95-3.5c-2.94-3.47-6.77-6-16.62-6.04l-184.78-.9-184.8.9c-9.85.05-13.68 2.57-16.62 6.04l-2.97 3.5.16-2.07.22-10.9 12.1-24" id="Bv"/><path d="M134.36 350.3v15.48c0 2.23 2.82 4.05 6.3 4.05h159.1c3.46 0 6.3-1.82 6.3-4.05V350.3c0-2.23-2.84-4.05-6.3-4.05h-159.1c-3.47 0-6.3 1.82-6.3 4.05" id="Bw"/><path d="M117.26 383.95L105 508.2c0 .02 6.47.2 6.56.35l10.7-114.8c.6-6.43 8.06-11.7 17.9-11.7h351.8c9.85 0 17.3 5.28 17.9 11.7l10.7 114.8c.08-.14 6.55-.33 6.55-.35L514.9 383.95c-.64-6.43-8.06-11.7-17.9-11.7h-361.8c-9.84 0-17.28 5.28-17.9 11.7" id="Bx"/><path d="M47.62 40.56v48.6h146.2l17.27-48.88-163.48.3" id="By"/><path d="M51.4 310.37c0 11.6 14.4 21 32.13 21 17.75 0 32.14-9.4 32.14-21 0-11.6-14.4-21-32.14-21-17.73 0-32.13 9.4-32.13 21" id="Bz"/><path d="M118.17 306.86l-.25-.88-.3-.88-.36-.86-.4-.85-.46-.83-.5-.82-.55-.8-.6-.78-.64-.77-.68-.75-.73-.73-.77-.7-.8-.7-.85-.67-.9-.64-.92-.63-.96-.6-1-.57-1.03-.56-1.05-.52-1.1-.5-1.12-.47-1.15-.45-1.18-.4-1.2-.4-1.23-.36-1.26-.33-1.28-.3-1.3-.26-1.32-.24-1.34-.2-1.36-.17-1.38-.12-1.4-.1-1.4-.05-1.43-.02-.9.01-.88.02-.88.04-.87.05-.87.06-.86.08-.85.1-.85.1-.84.12-.83.13-.82.15-.8.16-.8.17-.8.18-.78.2-.78.2-.77.22-.76.23-.75.24-.74.25-.73.27-.72.27-.7.3-.7.3-.68.3-.67.32-.66.33-.65.34-.64.34-.62.36-.6.37-.6.37-.58.4-.57.4-.55.4-.54.4-.52.42-7.1-10.28 66.12 2.63 10.93-3.38-8.37 22.24-.2-.9z" id="CA"/><path d="M60.56 530.27H44.6l-10.3-7.97-.92-182.34 7.5-4.3 66.55-1.84-17.46 175.72-29.4 20.72zM48.42 343.9h-.1-.1l-.1.02-.1.01-.1.02-.1.02-.1.03-.1.02-.18.06-.1.04-.1.03-.08.04-.1.04-.08.05-.07.04-.08.05-.2.15-.06.05-.07.06-.05.06-.06.06-.15.18-.08.14-.03.06-.06.14-.04.14-.02.08-.01.07v.08.07l.04 172.37.04.14.1.2.04.06.04.07.15.18.06.06.05.06.07.06.06.05.07.05.07.06.07.04.08.05.07.05.08.04.1.04.08.04.1.03.1.04.18.06.1.03.1.02.1.02.1.02.1.02h.2l.1.01h.43l.1-.01h.1.1l.4-.08.1-.03.1-.03.1-.03.1-.04.1-.03.16-.08.1-.04.07-.05.08-.05.07-.04.07-.06.07-.05.06-.05.07-.06.06-.06.2-.24.04-.07.04-.06.1-.2.04-.14.02-.08.01-.07v-.07l.01-.08-.1-172.58-.03-.07-.03-.06-.08-.14-.2-.24-.06-.06-.07-.06-.06-.05-.2-.15-.08-.05-.07-.04-.1-.05-.16-.08-.1-.03-.1-.04-.1-.03-.1-.03-.1-.02-.1-.03-.2-.04-.1-.01-.1-.02h-.1-.1-.1-.2-.1zm16.3 0h-.1-.1l-.1.02-.1.01-.1.02-.1.02-.1.02-.1.03-.27.1-.1.04-.1.03-.16.08-.08.05-.07.04-.08.05-.07.05-.06.05-.07.05-.06.06-.06.05-.2.24-.04.06-.04.07-.03.06-.03.07-.03.06-.06.2v.07.08.07l.04 166.67.04.14.03.07.03.06.03.07.04.06.04.07.2.24.06.05.06.06.07.05.06.05.07.05.08.05.07.04.08.04.08.05.08.04.1.03.1.04.27.1.1.03.1.02.1.02.1.02.1.01.1.02h.1.1l.1.01h.22l.1-.01h.1.1l.1-.02.1-.01.3-.06.1-.03.1-.03.18-.06.08-.04.1-.03.08-.04.08-.05.16-.08.2-.15.06-.05.07-.06.1-.1.15-.18.04-.07.04-.06.03-.07.03-.06.03-.07.06-.2.01-.07v-.07l.01-.07-.1-166.88-.03-.07-.03-.06-.04-.07-.04-.06-.15-.18-.1-.1-.07-.06-.06-.05-.2-.15-.08-.04-.08-.05-.16-.08-.1-.03-.08-.04-.18-.06-.1-.03-.1-.03-.3-.06-.1-.01-.1-.02h-.1-.1-.1-.22-.1zm19-.01h-.1-.1l-.1.01-.4.08-.1.02-.1.03-.1.03-.1.03-.08.03-.1.04-.08.03-.08.04-.08.05-.08.04-.07.04-.14.1-.18.15-.1.1-.05.06-.04.06-.05.06-.04.06-.06.12-.03.07-.02.06-.04.14v.06.07l-.01.07.04 158.45.02.07.02.06.03.07.06.12.04.06.05.06.04.06.05.06.1.1.18.15.14.1.07.04.08.04.08.05.08.04.08.03.1.04.08.03.1.03.1.03.1.03.1.02.4.08h.1l.1.01h.1l.1.01h.22l.1-.01h.1l.1-.01h.1l.1-.02.2-.04.1-.02.1-.02.36-.12.1-.04.08-.03.08-.04.08-.05.07-.04.08-.04.07-.05.06-.05.07-.05.12-.1.05-.06.06-.05.04-.06.05-.06.08-.12.06-.12.03-.07.02-.06.04-.14.01-.06.01-.07-.1-158.72-.06-.12-.08-.12-.05-.06-.04-.06-.06-.05-.05-.06-.12-.1-.07-.05-.06-.05-.07-.05-.08-.04-.07-.04-.08-.05-.08-.04-.08-.03-.1-.04-.36-.12-.1-.02-.1-.02-.2-.04-.1-.02-.1-.01h-.1-.1-.43z" id="CB"/><path d="M188.3 91.6l.6.02.55.02.5.02.45.03.4.04.37.04.33.05.28.06.25.07.2.07.18.1.14.1.1.1.08.1.05.12.03.13v.15l-.02.16-.05.16-.06.18-.1.2-.1.2-.12.22-.13.23-.14.24-.16.26-.16.27-.18.3-.17.3-.2.32-.18.34-.2.35-.2.37-.18.38-.18.4-.18.42-.17.44-.16.45-59.9 177.4-.22.45-.24.44-.25.44-.26.44-.28.43-.3.42-.3.4-.33.4-.33.4-.35.4-.36.38-.38.37-.4.36-.4.35-.42.34-.43.33-.45.32-.46.3-.48.3-.5.28-.5.26-.52.25-.53.23-.55.22-.56.2-.58.18-.6.17-.6.15-.62.13-.63.1-.65.1-.66.07-.68.05-.7.04-.7.01-.72-.01-62.84-1.74-.7-.05-.7-.06-.7-.08-.7-.1-.68-.12-.67-.12-.67-.15-.65-.15-.64-.18-.63-.18-.6-.2-.6-.22-.6-.23-.57-.24-.56-.25-.54-.27-.52-.28-.5-.3-.5-.3-.47-.32-.45-.32-.44-.34-.4-.35-.4-.35-.37-.37-.35-.38-.33-.38-.3-.4-.28-.4-.25-.4-.24-.42-.2-.43-.18-.44-.15-.44-.13-.45-.1-.46-.07-.46-.05-.46-.01-.48.01-170.2.05-.47.07-.46.1-.46.13-.45.15-.45.18-.44.2-.44.23-.42.26-.42.28-.4.3-.4.33-.4.34-.4.38-.37.4-.36.4-.36.44-.34.45-.33.47-.32.5-.3.5-.3.52-.28.54-.27.56-.26.57-.24.6-.23.6-.2.6-.2.63-.18.64-.17.65-.15.66-.14.68-.12.68-.1.7-.08.7-.07.7-.05.7-.02.73-.01h137.4zM53.75 122.37h124.78v-25.2H53.75v25.2z" id="CC"/><path d="M57.86 105.5v14.25H174.4V105.5H57.86" id="CD"/><path d="M57.86 99.48v4.06H174.4v-4.06H57.86" id="CE"/><path d="M522.28 355.7l-4.5 32.58 7.97 75.1h7.7l-11.17-107.7" id="CF"/><path d="M109.86 355.7l4.5 32.58-7.96 75.1h-7.7l11.17-107.7" id="CG"/><path d="M557.08 670.28l2.4-.38-22.17-159.06 60.4 40.85.01 2.3c-11.38 1.2-18.3 3.94-20.8 8 2.3 89.83 0 140.52-6.9 153.58-40.7-19.58-125.93-26.1-253.4-21.1-66.04 2-86-14.05-66.47-46.22 43.13-51.6 66.17-97.03 69.1-136.27l214.45-.83 23.36 159.1" id="CH"/><path d="M506.35 396.2l12.52 111.5c.02.07-20.46.12-30.16.15l-169.22.44c.15-3.54.14-7.03-.05-10.46-2.98-19-2.98-52.6 1.12-100.8.78-3.55 1.16-7.62.96-12.32h167.2c9.7 0 16.93 5.2 17.64 11.5" id="CI"/><path d="M520.47 352.38l-3.56 29.02c0-6.44-8.06-11.7-17.9-11.7h-2.6c2.96-.5 5.16-2.28 5.16-4.37v-17.24c0-2.48-3.12-4.5-6.92-4.5H328.22c-3.8 0-6.9 2.03-6.9 4.5v17.24c0 2.1 2.2 3.86 5.15 4.37h-7.22c-2.85-4.26-3.78-14.07-3.16-29.54h185.7c10.28 0 19.52 5.52 18.7 12.23" id="CJ"/><path d="M318.44 309.33l189.55.05 12.07 24 .24 10.9.13 2.07-2.95-3.5c-2.94-3.47-6.77-6-16.62-6.04l-184.6-.9c.42-7.63 1.15-16.48 2.18-26.55" id="CK"/><path d="M420.14 49.05l86.8 257.54-188.17-.5.16-1.56-9.04-255.48h110.24" id="CL"/><path d="M115.15 408.16l.12.1.13.1.14.08.4.27.14.1.13.1.14.1.13.1.28.18.13.1.28.18.14.08.14.1.15.1.28.18.15.1.14.1.3.18.14.08.75.45.16.1.15.1.15.08.32.18.15.1.32.18-9.1 97-.07-.01-.08-.01h-.1l-.12-.01-.14-.01-.15-.01-.17-.01-.18-.01-.2-.01-.2-.01-.2-.01h-.22l-.46-.02-1.93-.08h-.23l-.23-.01-.42-.02-.2-.01h-.2l-.18-.01-.16-.01h-.15l-.13-.01h-.12l-.1-.01H105 105l9.9-100.22.26.18z" id="CM"/><path d="M598.9 103.16v138.76c-5.5-3.47-11.93-10.8-19.18-21.8 0-9.58-16-13.07-43.98-10.45-29.64 1.08-46.64-7.84-50.96-25.48l-23.8-61.8H578.4v-25.2H453.62v6.46l-4.75-12h132.37c9.72 0 17.66 5.2 17.66 11.55" id="CN"/><path d="M176.22 91.6H50.9c-4.42 0-8.46 1.07-11.57 2.84 2.32 12.78 3.34 30.98 2.95 54.88-.42 24.1 8.75 40.52 27.5 48.37 26.2 7.13 41.92 2.86 46.5-12.84-.42-13.7 7.87-23.4 23.6-27.83 18.42-9.07 30.13-20.63 35.14-34.66H53.75v-25.2H177.2a72.1 72.1 0 0 0-.99-5.55" id="CO"/></defs><use xlink:href="#A" class="G"/><use xlink:href="#A" class="B C D"/><use xlink:href="#B" class="E"/><use xlink:href="#B" class="B C D"/><use xlink:href="#C" class="G"/><use xlink:href="#C" class="B C D"/><use xlink:href="#D" class="G"/><use xlink:href="#D" class="B C D"/><use xlink:href="#E" class="G"/><use xlink:href="#E" class="B C D"/><use xlink:href="#F" class="G"/><use xlink:href="#F" class="B C D"/><use xlink:href="#G" class="I"/><use xlink:href="#G" class="B C D"/><use xlink:href="#H" class="G"/><use xlink:href="#H" class="B C D"/><use xlink:href="#I" class="G"/><use xlink:href="#I" class="B C D"/><use xlink:href="#J" class="H"/><use xlink:href="#J" class="B C D"/><use xlink:href="#K" class="H"/><use xlink:href="#K" class="B C D"/><use xlink:href="#L" class="H"/><use xlink:href="#L" class="B C D"/><use xlink:href="#M" class="H"/><use xlink:href="#M" class="B C D"/><use xlink:href="#N" class="H"/><use xlink:href="#N" class="B C D"/><use xlink:href="#O" class="G"/><use xlink:href="#O" class="B C D"/><use xlink:href="#P" class="G"/><use xlink:href="#P" class="B C D"/><use xlink:href="#Q" class="I"/><use xlink:href="#Q" class="B C D"/><use xlink:href="#R" class="I"/><use xlink:href="#R" class="B C D"/><use xlink:href="#S" class="I"/><use xlink:href="#S" class="B C D"/><use xlink:href="#T" class="I"/><use xlink:href="#T" class="B C D"/><use xlink:href="#U" class="E"/><use xlink:href="#U" class="B C D"/><use xlink:href="#V" class="E"/><use xlink:href="#V" class="B C D"/><use xlink:href="#W" class="E"/><use xlink:href="#W" class="B C D"/><use xlink:href="#X" class="E"/><use xlink:href="#X" class="B C D"/><use xlink:href="#Y" class="E"/><use xlink:href="#Y" class="B C D"/><use xlink:href="#Z" class="E"/><use xlink:href="#Z" class="B C D"/><use xlink:href="#a" class="E"/><use xlink:href="#a" class="B C D"/><use xlink:href="#b" class="E"/><use xlink:href="#b" class="B C D"/><use xlink:href="#c" class="E"/><use xlink:href="#c" class="B C D"/><use xlink:href="#d" class="E"/><use xlink:href="#d" class="B C D"/><use xlink:href="#e" class="E"/><use xlink:href="#e" class="B C D"/><use xlink:href="#f" class="E"/><use xlink:href="#f" class="B C D"/><use xlink:href="#g" class="E"/><use xlink:href="#g" class="B C D"/><use xlink:href="#h" class="E"/><use xlink:href="#h" class="B C D"/><use xlink:href="#i" class="E"/><use xlink:href="#i" class="B C D"/><use xlink:href="#j" class="I"/><use xlink:href="#j" class="B C D"/><use xlink:href="#k" class="I"/><use xlink:href="#k" class="B C D"/><use xlink:href="#l" class="E"/><use xlink:href="#l" class="B C D"/><use xlink:href="#m" class="E"/><use xlink:href="#m" class="B C D"/><use xlink:href="#n" class="E"/><use xlink:href="#n" class="B C D"/><use xlink:href="#o" class="E"/><use xlink:href="#o" class="B C D"/><use xlink:href="#p" class="E"/><use xlink:href="#p" class="B C D"/><use xlink:href="#q" class="E"/><use xlink:href="#q" class="B C D"/><use xlink:href="#r" class="E"/><use xlink:href="#r" class="B C D"/><use xlink:href="#s" class="E"/><use xlink:href="#s" class="B C D"/><use xlink:href="#t" class="E"/><use xlink:href="#t" class="B C D"/><use xlink:href="#u" class="E"/><use xlink:href="#u" class="B C D"/><use xlink:href="#v" class="E"/><use xlink:href="#v" class="B C D"/><use xlink:href="#w" class="E"/><use xlink:href="#w" class="B C D"/><use xlink:href="#x" class="E"/><use xlink:href="#x" class="B C D"/><use xlink:href="#y" class="I"/><use xlink:href="#y" class="B C D"/><use xlink:href="#z" class="E"/><use xlink:href="#z" class="B C D"/><use xlink:href="#AA" class="E"/><use xlink:href="#AA" class="B C D"/><use xlink:href="#AB" class="E"/><use xlink:href="#AB" class="B C D"/><use xlink:href="#AC" class="E"/><use xlink:href="#AC" class="B C D"/><use xlink:href="#AD" class="I"/><use xlink:href="#AD" class="B C D"/><use xlink:href="#AE" class="I"/><use xlink:href="#AE" class="B C D"/><use xlink:href="#AF" class="I"/><use xlink:href="#AF" class="B C D"/><use xlink:href="#AG" class="E"/><use xlink:href="#AG" class="B C D"/><use xlink:href="#AH" class="E"/><use xlink:href="#AH" class="B C D"/><use xlink:href="#AI" class="E"/><use xlink:href="#AI" class="B C D"/><use xlink:href="#AJ" class="G"/><use xlink:href="#AJ" class="B C D"/><use xlink:href="#AK" class="G"/><use xlink:href="#AK" class="B C D"/><use xlink:href="#AL" class="G"/><use xlink:href="#AL" class="B C D"/><use xlink:href="#AM" class="F"/><use xlink:href="#AM" class="B C D"/><use xlink:href="#AN" class="F"/><use xlink:href="#AN" class="B C D"/><use xlink:href="#AO" class="H"/><use xlink:href="#AO" class="B C D"/><use xlink:href="#AP" class="F"/><use xlink:href="#AP" class="B C D"/><use xlink:href="#AQ" class="F"/><use xlink:href="#AQ" class="B C D"/><use xlink:href="#AR" class="F"/><use xlink:href="#AR" class="B C D"/><use xlink:href="#AS" class="F"/><use xlink:href="#AS" class="B C D"/><use xlink:href="#AT" class="F"/><use xlink:href="#AT" class="B C D"/><use xlink:href="#AU" class="F"/><use xlink:href="#AU" class="B C D"/><use xlink:href="#AV" class="F"/><use xlink:href="#AV" class="B C D"/><use xlink:href="#AW" class="H"/><use xlink:href="#AW" class="B C D"/><use xlink:href="#AX" class="H"/><use xlink:href="#AX" class="B C D"/><use xlink:href="#AY" class="K"/><use xlink:href="#AY" class="B C D"/><use xlink:href="#AZ" class="G"/><use xlink:href="#AZ" class="B C D"/><use xlink:href="#Aa" class="K"/><use xlink:href="#Aa" class="B C D"/><use xlink:href="#Ab" class="G"/><use xlink:href="#Ab" class="B C D"/><use xlink:href="#Ac" class="F"/><use xlink:href="#Ac" class="B C D"/><use xlink:href="#Ad" class="F"/><use xlink:href="#Ad" class="B C D"/><use xlink:href="#Ae" class="E"/><use xlink:href="#Ae" class="B C D"/><use xlink:href="#Af" class="F"/><use xlink:href="#Af" class="B C D"/><use xlink:href="#Ag" class="F"/><use xlink:href="#Ag" class="B C D"/><use xlink:href="#Ah" class="F"/><use xlink:href="#Ah" class="B C D"/><use xlink:href="#Ai" class="F"/><use xlink:href="#Ai" class="B C D"/><use xlink:href="#Aj" class="F"/><use xlink:href="#Aj" class="B C D"/><use xlink:href="#Ak" class="F"/><use xlink:href="#Ak" class="B C D"/><use xlink:href="#Al" class="F"/><use xlink:href="#Al" class="B C D"/><use xlink:href="#Am" class="E"/><use xlink:href="#Am" class="B C D"/><use xlink:href="#An" class="E"/><use xlink:href="#An" class="B C D"/><use xlink:href="#Ao" class="K"/><use xlink:href="#Ao" class="B C D"/><use xlink:href="#Ap" class="G"/><use xlink:href="#Ap" class="B C D"/><use xlink:href="#Aq" class="K"/><use xlink:href="#Aq" class="B C D"/><use xlink:href="#Ar" class="E"/><use xlink:href="#Ar" class="B C D"/><use xlink:href="#As" class="G"/><use xlink:href="#As" class="B C D"/><use xlink:href="#At" class="N"/><use xlink:href="#At" class="B C D"/><use xlink:href="#Au" class="J"/><use xlink:href="#Au" class="B C D"/><use xlink:href="#Av" class="G"/><use xlink:href="#Av" class="B C D"/><use xlink:href="#Aw" class="N"/><use xlink:href="#Aw" class="B C D"/><use xlink:href="#Ax" class="J"/><use xlink:href="#Ax" class="B C D"/><use xlink:href="#Ay" class="G"/><use xlink:href="#Ay" class="B C D"/><use xlink:href="#Az" class="G"/><use xlink:href="#Az" class="B C D"/><use xlink:href="#BA" class="G"/><use xlink:href="#BA" class="B C D"/><use xlink:href="#BB" class="F"/><use xlink:href="#BB" class="B C D"/><use xlink:href="#BC" class="F"/><use xlink:href="#BC" class="B C D"/><use xlink:href="#BD" class="H"/><use xlink:href="#BD" class="B C D"/><use xlink:href="#BE" class="F"/><use xlink:href="#BE" class="B C D"/><use xlink:href="#BF" class="F"/><use xlink:href="#BF" class="B C D"/><use xlink:href="#BG" class="F"/><use xlink:href="#BG" class="B C D"/><use xlink:href="#BH" class="F"/><use xlink:href="#BH" class="B C D"/><use xlink:href="#BI" class="F"/><use xlink:href="#BI" class="B C D"/><use xlink:href="#BJ" class="F"/><use xlink:href="#BJ" class="B C D"/><use xlink:href="#BK" class="F"/><use xlink:href="#BK" class="B C D"/><use xlink:href="#BL" class="H"/><use xlink:href="#BL" class="B C D"/><use xlink:href="#BM" class="H"/><use xlink:href="#BM" class="B C D"/><use xlink:href="#BN" class="K"/><use xlink:href="#BN" class="B C D"/><use xlink:href="#BO" class="G"/><use xlink:href="#BO" class="B C D"/><use xlink:href="#BP" class="K"/><use xlink:href="#BP" class="B C D"/><use xlink:href="#BQ" class="G"/><use xlink:href="#BQ" class="B C D"/><use xlink:href="#BR" class="F"/><use xlink:href="#BR" class="B C D"/><use xlink:href="#BS" class="F"/><use xlink:href="#BS" class="B C D"/><use xlink:href="#BT" class="E"/><use xlink:href="#BT" class="B C D"/><use xlink:href="#BU" class="F"/><use xlink:href="#BU" class="B C D"/><use xlink:href="#BV" class="F"/><use xlink:href="#BV" class="B C D"/><use xlink:href="#BW" class="F"/><use xlink:href="#BW" class="B C D"/><use xlink:href="#BX" class="F"/><use xlink:href="#BX" class="B C D"/><use xlink:href="#BY" class="F"/><use xlink:href="#BY" class="B C D"/><use xlink:href="#BZ" class="F"/><use xlink:href="#BZ" class="B C D"/><use xlink:href="#Ba" class="F"/><use xlink:href="#Ba" class="B C D"/><use xlink:href="#Bb" class="E"/><use xlink:href="#Bb" class="B C D"/><use xlink:href="#Bc" class="E"/><use xlink:href="#Bc" class="B C D"/><use xlink:href="#Bd" class="K"/><use xlink:href="#Bd" class="B C D"/><use xlink:href="#Be" class="G"/><use xlink:href="#Be" class="B C D"/><use xlink:href="#Bf" class="K"/><use xlink:href="#Bf" class="B C D"/><use xlink:href="#Bg" class="G"/><use xlink:href="#Bg" class="B C D"/><use xlink:href="#Bh" class="M"/><use xlink:href="#Bh" class="B C D"/><use xlink:href="#Bi" class="J"/><use xlink:href="#Bi" class="B C D"/><use xlink:href="#Bj" class="H"/><use xlink:href="#Bj" class="B C D"/><use xlink:href="#Bk" class="J"/><use xlink:href="#Bk" class="B C D"/><use xlink:href="#Bl" class="J"/><use xlink:href="#Bl" class="B C D"/><use xlink:href="#Bm" class="J"/><use xlink:href="#Bm" class="B C D"/><use xlink:href="#Bn" class="J"/><use xlink:href="#Bn" class="B C D"/><use xlink:href="#Bo" class="M"/><use xlink:href="#Bo" class="B C D"/><use xlink:href="#Bp" class="I"/><use xlink:href="#Bp" class="B C D"/><use xlink:href="#Bq" class="N"/><use xlink:href="#Bq" class="B C D"/><use xlink:href="#Br" class="J"/><use xlink:href="#Br" class="B C D"/><use xlink:href="#Bs" class="K"/><use xlink:href="#Bs" class="B C D"/><use xlink:href="#Bt" class="M"/><use xlink:href="#Bt" class="B C D"/><use xlink:href="#Bu" class="M"/><use xlink:href="#Bu" class="B C D"/><use xlink:href="#Bv" class="J"/><use xlink:href="#Bv" class="B C D"/><use xlink:href="#Bw" class="H"/><use xlink:href="#Bw" class="B C D"/><use xlink:href="#Bx" class="J"/><use xlink:href="#Bx" class="B C D"/><use xlink:href="#By" class="J"/><use xlink:href="#By" class="B C D"/><use xlink:href="#Bz" class="M"/><use xlink:href="#Bz" class="B C D"/><use xlink:href="#CA" class="I"/><use xlink:href="#CA" class="B C D"/><use xlink:href="#CB" class="N"/><use xlink:href="#CB" class="B C D"/><use xlink:href="#CC" class="J"/><use xlink:href="#CC" class="B C D"/><use xlink:href="#CD" class="K"/><use xlink:href="#CD" class="B C D"/><use xlink:href="#CE" class="M"/><use xlink:href="#CE" class="B C D"/><use xlink:href="#CF" class="H"/><use xlink:href="#CF" class="B C D"/><use xlink:href="#CG" class="H"/><use xlink:href="#CG" class="B C D"/><use xlink:href="#CH" class="J" href="#Bm"/><use xlink:href="#CH" class="B C D" href="#Bm"/><use xlink:href="#CH" class="L"/><use xlink:href="#CH" class="B C D"/><use xlink:href="#CI" class="L"/><use xlink:href="#CI" class="B C D"/><use xlink:href="#CJ" class="L"/><use xlink:href="#CJ" class="B C D"/><use xlink:href="#CK" class="L"/><use xlink:href="#CK" class="B C D"/><use xlink:href="#CL" class="L"/><use xlink:href="#CL" class="B C D"/><use xlink:href="#CM" class="L"/><use xlink:href="#CM" class="B C D"/><use xlink:href="#CN" class="L"/><use xlink:href="#CN" class="B C D"/><use xlink:href="#CO" class="L"/><use xlink:href="#CO" class="B C D"/></svg>