<?xml version="1.0" encoding="iso-8859-1"?>
<!-- Generator: Adobe Illustrator 19.0.0, SVG Export Plug-In . SVG Version: 6.00 Build 0)  -->
<svg version="1.1" id="Capa_1" xmlns="http://www.w3.org/2000/svg" xmlns:xlink="http://www.w3.org/1999/xlink" x="0px" y="0px"
	 viewBox="0 0 512 512" style="enable-background:new 0 0 512 512;" xml:space="preserve">
<g>
	<g>
		<g>
			<path  style="fill:white;" d="M256,0C114.497,0,0,114.516,0,256c0,141.503,114.517,256,256,256c141.502,0,256-114.517,256-256
				C512,114.497,397.483,0,256,0z M256,472c-119.393,0-216-96.623-216-216c0-119.394,96.623-216,216-216
				c119.394,0,216,96.623,216,216C472,375.392,375.377,472,256,472z"/>
			<path  style="fill:tomato;" d="M330.442,221.499H312.38l28.642-76.378c8.573-22.863-8.361-47.289-32.771-47.289h-77.96
				c-14.507,0-27.676,9.126-32.771,22.711l-48.75,130c-8.574,22.862,8.36,47.289,32.771,47.289h25.952l-25.651,68.957
				c-5.752,15.341-0.541,31.876,12.968,41.147c14.977,10.278,33.875,7.133,44.306-3.911l115.351-122.07
				C377.505,260.258,362.095,221.499,330.442,221.499z M227.928,357.624l27.088-72.819c4.855-13.052-4.813-26.973-18.745-26.973
				h-47.515l45-120h67.28l-36.242,96.645c-4.899,13.061,4.773,27.022,18.727,27.022h35.24L227.928,357.624z"/>
		</g>
	</g>
</g>
</svg>
