<svg xmlns="http://www.w3.org/2000/svg" xmlns:xlink="http://www.w3.org/1999/xlink" preserveAspectRatio="xMidYMid meet" width="640" height="1280"><style><![CDATA[.B{fill-opacity:0}.C{stroke:#000}.D{stroke-opacity:0}.E{fill:#4f4c4c}.F{fill:#231f20}.G{fill:#d3d2d2}.H{fill:#fbc707}.I{fill:#eaf1f3}.J{fill:#bdbcbc}.K{fill:#ed1c24}.L{fill:#656263}.M{fill:#cce86e}.N{fill:#99d420}.O{fill:#e9e9e9}.P{fill:#fff}.Q{fill:#ec3f41}.R{fill:#99def9}]]></style><defs><path d="M-554.82-314.92v-12.55h-4.7v12.55h4.7" id="A"/><path d="M-555.33-327.4v5.54h-3.7v-5.54h3.7" id="B"/><path d="M-530.53-188.47l-9.4 9.36-17.77-.06-9.1-9.26v-5.67l15.1 14.78 5.73.02 15.43-14.76v5.6" id="C"/><path d="M-530.45-208.2v4.6h-36.6v-4.6h36.6" id="D"/><path d="M-569.54-358.52c2.08-1.2 4.5-1.75 7.25-1.68 4.44.27 6.98 1.42 7.47 3.3v30.68c-1.42 1.96-3.8 2.9-7.18 2.93-1.93.07-4.1-.27-6.5-1.1l-1.03-34.12" id="E"/><path d="M-547.26-174.55v10.3h-3.85v-10.3h1.03v-.64h1.83v.64h1" id="F"/><path d="M-530.7-179.37v4.33h-36.07v-4.33h36.07" id="G"/><path d="M-545.53-356.94l1.78 2.47v6.55h-2.12l.68 26.22 14.62.05.1 5.74h-14.3l.33 12.15h2.38v6.4l-1.4 2.82v.76h1.2l.12 1.95h2.27l.1-2.38 3.7-.1v2.6h5.85l-.22 7.13h-5.62l-.08 17.48 5.57-6.45v28.33l-11.6-11.18-1.82-.01v1.05l2.03-.14v6.36l-2.18 2.6-.1 3.24h2.13v2.64l-.5.25v2.2h.6l4.42 4.35 3.66-.1.34.6h3.32l-.17 6.46-3.06.1-.26.6-.08.03-.27.1-.17.07-.17.06-.27.1-.43.16-.26.1-.18.07-.17.06-.27.1-.17.07-.17.06-.18.07-.1.03-.17.06-.1.03-.08.04-.27.1-.2.55-.24.52-.28.5-.32.46-.36.42-.4.4-.42.37-.46.34-.48.32-.52.28-.53.25-.55.23-.58.2-.6.18-.6.14-.62.12-.63.1-.64.07-.64.04-.65.02-.66-.01-.65-.03-.65-.05-.64-.08-.64-.1-.63-.13-.62-.14-.6-.17-.6-.2-.57-.2-.56-.24-.53-.25-.5-.28-.48-.3-.45-.32-.43-.34-.38-.35-.36-.38-.32-.4-.27-.4v-1.28l-.07-.04-.08-.06-.1-.06-.06-.05-.06-.04-.07-.05-.04-.03-.1-.06-.04-.03-.06-.04-.07-.04-.02-.02-.02-.01-.02-.02-.02-.01-.04-.03v1.53h-.08l-.17-.01h-.08l-.16-.01h-.24-.24-.25-.24l-.48-.01-.17-.01h-.24l-.24-.01-.16-.01h-.33l-.16-.01v-.1l-.01-.1v-.17l-.01-.1v-.1l-.01-.1v-.22l-.01-.27-.01-.17v-.06l-.01-.1v-.16l-.01-.1v-.17-.1-.1l-5.45-.08.08-6.64 5.88-.34v-16.86l-5.54 5.28-.12-28.34 11.55 11.72h6.5v-12.8h-2.36v-6.63l-.28.2-.3.2-.3.2-.3.18-.64.34-.34.15-.34.14-.35.13-.35.12-.36.12-.37.1-.37.1-.38.1-.38.07-.4.07-.78.1-.8.06-.4.02-.4.01h-.4l-.8-.02-.4-.03-.4-.03-.8-.1-.8-.12-.78-.16-.76-.2-.38-.1-.37-.1-.37-.13-.36-.13-.35-.14-.08-.05-.05-.03-.1-.08-.05-.03-.12-.1-.23-.16-.2-.14-.05-.04-.08-.05-.05-.04.13-13.15 2.72-1.44 1.85-2.18 1.14-.07v-2.47h-.44l-.23-.33v-1.95l.26-.44h1.55v-3.2l-1.78-2.5v-6.42h2.3v-1.7h4.56v1.75h2.22l-.06 6.4-2 2.16v3.56l1.76.06.3.52-.06 1.46-.35.64v2.46l1.35 1.86 1.4.6.5.37v1.1h.94v-1.16l-.83-1.1-1.25-1.25v-5.92l.26-.45h1.7l-1.65-44.44h-2.24l-.08-6.33 2-2.5v-1.44h5.48v1.28zm-13.26 123.06h1.93l5.6-4.4h.58v-2.15l-.63-.3v-2.77h1.62v-3.03l-1.78-2.56v-6.37l2.25-.05v-1.04l-5.84-.04-3.75 3.7v19zm16.72-50.42h-1.86v1.02l1.8 2.12v6.55h-2.2l.06 12.98 1.7-.05 3.05-3.14v-3.78l.64-.2v-15.43l-.16-.53-3.05.05v.42z" id="H"/><path d="M-544.73-321.73v5.84h-22.44v-5.84h22.44" id="I"/><path d="M-555.4-352.54v21.5h-11.25v-21.5h11.25" id="J"/><path d="M-555.4-330.48v3.62h-11.25v-3.62h11.25" id="K"/><path d="M-555.4-356.7v3.62h-11.25v-3.62h11.25" id="L"/><path d="M-570.07-357.2c.66-1.48 3.68-2.6 7.3-2.6 3.63 0 6.64 1.1 7.3 2.6h-14.6" id="M"/><path d="M-569.93-326.32c.67 1.48 3.68 2.6 7.3 2.6 3.63 0 6.64-1.12 7.3-2.6h-14.6" id="N"/><path d="M-566.58-358.6v183.9h-5.32v-183.9h5.32" id="O"/><path d="M-525.35-358.6v183.9h-5.32v-183.9h5.32" id="P"/><path d="M-525.86-358.17v182.94h-4.36v-182.94h4.36" id="Q"/><path d="M-531-178.96v3.45h-35.35v-3.45H-531" id="R"/><path d="M-542.5-261.27v4.17h-12.82v-4.17h12.82" id="S"/><path d="M-530.76-321.14v4.77h-35.7v-4.77h35.7" id="T"/><path d="M-542.8-293.32v8.55h-7v-8.55h7" id="U"/><path d="M-542.42-280.98v5.9h-1.67v-4.82h-4.88v4.82h-1.67v-5.9l.8-1h.87v.03h4.88v-.03h.63l1.04 1" id="V"/><path d="M-544.47-284.3v1.06l.66.76h-5.9l.77-.87v-.95h4.48" id="W"/><path d="M-544.7-279.17v17.13h-3.7v-17.13h3.7" id="X"/><path d="M-544.7-256.52v5.54h-3.7v-5.54h3.7" id="Y"/><path d="M-542.52-249.12v-5.9h-1.66v4.82h-4.9v-4.82h-1.67v5.9l.8 1h.87v-.04h4.9v.04h.62l1.04-1" id="Z"/><path d="M-544.56-245.8v-1.06l.65-.76h-5.9l.77.87v.95h4.5" id="a"/><path d="M-544.6-245.16v1.68h-4.46v-1.68h4.46" id="b"/><path d="M-542.6-242.92v1.9h-8.13v-1.9h8.13" id="c"/><path d="M-537.9-224.72c-.3 2.65-4.48 4.76-9.6 4.76s-9.3-2.1-9.58-4.76h19.17" id="d"/><path d="M-531-233.03v5.68h-2.75v-5.68h2.75" id="e"/><path d="M-534.36-233.47v7l-3.44 1.04-19.06.08-1.5-1.12v-7h1.7l5.5-4.27 8.7-.04 4.72 4.3h3.38" id="f"/><path d="M-558.86-230.58v5.84h-2.44v-5.84h2.44" id="g"/><path d="M-559.23-252.24v21h-1.5v-19.63l1.5-1.37" id="h"/><path d="M-561.6-232.95v6h-5.24v-6h5.24" id="i"/><path d="M-567.07-358.17v182.94h-4.36v-182.94h4.36" id="j"/><path d="M-566.52-272.47v26.4l10.8-10.5v-4.93l-10.8-10.96" id="k"/><path d="M-550.7-297.28v-5.9h1.67v4.82h4.9v-4.82h1.67v5.9l-.8 1h-.87v-.04h-4.9v.04h-.62l-1.05-1" id="l"/><path d="M-548.48-293.95V-295l-.66-.76h5.9l-.77.87v.95h-4.48" id="m"/><path d="M-552.56-354.38v5.9h1.67v-4.82h4.88v4.82h1.67v-5.9l-.8-1h-.88v.04h-4.88v-.04h-.63l-1.04 1" id="n"/><path d="M-550.5-357.7v1.07l-.66.76h5.9l-.76-.87v-.96h-4.5" id="o"/><path d="M-550.4-284.83l-16.12.06v-8.94l2.55-1.37 1.9-2.08 8.7-.04 1.36 1.76 1.62.83v9.78" id="p"/><path d="M-549.72-284.1c-.3 2.66-4.47 4.76-9.58 4.76-2.84 0-5.4-.65-7.14-1.68v-3.08h16.72" id="q"/><path d="M-543-240.52v2.32h-7.18v-2.32h7.18" id="r"/><path d="M-555.33-316.03v5.54h-3.7v-5.54h3.7" id="s"/><path d="M-553.15-308.62v-5.9h-1.67v4.8h-4.88v-4.8h-1.67v5.9l.8 1h.88v-.04h4.88v.04h.63l1.04-1" id="t"/><path d="M-555.2-305.3v-1.06l.66-.76h-5.9l.77.87v.95h4.48" id="u"/><path d="M-555.23-304.66v1.67h-4.47v-1.67h4.47" id="v"/><path d="M-553.24-302.43v1.9h-8.13v-1.9h8.13" id="w"/><path d="M-553.63-300.03v2.32h-7.18v-2.32h7.18" id="x"/><path d="M-531.06-272.7v26.4l-10.8-10.5v-4.93l2.54-2.6v.26l3.1-.2v-2.44l5.17-5.98" id="y"/><path d="M-539.92-291.32v4.3h.96v1.87h-1.3v-.06h-1.87v-6.12h2.2" id="z"/><path d="M-530.87-291.22v6h-5.22v-6h5.22" id="AA"/><path d="M-547.68-174.26v4.5h-2.95v-4.5h2.95" id="AB"/><path d="M-547.68-169.06v4.5h-2.95v-4.5h2.95" id="AC"/><path d="M-530.93-188.64v-4.65l-14.28 13.73h5.2l9.08-9.08" id="AD"/><path d="M-566.64-188.64v-4.65l14.3 13.73h-5.2l-9.08-9.08" id="AE"/><path d="M-531-207.6v3.45h-35.73v-3.45H-531" id="AF"/><path d="M-536.62-293.8v6.14h-2.7v-6.14h2.7" id="AG"/><path d="M-536.7-286.78v17.86h-1.76v-17.86h1.76" id="AH"/><path d="M-536.7-268.05v3.5h-2.15v-3.5h2.15" id="AI"/><path d="M-525.2-263.03h1.3l.15-2.13h7.22l.3 2.97h2.58v5.77h-2.43l-.3 2.9-.6.23v1.9l-1.3.08v6.7l1.06.07v2.6h-1v3.95h.9v2.2h-.98v4.4h1.06l.46-1.3.07-7.37h1.14l-.02 21.22h-1.07v-7.62l-.6-1.16-.33-.04-.1 3.4h-4.03l-.07-3.8h-.53l-.04 1.67h-4v-7.22h3.8l.15 1.52h.5l-.03-3.57-1.3-.08v-2.2l1.22-.08v-4.03h-1.22v-2.58h1.14v-6.62l-.83-.15v-2.05h-.84v-1.67h-2.28v-7.76l.84-.15" id="AJ"/><path d="M-525.2-255.53h1.3l.15 2.13h7.22l.3-2.96h2.58v-5.78h-2.43l-.3-2.9-.6-.23v-1.9l-1.3-.07v-6.7l1.06-.08v-2.58h-1v-3.96h.9v-2.2h-.98v-4.4h1.06l.46 1.3.07 7.38h1.14l-.02-21.23h-1.07v7.62l-.6 1.16-.33.04-.1-3.4h-4.03l-.07 3.8h-.53l-.04-1.68h-4v7.23h3.8l.15-1.52h.5l-.03 3.57-1.3.07v2.2l1.22.07v4.03h-1.22v2.6h1.14v6.6l-.83.15v2.06h-.84v1.67h-2.28v7.75l.84.15" id="AK"/><path d="M-515.62-252.05v43.8a3.59 3.59 0 0 0 3.58 3.58h5.84a3.59 3.59 0 0 0 3.58-3.58v-43.8a3.59 3.59 0 0 0-3.58-3.58h-5.84a3.59 3.59 0 0 0-3.58 3.58" id="AL"/><path d="M-524.4-233.24v6.3h1.64v-6.3h-1.64" id="AM"/><path d="M-521.95-230.84v2h4.57v-2h-4.57" id="AN"/><path d="M-523.33-264.8v10.75h6.47v-10.75h-6.47" id="AO"/><path d="M-522.45-253.16v1.32h5v-1.32h-5" id="AP"/><path d="M-521.4-251.28v6.66h2.5v-6.66h-2.5" id="AQ"/><path d="M-522.62-244v1.32h5V-244h-5" id="AR"/><path d="M-522.62-237.6v1.32h5v-1.32h-5" id="AS"/><path d="M-521.3-241.93v3.9h2.5v-3.9h-2.5" id="AT"/><path d="M-521.3-235.7v3.9h2.5v-3.9h-2.5" id="AU"/><path d="M-521.3-228.1v3.16h3.26v-3.16h-3.26" id="AV"/><path d="M-516.28-261.66v4.7h2.17v-4.7h-2.17" id="AW"/><path d="M-525.04-262.6v6.78h1.13v-6.78h-1.13" id="AX"/><path d="M-513.18-205.47l-.17-.07-.18-.1-.16-.1-.16-.1-.15-.1-.28-.26-.12-.14-.12-.15-.1-.16-.1-.16-.1-.17-.08-.18-.06-.18-.06-.2-.08-.38-.02-.2v-44.16l.02-.2.08-.38.06-.2.06-.18.08-.18.1-.17.1-.16.1-.16.12-.15.12-.14.28-.26.15-.1.16-.1.16-.1.18-.1.17-.07.18-.07v49.6l-.18-.07z" id="AY"/><path d="M-501.82-251.9v43.8a3.59 3.59 0 0 0 3.57 3.58h5.84a3.6 3.6 0 0 0 3.59-3.58v-43.8a3.6 3.6 0 0 0-3.59-3.58h-5.84a3.59 3.59 0 0 0-3.57 3.58" id="AZ"/><path d="M-499.38-205.3l-.18-.07-.17-.1-.17-.1-.15-.1-.15-.12-.15-.13-.13-.13-.13-.14-.12-.15-.1-.16-.1-.16-.16-.34-.07-.2-.06-.18-.04-.2-.03-.2-.02-.2-.01-.2.01-43.96.02-.2.03-.2.04-.2.06-.2.07-.18.08-.18.08-.16.1-.17.1-.15.12-.15.13-.15.13-.13.3-.24.15-.1.17-.1.17-.08.18-.08.18-.06v49.6l-.18-.07z" id="Aa"/><path d="M-515.62-266.5v-43.8a3.59 3.59 0 0 1 3.58-3.58h5.84a3.59 3.59 0 0 1 3.58 3.58v43.8a3.59 3.59 0 0 1-3.58 3.58h-5.84a3.59 3.59 0 0 1-3.58-3.58" id="Ab"/><path d="M-524.4-285.3v-6.3h1.64v6.3h-1.64" id="Ac"/><path d="M-521.95-287.7v-2h4.57v2h-4.57" id="Ad"/><path d="M-523.33-253.77v-10.74h6.47v10.74h-6.47" id="Ae"/><path d="M-522.45-265.4v-1.33h5v1.33h-5" id="Af"/><path d="M-521.4-267.28v-6.66h2.5v6.66h-2.5" id="Ag"/><path d="M-522.62-274.56v-1.33h5v1.33h-5" id="Ah"/><path d="M-522.62-280.96v-1.33h5v1.33h-5" id="Ai"/><path d="M-521.3-276.62v-3.9h2.5v3.9h-2.5" id="Aj"/><path d="M-521.3-282.85v-3.9h2.5v3.9h-2.5" id="Ak"/><path d="M-521.3-290.45v-3.15h3.26v3.15h-3.26" id="Al"/><path d="M-516.28-256.9v-4.7h2.17v4.7h-2.17" id="Am"/><path d="M-525.04-255.95v-6.78h1.13v6.78h-1.13" id="An"/><path d="M-513.18-263.62l-.17-.08-.18-.1-.16-.1-.16-.1-.15-.12-.14-.12-.14-.14-.12-.14-.12-.15-.1-.15-.1-.17-.1-.17-.08-.17-.06-.18-.06-.2-.04-.2-.04-.2-.02-.2v-44.15l.02-.2.04-.2.04-.2.06-.2.06-.18.08-.17.1-.17.1-.17.1-.15.12-.15.12-.14.14-.14.14-.12.15-.12.16-.1.16-.1.18-.1.17-.08.18-.06v49.6l-.18-.06z" id="Ao"/><path d="M-501.82-266.66v-43.8a3.59 3.59 0 0 1 3.57-3.58h5.84a3.6 3.6 0 0 1 3.59 3.58v43.8a3.6 3.6 0 0 1-3.59 3.58h-5.84a3.59 3.59 0 0 1-3.57-3.58" id="Ap"/><path d="M-499.38-263.8l-.18-.07-.17-.1-.17-.1-.15-.1-.15-.12-.15-.13-.13-.13-.13-.14-.12-.15-.1-.16-.1-.16-.08-.17-.08-.18-.07-.18-.06-.18-.04-.2-.03-.2-.02-.2-.01-.2.01-43.96.02-.2.03-.2.04-.2.06-.2.07-.18.08-.18.08-.16.1-.17.1-.15.12-.15.13-.15.13-.13.15-.13.3-.22.17-.1.17-.08.18-.08.18-.07v49.6l-.18-.07z" id="Aq"/><path d="M-549.35-321.74l-.93-30.06h3.7l.94 30.06h-3.7z" id="Ar"/><path d="M-579.48-181.53v5.12h-20.02v-5.12h-4.2v-3.2h31.9v3.2h-2.1v2.74h-3.74v-2.74h-1.83" id="As"/><path d="M-572.03-184.34v2.5h-31.13v-2.5h31.13" id="At"/><path d="M-579.94-177.77v.92h-18.8v-.92h18.8" id="Au"/><path d="M-518.1-181.53v5.12h20.02v-5.12h4.2v-3.2h-31.9v3.2h2.1v2.74h3.74v-2.74h1.83" id="Av"/><path d="M-525.56-184.34v2.5h31.13v-2.5h-31.13" id="Aw"/><path d="M-517.65-177.77v.92h18.8v-.92h-18.8" id="Ax"/><path d="M-571.8-263.03h-1.3l-.16-2.13h-7.22l-.3 2.97h-2.6v5.77h2.43l.3 2.9.6.23v1.9l1.3.08v6.7l-1.07.07v2.6h1v3.95h-.9v2.2h1v4.4h-1.07l-.45-1.3-.08-7.37h-1.14l.02 21.22h1.07v-7.62l.6-1.16.34-.04.1 3.4h4.03l.08-3.8h.53l.03 1.67h4v-7.22h-3.8l-.16 1.52h-.5l.04-3.57 1.3-.08v-2.2l-1.22-.08v-4.03h1.22v-2.58h-1.14v-6.62l.84-.15v-2.05h.83v-1.67h2.28v-7.76l-.83-.15" id="Ay"/><path d="M-571.8-255.53h-1.3l-.16 2.13h-7.22l-.3-2.96h-2.6v-5.78h2.43l.3-2.9.6-.23v-1.9l1.3-.07v-6.7l-1.07-.08v-2.58h1v-3.96h-.9v-2.2h1v-4.4h-1.07l-.45 1.3-.08 7.38h-1.14l.02-21.23h1.07v7.62l.6 1.16.34.04.1-3.4h4.03l.08 3.8h.53l.03-1.68h4v7.23h-3.8l-.16-1.52h-.5l.04 3.57 1.3.07v2.2l-1.22.07v4.03h1.22v2.6h-1.14v6.6l.84.15v2.06h.83v1.67h2.28v7.75l-.83.15" id="Az"/><path d="M-581.4-252.05v43.8a3.59 3.59 0 0 1-3.57 3.58h-5.84a3.6 3.6 0 0 1-3.59-3.58v-43.8a3.6 3.6 0 0 1 3.59-3.58h5.84a3.59 3.59 0 0 1 3.57 3.58" id="BA"/><path d="M-572.6-233.24v6.3h-1.65v-6.3h1.65" id="BB"/><path d="M-575.06-230.84v2h-4.57v-2h4.57" id="BC"/><path d="M-573.67-264.8v10.75h-6.48v-10.75h6.48" id="BD"/><path d="M-574.56-253.16v1.32h-5v-1.32h5" id="BE"/><path d="M-575.6-251.28v6.66h-2.5v-6.66h2.5" id="BF"/><path d="M-574.38-244v1.32h-5V-244h5" id="BG"/><path d="M-574.38-237.6v1.32h-5v-1.32h5" id="BH"/><path d="M-575.7-241.93v3.9h-2.5v-3.9h2.5" id="BI"/><path d="M-575.7-235.7v3.9h-2.5v-3.9h2.5" id="BJ"/><path d="M-575.7-228.1v3.16h-3.26v-3.16h3.26" id="BK"/><path d="M-580.72-261.66v4.7h-2.17v-4.7h2.17" id="BL"/><path d="M-571.96-262.6v6.78h-1.14v-6.78h1.14" id="BM"/><path d="M-583.65-254.86l.17.1.17.1.3.22.15.13.13.13.13.14.12.15.1.16.1.16.08.17.08.18.07.18.06.2.04.2.03.2v.2l.01.2-.03 44.16-.03.2-.04.2-.06.2-.07.18-.08.18-.08.17-.1.16-.1.16-.12.15-.13.14-.13.13-.15.13-.3.22-.17.1-.17.1-.36.14V-255l.36.14z" id="BN"/><path d="M-595.18-251.9v43.8a3.59 3.59 0 0 1-3.58 3.58h-5.84a3.59 3.59 0 0 1-3.58-3.58v-43.8a3.59 3.59 0 0 1 3.58-3.58h5.84a3.59 3.59 0 0 1 3.58 3.58" id="BO"/><path d="M-597.44-254.7l.17.08.16.1.16.1.15.12.14.12.14.13.13.15.22.3.1.17.1.16.08.18.07.18.1.38.03.2.02.2.01.2-.03 44.15-.03.2-.05.2-.05.18-.07.2-.08.17-.1.17-.1.16-.1.16-.1.15-.13.14-.28.26-.15.12-.32.2-.17.1-.36.14v-49.6l.18.06.18.08z" id="BP"/><path d="M-581.4-266.5v-43.8a3.59 3.59 0 0 0-3.57-3.58h-5.84a3.6 3.6 0 0 0-3.59 3.58v43.8a3.6 3.6 0 0 0 3.59 3.58h5.84a3.59 3.59 0 0 0 3.57-3.58" id="BQ"/><path d="M-572.6-285.3v-6.3h-1.65v6.3h1.65" id="BR"/><path d="M-575.06-287.7v-2h-4.57v2h4.57" id="BS"/><path d="M-573.67-253.77v-10.74h-6.48v10.74h6.48" id="BT"/><path d="M-574.56-265.4v-1.33h-5v1.33h5" id="BU"/><path d="M-575.6-267.28v-6.66h-2.5v6.66h2.5" id="BV"/><path d="M-574.38-274.56v-1.33h-5v1.33h5" id="BW"/><path d="M-574.38-280.96v-1.33h-5v1.33h5" id="BX"/><path d="M-575.7-276.62v-3.9h-2.5v3.9h2.5" id="BY"/><path d="M-575.7-282.85v-3.9h-2.5v3.9h2.5" id="BZ"/><path d="M-575.7-290.45v-3.15h-3.26v3.15h3.26" id="Ba"/><path d="M-580.72-256.9v-4.7h-2.17v4.7h2.17" id="Bb"/><path d="M-571.96-255.95v-6.78h-1.14v6.78h1.14" id="Bc"/><path d="M-583.65-313l.34.18.15.1.3.24.26.28.12.15.1.15.1.17.16.34.07.18.06.2.04.2.03.2v.2l.01.2-.03 44.15-.03.2-.04.2-.06.2-.07.18-.16.34-.1.17-.1.15-.12.15-.26.28-.3.24-.15.1-.34.18-.18.08-.18.06v-49.6l.18.06.18.08z" id="Bd"/><path d="M-595.18-266.66v-43.8a3.59 3.59 0 0 0-3.58-3.58h-5.84a3.59 3.59 0 0 0-3.58 3.58v43.8a3.59 3.59 0 0 0 3.58 3.58h5.84a3.59 3.59 0 0 0 3.58-3.58" id="Be"/><path d="M-597.44-313.17l.17.08.16.1.16.1.15.1.28.26.13.15.22.3.1.17.1.16.08.18.07.18.1.38.03.2.02.2.01.2-.03 44.15-.03.2-.05.2-.05.18-.07.18-.08.18-.1.17-.1.16-.1.16-.1.15-.13.14-.28.26-.15.12-.32.2-.17.1-.36.14v-49.6l.18.07.18.08z" id="Bf"/><path d="M-346.4-561.26c7.62 3.35 11.8 10.57 12.58 21.67.3 1.14.37 2.24.3 3.4v53.98c-.16 2.5-1.2 4.15-3.12 4.9-1.3.57-2.85 1-4.52 1.1l4.2 14.57.38 84c2.4.85 3.5 2.2 3.3 4.12l-.04 58.8c-.05 1.72-1.22 2.83-3.5 3.34l-.18 24.8c.3.17.6.33.88.5v7.55h-5.4c-.12-.8-.1-1.56-.07-2.32l-59.42-.13-57.13.13c.03.76.05 1.52-.06 2.32h-5.4v-7.55l.9-.5-.2-24.8c-2.28-.5-3.44-1.62-3.5-3.34l-.05-58.8c-.2-1.93.92-3.27 3.3-4.12l.38-84 4.2-14.57c-1.68-.1-3.22-.54-4.53-1.1-1.9-.76-2.95-2.4-3.12-4.9v-53.98c-.07-1.17 0-2.27.3-3.4.78-11.1 4.97-18.32 12.58-21.67.17.28.6.33 1.08-.02 8.34-3.53 17.65-5.88 27.75-7.06.13-1.93.9-2.75 2.35-2.55h44.54c1.44-.2 2.22.62 2.35 2.55 10.1 1.18 19.4 3.53 27.74 7.06.5.35.92.3 1.08.02" id="Bg"/><path d="M-346.2-514.28c-.15-11.5-.93-19.28-1.87-25.75-.24-1.02-.52-.84-.85.54l-.2 1.2c-.28 1.7-.05 2.9.06 4.64.54 7.76 1.13 13.82 1.2 19.37-.05.9.2 1.32.7 1.23.25.07.27.07.52.07.28.12.37-.2.44-1.3" id="Bh"/><path d="M-347.86-544.87l.4 1.85.36 1.95.34 2.05.3 2.13.27 2.24.24 2.32.2 2.43.2 2.5.15 2.6.13 2.7.1 2.8.07 2.9.03 3 .01 3.14h-3.73l.08-.3-.07-2.95-.08-2.78-.1-2.62-.1-2.45-.12-2.3-.13-2.13-.15-1.98-.15-1.82-.17-1.67-.17-1.5-.2-1.36-.2-1.2-.2-1.06-.2-.9-.23-.76-.23-.62.28-1.16.3-1.2.15-.6.48-1.83.16-.62.16-.6.17-.6.16-.6.16-.6.17-.6.16-.6.15-.58.45 1.67.42 1.76zm-.7 3.36l-.1.12-.1.17-.1.22-.1.27-.1.32-.05.2-.04.2-.05.2-.04.2-.05.2-.04.2-.04.2-.04.18-.05.2-.04.18-.04.2-.05.18-.03.14-.04.15-.02.16-.02.17-.01.18-.01.2v.42l.01.23.02.24.02.26.03.27.18 2.13.18 2.07.15 2.02.15 1.97.13 1.9.12 1.86.1 1.8.1 1.74.08 1.7.06 1.63.05 1.58.03 1.52v.4l.03.18.04.15.05.13.08.12.08.1.1.07.12.06.13.03.16.01.16-.01.1.01.08.01h.18l.08.01h.1l.08.01h.43l.1.02.08-.01.08-.04.07-.06.07-.1.05-.12.06-.14.04-.17.04-.2.04-.22.03-.24.03-.27-.06-2.82-.1-2.72-.1-2.6-.13-2.5-.15-2.4-.18-2.3-.2-2.2-.22-2.1-.24-2-.27-1.88-.28-1.77-.3-1.67-.1-.23-.08-.18-.1-.13-.1-.08-.1-.03-.1.02-.1.07z" id="Bi"/><path d="M-344.36-509.5c-.08 7.07-.53 14.2-1.34 21.4h1.42l1 4.24c1.28-9.12 2.1-17.66 2.44-25.63h-3.53" id="Bj"/><path d="M-348.2-549.22a8.14 8.14 0 0 1 .48 1.37c2.34 12.38 3.45 24.9 3.36 37.6h3.56l.07-1.67h-1l.1-2.6h.28c.25 0 .48-.04.7-.12.07-2.87.02-4.36-.04-7.08-.05-.01-.1-.01-.14-.02-.1-.02-.01-1.33.01-1.86h.14c-.3-10.22-1.5-19.32-3.63-27.3l-3.86 1.66" id="Bk"/><path d="M-335.77-541.35c.9.95 1.4 2.2 1.6 3.74l.17 55.44c-.07 1.5-.66 2.7-1.76 3.57v-62.75" id="Bl"/><path d="M-462.37-285.32v6.03h3.75v-6.03h-3.75" id="Bm"/><path d="M-337.05-285.32v6.03h-3.75v-6.03h3.75" id="Bn"/><path d="M-342.6-481.06c1.84-10.44 2.85-20.77 3.03-30.98.8-.3 1.37-1.05 1.37-1.94l.02-7.53c0-.96-.66-1.77-1.54-2-.3-6.77-.97-13.5-2-20.15 2.25.18 3.97.73 5.2 1.65v63.92c-1.23.7-2.93 1.1-5.08 1.18a452.4 452.4 0 0 0-.99-4.14h0" id="Bo"/><path d="M-338.62-521.2l-.02 6.92c0 1.05-.65 1.9-1.45 1.9-.07 0-.4 0-1.03-.01l.06-1.8h.2c.7 0 1.26-.63 1.26-1.4l.02-5.37c0-.63-.38-.97-.9-1.08-.07-.01-.04-.6-.03-1.07h.44c.8 0 1.44.86 1.44 1.9" id="Bp"/><path d="M-349.74-488.12c.66-6.94 1-14.08 1.02-21.4h3.6c-.36 8.45-.86 15.57-1.5 21.4h-.7c.7-5.64 1.15-11.8 1.37-18.5 0-.3-.28-.44-1-.4-1-.22-1.4.03-1.32.66.04 4.94-.3 11.03-1.04 18.26h-.43" id="Bq"/><path d="M-366.6-531.05v7.6c0 1.07-.86 1.95-1.92 1.95h-9.88c-1.06 0-1.92-.88-1.92-1.95v-7.6c0-1.07.86-1.95 1.92-1.95h9.88c1.06 0 1.92.88 1.92 1.95" id="Br"/><path d="M-342.18-544.8c3.3.04 5.9 1.44 7.78 4.2-.8-9.1-4.64-17.03-11.85-19.85-.13 0 .14 3.52-.04 4.92.2.33 1.2 1.27 1.4 1.67 1.1 2.13 2.05 5.2 2.72 9.07" id="Bs"/><path d="M-334.3-374.47v60.34c0 .9-1.26 1.65-2.8 1.65h-.4v-63.64h.4c1.55 0 2.8.74 2.8 1.65" id="Bt"/><path d="M-340.85-451.6v165.57h-5.56V-451.6h5.56" id="Bu"/><path d="M-463.65-541.35c-.9.95-1.4 2.2-1.6 3.74l-.17 55.44c.07 1.5.66 2.7 1.76 3.57v-62.75" id="Bv"/><path d="M-456.83-481.06c-1.84-10.44-2.85-20.77-3.03-30.98-.8-.3-1.36-1.05-1.37-1.94l-.02-7.53c0-.96.66-1.77 1.54-2 .3-6.77.97-13.5 2-20.15-2.25.18-3.97.73-5.2 1.65v63.92c1.23.7 2.93 1.1 5.08 1.18.06-.27.4-1.66 1-4.14h0" id="Bw"/><path d="M-452.66-556.3c2.92-2.32 7.08-4.23 12.5-5.72 9.7-2.92 23.1-4.53 40.46-5.02 17.37.5 30.76 2.1 40.45 5.02 5.4 1.5 9.58 3.4 12.5 5.72v-3.84c-7.76-3.67-17.55-6.23-29.2-7.72.13-1.92-.5-2.73-1.92-2.44l-21.88.14-1.8-.01c-6.56.02-13.26-.05-19.97-.13-1.4-.3-2.05.52-1.92 2.44-11.65 1.5-21.44 4.05-29.2 7.72v3.84" id="Bx"/><path d="M-455.05-509.5c.07 7.07.52 14.2 1.33 21.4h-1.42l-1.02 4.24c-1.27-9.12-2.08-17.66-2.43-25.63h3.54" id="By"/><path d="M-451.22-549.22c-.2.4-.35.87-.5 1.37-2.33 12.38-3.44 24.9-3.35 37.6h-3.56c-.03-.56-.05-1.12-.06-1.67h1l-.1-2.6h-.28c-.24 0-.48-.04-.7-.12-.07-2.87-.02-4.36.04-7.08.05-.01.1-.01.14-.02.1-.02.01-1.33 0-1.86h-.15c.3-10.22 1.52-19.32 3.63-27.3l3.86 1.66" id="Bz"/><path d="M-402.3-557.4l-44.96 5.26c-1.5.07-2.8.8-3.63 2.27l-3.96-1.7c.85-2.14 2-3.6 4.02-4.97 10.25-7.02 28.87-8.33 40.52-9.28 2.97-.15 5.86-.2 8.7-.2h3.78c2.86.02 5.74.06 8.7.2 11.64.95 30.27 2.26 40.52 9.28 2 1.38 3.17 2.83 4.02 4.97l-3.96 1.7c-.84-1.47-2.12-2.2-3.63-2.27-14.96-2.04-29.96-3.6-44.96-5.26-.85-.2-1.72-.3-2.6-.37-.87.07-1.74.18-2.6.37" id="CA"/><path d="M-460.8-521.2l.02 6.92c0 1.05.65 1.9 1.45 1.9l1.03-.01-.06-1.8h-.2c-.7 0-1.26-.63-1.26-1.4l-.02-5.37c0-.63.37-.97.9-1.08.07-.01.04-.6.03-1.07h-.43c-.8 0-1.45.86-1.45 1.9" id="CB"/><path d="M-450.38-547.13l.17.6.16.6.16.6.17.6.16.6.16.62.17.6.15.6.32 1.22.15.6.14.6.28 1.16-.23.62-.22.75-.22.9-.2 1.05-.2 1.2-.18 1.36-.17 1.5-.17 1.66-.15 1.82-.14 1.97-.12 2.12-.12 2.3-.1 2.45-.1 2.62-.08 2.77-.07 2.95.04.4h-3.73v-.06l.01-3.08.03-3 .07-2.9.1-2.8.13-2.7.15-2.6.2-2.5.2-2.43.24-2.32.27-2.24.3-2.13.33-2.05.36-1.95.4-1.85.42-1.76.44-1.67.16.58.16.6zm-.85 5.64l-.08.13-.1.18-.08.23-.3 1.67-.3 1.77-.27 1.88-.24 2-.22 2.1-.2 2.2-.18 2.3-.15 2.4-.13 2.5-.1 2.6-.1 2.72-.06 2.82v.32l.01.28.03.24.04.2.05.16.06.13.06.1.08.07.08.04.1.02.1-.01.1-.02h.43l.08-.01h.1l.1-.01h.08.1l.08-.01.1-.01.16-.02.14-.03.12-.04.1-.05.08-.06.07-.08.06-.1.05-.12.04-.14.03-.17.03-.2.02-.23.04-1.52.05-1.58.06-1.63.18-3.43.1-1.8.12-1.86.14-1.9.15-1.97.16-2.02.18-2.07.2-2.13.02-.27v-.26l.02-.24.01-.23v-.42l-.01-.2-.01-.18-.02-.17-.02-.16-.04-.15-.03-.14-.05-.18-.04-.2-.04-.18-.04-.2-.05-.18-.04-.2-.04-.2-.05-.2-.04-.2-.05-.2-.04-.2-.05-.2-.1-.32-.1-.27-.1-.22-.1-.17-.1-.12-.1-.07-.1-.02-.1.03-.1.08z" id="CC"/><path d="M-449.68-488.12c-.66-6.94-1-14.08-1.02-21.4h-3.6c.36 8.45.86 15.57 1.5 21.4h.7c-.7-5.64-1.15-11.8-1.37-18.5 0-.3.28-.44 1-.4 1-.22 1.42.03 1.33.66-.04 4.94.3 11.03 1.04 18.26h.43" id="CD"/><path d="M-448.72-488.12c-1.54-17.76-1.35-34.16.7-49.2.43-1.66 1.85-2.62 4.28-2.9l42.1-2.86v-.06c.63-.06 1.26-.1 1.92-.08h.02c.68-.03 1.3.02 1.95.08v.06l42.1 2.86c2.43.27 3.86 1.23 4.28 2.9 2.04 15.05 2.22 31.45.7 49.2h-12v-43.7c0-.3-.26-.57-.57-.57s-.57.26-.57.57v43.7h-10.84v-32.72h6.6a2.16 2.16 0 0 0 2.15-2.15v-8.38a2.16 2.16 0 0 0-2.15-2.15h-11.05c-1.2 0-2.15.97-2.15 2.15v8.38c0 1.18.96 2.15 2.15 2.15h3.33v32.72h-11.15v-46.75c0-.33-.26-.6-.57-.6s-.57.28-.57.6v46.75h-10.94v-47.3c0-.33-.25-.6-.57-.6-.3 0-.57.28-.57.6v47.3h-11.14v-46.75c0-.33-.26-.6-.57-.6s-.57.28-.57.6v46.75h-11.15v-32.72h3.33c1.2 0 2.15-.97 2.15-2.15v-8.38c0-1.18-.96-2.15-2.15-2.15h-11.05a2.16 2.16 0 0 0-2.15 2.15v8.38a2.16 2.16 0 0 0 2.15 2.15h6.58v32.72h-10.83v-43.7c0-.3-.26-.57-.57-.57s-.57.26-.57.57v43.7h-12" id="CE"/><path d="M-432.8-531.05v7.6c0 1.07.86 1.95 1.92 1.95h9.88c1.06 0 1.92-.88 1.92-1.95v-7.6c0-1.07-.86-1.95-1.92-1.95h-9.88c-1.06 0-1.92.88-1.92 1.95" id="CF"/><path d="M-457.24-544.8c-3.3.04-5.9 1.44-7.78 4.2.8-9.1 4.64-17.03 11.85-19.85.13 0-.14 3.52.04 4.92-.2.33-1.2 1.27-1.4 1.67-1.1 2.13-2.05 5.2-2.72 9.07" id="CG"/><path d="M-465.13-374.47v60.34c0 .9 1.26 1.65 2.8 1.65h.4v-63.64h-.4c-1.55 0-2.8.74-2.8 1.65" id="CH"/><path d="M-461.42-452.26v-8.9H-338v8.9h-123.42" id="CI"/><path d="M-457.95-285.07v3.5h116.48v-3.5h-116.48" id="CJ"/><path d="M-452.4-451.6v165.57H-347V-451.6h-105.4" id="CK"/><path d="M-458.56-451.6v165.57h5.55V-451.6h-5.55" id="CL"/><path d="M-461.44-451.52v165.57h2.12v-165.57h-2.12" id="CM"/><path d="M-396.3-487v.12l51.2-.04 7 24.6h-123.22l7-24.6 51.14.04v-.12h6.9" id="CN"/><path d="M-337.98-451.52v165.57h-2.1v-165.57h2.1" id="CO"/><path d="M-347.88-488c.72-5.1 1.2-11.22 1.45-18.35-.7-.3-1.18-.3-1.46-.06.02 5.9-.3 12-.98 18.35.3 0 .67 0 1 .06" id="CP"/><path d="M-353.8-540.32l1.96-8.5c-.18-.87-.7-1.42-1.72-1.64l-40-4.57c-2.52-.1-3.77.46-3.94 1.63l.17 9.65 40.17 2.94c1.17-.03 2.3.1 3.36.5" id="CQ"/><path d="M-453.34-514.13c.15-11.5.93-19.28 1.87-25.75.24-1.02.53-.84.86.54l.2 1.2c.28 1.72.06 2.9-.06 4.64-.54 7.76-1.12 13.82-1.2 19.37.04.6-.06 1-.3 1.16-.2.15-1.13.34-1.26-.05-.07-.2-.06-.56-.1-1.1" id="CR"/><path d="M-451.65-487.84c-.7-5.1-1.2-11.22-1.45-18.35.72-.3 1.2-.3 1.47-.06-.02 5.9.3 12 .97 18.35-.3 0-.66 0-1 .06" id="CS"/><path d="M-445.73-540.17l-1.97-8.5c.2-.87.7-1.42 1.72-1.63l40-4.58c2.5-.1 3.77.46 3.93 1.63l-.16 9.65-40.17 2.94c-1.18-.03-2.3.1-3.36.5" id="CT"/><path d="M-452.4-451.6v4.6.02c6 10.4 23.03 16.66 51.1 18.75 29.4-.98 42.64 8.7 39.7 27.93-4.04 41.05-3.8 69.23.37 85.65 3.22 11.23 4.58 20.8 3.98 28.6H-347V-451.6h-105.4" id="CU"/><path d="M-436.6-552.22l31.27-3.32c2.33-.05 3.66.7 3.9 2.1l-.12 9.72c.47.1 3.23.1 3.7 0l-.12-9.72c.24-1.42 1.57-2.16 3.9-2.1l40.75 4.4c1.66.56 2.35 1.44 2.05 2.65l-1.9 8.27c.46.16 1.2.85 1.56 1.02l2.66-10.14c-.9-2.03-2.23-2.2-4.32-2.48l-46.1-5.08v-.07l-.33.04-.33-.04v.07l-36.23 3.98a3.15 3.15 0 0 0-.34.69" id="CV"/><path d="M-417.08-542l15.43-1.08v-.06c.63-.06 1.26-.1 1.92-.08h.02c.68-.03 1.3.02 1.95.08v.06l42.1 2.86c2.43.27 3.85 1.23 4.28 2.9 2.04 15.05 2.22 31.45.7 49.2h-12v-43.7c0-.3-.26-.57-.57-.57s-.57.26-.57.57v43.7h-10.84v-32.72h6.6a2.16 2.16 0 0 0 2.15-2.15v-8.38a2.16 2.16 0 0 0-2.15-2.15h-11.05c-1.2 0-2.15.97-2.15 2.15v8.38c0 1.18.96 2.15 2.15 2.15h3.33v32.72h-11.15v-46.75c0-.33-.26-.6-.57-.6s-.57.28-.57.6v46.75h-4.37c.13-39.53-4.52-56.8-13.95-51.5-3.94-.8-7.5-1.6-10.66-2.38" id="CW"/><path d="M-402.3-557.4l-33.38 3.77c1.6-1.63 5.1-3.23 10.46-4.8 9.76-3.48 15.54-5.98 17.37-7.5a220.35 220.35 0 0 1 6.25-.11h3.78c2.86.02 5.74.06 8.7.2 11.64.95 30.27 2.26 40.52 9.28 2 1.38 3.17 2.83 4.02 4.97l-3.96 1.7c-.84-1.48-2.12-2.2-3.63-2.28-14.96-2.04-29.96-3.6-44.96-5.26-.85-.2-1.72-.3-2.6-.37-.87.07-1.74.18-2.6.37" id="CX"/><path d="M-548.5-574.77l-57.32-.18c-5.9-.01-7.95 5-8.17 9.77h8.68v15.2c-1.78 1.08-3.25 2.7-3.25 5.62v52.47c0 2.46 2.14 3.9 3.53 4.8.66 1.02 1.23 2.32 1.9 3.34-1.86 2.75-1.54 5.7.54 9.23v1.8l-3.44.18-2.53 2.17.77 57.87 2.36 3.02 3.4.28-5.56 5.94-.3 70.28h5.82l8.73-6.5 44.84-.16 44.84.16 8.73 6.5h5.8l-.3-70.28-5.56-5.94 3.4-.28 2.35-3.02.78-57.87-2.54-2.17-3.43-.18v-1.8c2.08-3.54 2.4-6.48.54-9.23.66-1.02 1.23-2.32 1.9-3.34 1.38-.9 3.53-2.33 3.53-4.8v-52.47c0-2.92-1.47-4.54-3.26-5.62v-15.2h8.68c-.2-4.77-2.28-9.78-8.16-9.77l-57.32.18" id="CY"/><path d="M-484.03-566.18h-43l-.6-2.9-21.97.05-19.77-.05-.6 2.9h-43.02c0-4.83 3.45-7.76 8.2-7.76h112.55c4.76 0 8.2 2.93 8.2 7.76" id="CZ"/><path d="M-526.94-562.54l18 81.64-39.55-.16-39.55.16 18-81.64h43.12" id="Ca"/><path d="M-510.85-467.04v4.9c0 .7-.6 1.28-1.3 1.28h-32.97c-.7 0-1.3-.57-1.3-1.28v-4.9c0-.7.6-1.28 1.3-1.28h32.97c.7 0 1.3.58 1.3 1.28" id="Cb"/><path d="M-506.15-466.38l-.74 9.2c0-2.04-1.67-3.7-3.7-3.7h-.54c.62-.17 1.07-.73 1.07-1.4v-5.46c0-.8-.65-1.43-1.43-1.43H-546c-.78 0-1.43.64-1.43 1.43v5.46c0 .66.46 1.22 1.07 1.4h-4.3c.62-.17 1.07-.73 1.07-1.4v-5.46a1.43 1.43 0 0 0-1.43-1.43h-34.48a1.43 1.43 0 0 0-1.43 1.43v5.46a1.45 1.45 0 0 0 1.06 1.39h-.53c-2.05 0-3.7 1.67-3.7 3.7l-.74-9.2c-.17-2.13 1.74-3.88 3.87-3.88h76.95c2.13 0 4.05 1.75 3.88 3.88" id="Cc"/><path d="M-509.08-452.5l2.6 35.34c0 .02-4.24.04-6.25.05l-36.73.13-34.8-.13-6.25-.05 2.6-35.34c.15-2 1.65-3.65 3.66-3.65h71.54c2 0 3.5 1.65 3.65 3.65" id="Cd"/><path d="M-492.88-565.23v15.4h-30.3l-3.58-15.5 33.87.1" id="Ce"/><path d="M-498.57-365.6l.5-.12-4.6-50.42 12.5 12.95.3 69.46h-4.75l-8.88-6.85h-90.02l-8.9 6.85h-4.74l.28-69.46 12.52-12.95-4.6 50.42.5.12 4.84-50.44 45.1.27 45.1-.27 4.84 50.44" id="Cf"/><path d="M-493.67-479.7c0 3.68-2.98 6.66-6.65 6.66a6.66 6.66 0 0 1-6.66-6.66c0-3.67 2.98-6.66 6.66-6.66 3.67 0 6.65 3 6.65 6.66" id="Cg"/><path d="M-493.3-487.34l-1.47 3.26-.53-.6-.58-.53-.65-.47-.7-.4-.74-.32-.78-.23-.82-.14-.84-.05-1.34.13-1.26.35-1.15.57-1.02.76-.87.93-.7 1.06-.5 1.2-.28 1.3-1.74-7.06 2.27 1.08 13.7-.84z" id="Ch"/><path d="M-489.93-470.32l-.2 57.8-2.14 2.53h-3.3l-6.1-6.57-3.62-55.7 13.8.58 1.55 1.36zm-3.24 1.25l-.08.02-.04.02-.03.01-.04.02-.06.04-.06.06-.02.03-.03.03-.02.03-.02.04-.02.03v.04l-.02.04-.01.04v.04l-.01.04.01 54.72.01.04.02.04v.04l.02.04.04.06.03.04.08.08.06.04.04.02.03.02.12.03h.04l.04.01.04-.01h.04l.08-.02h.03l.04-.02.03-.02.04-.02.03-.02.03-.03.02-.03.03-.02.03-.04.04-.06v-.04l.02-.04.03-.12v-.04l.01-.05-.03-54.7-.01-.04-.02-.04v-.03l-.02-.04-.02-.03-.06-.06-.02-.03-.03-.03-.03-.02-.04-.02-.03-.02-.04-.01-.03-.02-.08-.02h-.16zm-3.38 0l-.08.02-.04.02-.04.01-.03.02-.04.03-.03.02-.06.06-.02.03-.03.03-.02.04-.02.03-.01.04-.02.04v.08 52.96.04l.02.04.01.04.02.04.02.03.03.03.02.04.03.02.06.06.04.02.03.02.04.02.12.03h.04.04.05.04l.12-.03.03-.02.04-.02.03-.02.04-.03.05-.05.03-.04.02-.03.03-.03.02-.04.01-.04.02-.04.01-.04v-.04l.01-.04-.02-52.96-.02-.04-.01-.04-.02-.03-.03-.04-.02-.03-.03-.03-.02-.03-.03-.03-.04-.02-.03-.03-.04-.02-.03-.01-.04-.02-.08-.02h-.17zm-3.94 0l-.04.01-.05.01-.04.02-.03.02-.08.04-.03.03-.03.02-.03.03-.02.04-.03.03-.02.04v.03l-.03.12-.01.05.01 50.27.03.12v.04l.02.03.03.04.02.03.06.06.03.02.04.03.04.02.03.01h.04l.05.01.04.01h.04l.05.01.04-.01h.04l.05-.01.04-.01h.04l.04-.01.03-.02.04-.03.03-.02.1-.1.02-.04.02-.03.04-.08.02-.08-.02-50.4-.02-.04-.02-.03-.02-.04-.02-.03-.03-.04-.03-.03-.03-.02-.03-.03-.04-.02h-.03l-.08-.04-.04-.01-.05-.01h-.17z" id="Ci"/><path d="M-493.2-549.03l.17.02.17.03.17.04.16.04.16.05.16.06.16.07.15.07.14.08.15.08.14.1.13.1.13.1.12.1.24.24.1.12.1.13.1.14.1.14.08.14.16.3.06.15.06.16.05.16.04.16.04.17.03.17.02.17.01.18v.17l-.02 54.16-.02.17-.03.16-.04.17-.04.16-.05.16-.06.16-.14.3-.16.28-.1.14-.2.26-.1.12-.12.12-.24.22-.13.1-.14.1-.13.1-.15.08-.14.08-.15.08-.48.18-.16.05-.17.04-.34.06-.18.01-.17.02-13.05.54-.17-.01h-.16l-.17-.03-.16-.03-.15-.04-.15-.05-.15-.06-.28-.14-.13-.08-.26-.18-.24-.2-.1-.12-.1-.1-.1-.13-.1-.12-.1-.14-.1-.13-.1-.15-.1-.14-.08-.15-.07-.15-.08-.16-.07-.16-.12-.32-.06-.17-.1-.34-.08-.34-12.47-56.43-.05-.13-.04-.12-.05-.12-.04-.1-.08-.2-.04-.1-.03-.1-.03-.07-.02-.08-.02-.07-.01-.06v-.1l.01-.05.04-.08.04-.04.04-.03.05-.02.07-.03.08-.02h.08l.1-.02.24-.02h.14l.16-.01 28.53.01.18.01zm-26.8 9.74h25.85v-8H-520v8z" id="Cj"/><path d="M-495-544.65v4.52h-24.15v-4.52H-495" id="Ck"/><path d="M-495-546.55v1.3h-24.15v-1.3H-495" id="Cl"/><path d="M-568.66-568.4l-1.1 5.18h42.52l-1.1-5.18h-40.3" id="Cm"/><path d="M-588.26-480l39.1-.02 40.43.02 2.5 7.6.05 3.46.03.65-.6-1.1c-.6-1.1-1.4-1.9-3.45-1.9l-38.28-.3-38.3.3c-2.04.01-2.83.8-3.44 1.9l-.62 1.1.04-.65.04-3.46 2.5-7.6" id="Cn"/><path d="M-586.15-467.04v4.9c0 .7.58 1.28 1.3 1.28h32.96c.72 0 1.3-.57 1.3-1.28v-4.9c0-.7-.6-1.28-1.3-1.28h-32.96c-.72 0-1.3.58-1.3 1.28" id="Co"/><path d="M-589.7-456.37l-2.55 39.4s1.34.06 1.36.1l2.22-36.4c.12-2.03 1.67-3.7 3.7-3.7h72.9c2.05 0 3.6 1.68 3.72 3.7l2.2 36.4c.02-.04 1.36-.1 1.36-.1l-2.54-39.4c-.13-2.04-1.67-3.7-3.7-3.7h-74.96c-2.04 0-3.6 1.67-3.7 3.7" id="Cp"/><path d="M-604.12-565.23v15.4h30.3l3.58-15.5-33.87.1" id="Cq"/><path d="M-603.34-479.7a6.66 6.66 0 1 0 13.32 0c0-3.67-2.98-6.66-6.66-6.66s-6.66 3-6.66 6.66" id="Cr"/><path d="M-589.75-481.8l-.5-1.2-.7-1.06-.87-.93-1.03-.76-1.15-.57-1.26-.35-1.33-.13-.85.05-.8.14-.78.23-.74.32-.7.4-.64.47-.6.53-.52.6-1.47-3.26 13.7.84 2.26-1.08-1.73 7.06-.3-1.3z" id="Cs"/><path d="M-601.44-410h-3.3l-2.13-2.53-.2-57.8 1.55-1.36 13.8-.58-3.62 55.7-6.1 6.57zm-2.55-59.08l-.08.02-.04.02-.03.01-.04.02-.06.04-.06.06-.02.03-.03.03-.02.03-.02.04v.03l-.01.04-.02.04-.01.04v.04l-.01.04.01 54.72.01.04.02.04.01.04v.04l.04.06.03.04.08.08.06.04.04.02.03.02.12.03h.04l.04.01.04-.01h.04l.04-.01.03-.01h.04l.04-.02.06-.04.04-.02.03-.03.02-.03.03-.02.02-.04.03-.03.02-.03.01-.04.02-.04.03-.12-.03-54.84-.02-.04-.01-.03-.02-.04-.03-.03-.02-.03-.03-.03-.02-.03-.03-.03-.04-.02-.06-.04-.04-.01-.04-.02-.03-.01-.04-.01h-.16zm3.37 0l-.08.02-.04.02-.04.01-.03.02-.04.03-.03.02-.06.06-.02.03-.03.03v.04l-.02.03-.01.04-.02.04-.02.08.01 52.96.01.04.02.04.01.04.02.04v.03l.03.03.02.04.03.02.06.06.04.02.03.02.04.02.12.03h.04.04.04.05l.08-.02.03-.01.08-.04.03-.02.06-.06.03-.02.03-.04.04-.06.04-.08.04-.16-.03-52.96-.01-.04-.02-.04-.02-.03-.02-.04v-.03l-.1-.1-.03-.02-.03-.03-.04-.02-.04-.01-.03-.02-.08-.02h-.17zm3.93 0l-.08.02-.12.06-.03.02-.04.03-.03.02-.03.03-.02.04-.03.03-.02.04v.03l-.03.12-.01.05.01 50.27.03.12v.04l.02.03.03.04.02.03.06.06.04.02.03.03.04.02.04.01h.04l.08.02h.04l.05.01.04-.01h.05l.08-.02h.04l.04-.01.04-.02.03-.03.03-.02.1-.1.02-.04.02-.03.04-.08.02-.08-.02-50.4-.02-.04-.02-.03-.02-.04-.02-.03-.03-.04-.03-.03-.03-.02-.03-.03-.03-.02-.12-.06-.08-.02h-.18z" id="Ct"/><path d="M-574.93-549.04h.14l.13.01.1.01.1.02h.1l.08.02.06.03.05.02.05.03.06.08.02.04.01.05v.05l-.02.12-.02.07-.02.08-.03.07-.06.18-.08.2-.05.1-.08.24-.05.13-.05.14-.08.3-.05.16-.03.17-12.5 56.5-.07.16-.06.16-.14.32-.16.3-.08.14-.1.15-.1.13-.1.14-.1.12-.1.13-.23.23-.1.1-.12.1-.26.18-.14.08-.13.07-.15.07-.14.06-.15.05-.16.04-.32.06-.34.02h-.17l-12.87-.54-.18-.02-.17-.01-.18-.03-.17-.03-.16-.04-.17-.05-.32-.12-.15-.06-.3-.16-.14-.08-.14-.1-.26-.2-.13-.1-.12-.1-.22-.24-.1-.13-.1-.13-.18-.28-.08-.14-.14-.3-.06-.16-.05-.16-.04-.16-.04-.17-.03-.16-.02-.17v-.18-54.33l.02-.17.03-.17.04-.17.04-.16.05-.16.06-.16.14-.3.08-.15.27-.42.1-.13.22-.24.12-.12.13-.1.13-.1.13-.1.14-.1.14-.08.15-.08.3-.14.16-.06.16-.05.17-.04.16-.04.17-.03.18-.02.17-.01.18-.01 28.5.01zm-27.92 9.75H-577v-8h-25.85v8z" id="Cu"/><path d="M-602-544.65v4.52h24.14v-4.52H-602" id="Cv"/><path d="M-602-546.55v1.3h24.14v-1.3H-602" id="Cw"/><path d="M-505.78-465.33l-.93 10.33 1.65 23.8h1.6l-2.32-34.14" id="Cx"/><path d="M-591.23-465.33l.93 10.33-1.65 23.8h-1.6l2.3-34.14" id="Cy"/><path d="M-498.57-365.6l.5-.12-4.6-50.42 12.5 12.95.01.73c-2.36.38-3.8 1.25-4.3 2.54.47 28.48 0 44.54-1.43 48.68-8.44-6.2-26.1-8.27-52.5-6.68-13.68.64-17.8-4.45-13.77-14.65 8.94-16.36 13.7-30.76 14.32-43.2l44.43-.27 4.84 50.44" id="Cz"/><path d="M-509.08-452.5l2.6 35.34c0 .02-4.24.04-6.25.05l-35.06.14a61.12 61.12 0 0 0-.01-3.32c-.62-6.02-.62-16.67.23-31.95a23.36 23.36 0 0 0 .2-3.91h34.64c2 0 3.5 1.65 3.65 3.65" id="DA"/><path d="M-506.15-466.38l-.74 9.2c0-2.04-1.67-3.7-3.7-3.7h-.54c.62-.17 1.07-.73 1.07-1.4v-5.46c0-.8-.65-1.43-1.43-1.43H-546c-.78 0-1.43.64-1.43 1.43v5.46c0 .66.46 1.22 1.07 1.4h-1.5c-.6-1.35-.78-4.46-.65-9.37h38.47c2.13 0 4.05 1.75 3.88 3.88" id="DB"/><path d="M-548-480.03h.17l39.1.02 2.5 7.6.05 3.46.03.65-.6-1.1c-.6-1.1-1.4-1.9-3.45-1.9l-38.24-.3.45-8.42" id="DC"/><path d="M-526.94-562.54l18 81.64-39-.15.03-.5-1.87-81h22.84" id="DD"/><path d="M-590.02-448.58l.08.1.1.08.18.18.1.08.18.18.1.08.2.18.1.08-1.88 30.75-.02-.01h-.07-.1l-.12-.01-.14-.01-.16-.01-.3-.02-.14-.01h-.12l-.1-.01h-.1l2.05-31.78.1.1.08.1z" id="DE"/><path d="M-489.9-545.4v44c-1.14-1.1-2.47-3.42-3.98-6.9 0-3.04-3.3-4.14-9.1-3.3-6.14.34-9.66-2.5-10.56-8.08l-4.93-19.6h24.33v-8H-520v2.04l-1-3.8h27.43c2 0 3.66 1.65 3.66 3.66" id="DF"/><path d="M-577.48-549.05h-25.96c-.92 0-1.76.34-2.4.9.48 4.06.7 9.83.6 17.4-.1 7.65 1.8 12.85 5.7 15.34 5.43 2.26 8.7.9 9.64-4.08-.1-4.34 1.63-7.4 4.88-8.82 3.82-2.87 6.25-6.54 7.28-10.98h-25.12v-8h25.58c-.06-.58-.12-1.17-.2-1.77" id="DG"/><path d="M595.28 493.23v758.08c0 12.3-2.67 22.38-5.94 22.38H57.05c-3.26 0-5.95-10.07-5.95-22.38V493.23c0-12.3 2.7-22.38 5.95-22.38h532.3c3.27 0 5.94 10.07 5.94 22.38" id="DH"/><path d="M106.25 51.7c-7.97 24.35-12.02 61.55-12.13 111.62.1 30.57 1.15 54.82 2.43 73.04 6.12 10.7 13.06 17.14 20.46 19.28l204.2-24.66 204.2 24.66c7.4-2.14 14.33-8.57 20.46-19.28 1.27-18.22 2.32-42.47 2.43-73.04-.1-50.07-4.16-87.27-12.14-111.62C518.4 36.4 473.55 27 401.35 23c.32-4.95-1.28-8.03-5.25-8.84l-74.9.8-74.9-.8c-3.97.8-5.56 3.9-5.25 8.84-72.2 4.02-117.03 13.4-134.8 28.7" id="DI"/><path d="M312.34 462.1V212.05l13.96.1 23.53-.16c0 .01-.01.08-.01.2l2-.17.01.33 45.8.01c5.47-.98 7.96 1.68 7.47 7.96 41.9 4.53 75.23 1.7 103.9 10.8 7.98 2.52 10.72 2.83 17.67 6.1 8.18 3.84-4.03 12.7 1.57 19.28 1.3 1.53 16.65 6.1 17.52 7.87 6.53 13.16 5.07 36.43 5.07 51.94-.08.27-.45 1.64-1.12 4.1l3.53 10.2.4 121.47-11.38 11.35h-.44v35.5H101.94V462.1h210.4" id="DJ"/><path d="M490.36 263.5c7.33.9 12.25 1.4 15.73 6.4.13.2 1.82 2.53 2.83 5.4 1.7 4.78 2.76 10.58 2.97 10.97-4.14 2.5-8.7 13.92-12 23.97-.7-.26-4.84-6.4-5.97-7.1-1.12-.7-2.3-1.4-3.18-1.66 2.68-9.1 5.14-18.63 7.43-27.08-.06-.46-5.68-7.72-7.8-10.9" id="DK"/><path d="M438.6 331.45v24.86c0 3.5-3.36 6.38-7.47 6.38h-38.36c-4.12 0-7.48-2.87-7.48-6.38v-24.86c0-3.5 3.36-6.38 7.48-6.38h38.36c4.1 0 7.47 2.87 7.47 6.38" id="DL"/><path d="M519.76 289.5h.42.4l.38.01.37.01.33.01.32.02.28.02.26.02.22.02.2.02.15.03.1.03.07.04.03.04.08.58.08.6.08.64.1.65.1.68.1.7.1.72.1.74.1.76.1.77.12.8.1.8.12.83.1.83.24 1.7.1.87.12.88.1.88.12.9.1.9.1.9.1.9.1.9.1.9.1.9.18 1.8.08.9.14 1.8.12 1.78.05.87.04.87.03.85.03.84v1.65.8.2l-.03.2-.05.2-.06.2-.1.17-.1.16-.1.15-.13.15-.14.13-.15.13-.32.24-.36.22-.2.1-.4.2-.2.1-.2.1-.2.1-.2.1-.2.1-.2.1-.2.1-.2.1-.18.1-.18.1-.18.12-.16.1-.3.26-.13.14-.12.14-.1.16-.1.16-.08.18-.06.18-.04.2-.02.2v.22l.07 1.58.12 3.17.05 1.6.06 1.6.1 3.25.04 1.64.05 1.65.12 5 .15 8.55.12 10.62.06 11.03v3.78l.01 1.9v5.8l-.01 1.96v3.96l-.01 2v2l-.01.22h-14.5l.33-1.04-.08-3.13-.18-6.1-.1-2.96-.1-2.9-.1-2.86-.1-2.8-.12-2.75-.12-2.7-.26-5.23-.14-2.53-.14-2.48-.14-2.43-.15-2.37-.16-2.33-.16-2.26-.16-2.22-.17-2.16-.18-2.1-.18-2.06-.18-2-.2-1.95-.2-1.9-.2-1.85-.2-1.8-.2-1.74-.2-1.7-.22-1.64-.2-1.6-.22-1.54-.23-1.5-.23-1.44-.23-1.4-.24-1.34-.24-1.3-.24-1.24-.25-1.2-.25-1.14-.26-1.1-.04-.3v-.36l.04-.42.07-.47.1-.53.14-.57.16-.6.2-.65.22-.7.24-.73.27-.75.28-.77.3-.8.32-.82.33-.84.35-.84.35-.86 1.1-2.58.37-.85.38-.85.37-.83.37-.82.37-.8.35-.78.34-.75.66-1.4.3-.66.28-.6.26-.57.25-.52.2-.47.2-.42.17-.36.13-.3.1-.23.07-.17.03-.1h.03l.07-.01h.1l.16-.01.2-.01.22-.01.26-.01.3-.01h.3.7l.4-.01.4-.01.85-.02.44-.01.9-.02h.47l.46-.01h.47.46 1.78zm.1 1.85l-.5.04-.56.06-.3.03-.6.08-.62.08-.32.04-1.24.16-.3.04-.3.03-.28.03-.27.03-.26.02h-.25l-.23.02h-.2l-.2.01-.18-.01-.16-.01-.13-.02-.1-.03-.08-.04-.06-.04-.03-.06-.17.05-.2.1-.2.18-.22.25-.24.3-.25.36-.26.4-.27.46-.28.5-.3.55-.3.6-.3.63-.3.66-.3.7-.3.72-.3.74-.3.76-.62 1.58-.6 1.62-.58 1.64-.27.82-.27.8-.25.8-.24.8-.23.78-.22.76-.2.74-.18.72-.16.68-.15.66-.12.62-.1.58-.08.55-.06.5-.03.45v.4l.02.35.3 2.16.3 2.14.28 2.12.26 2.1.26 2.08.25 2.07.46 4.08.22 2 .2 2 .2 1.97.2 1.96.36 3.86.17 1.9.16 1.88.15 1.87.15 1.85.14 1.83.26 3.6.1 1.78.12 1.76.3 5.18.1 1.7.16 3.33.14 3.27.06 1.6.12 3.16.05 1.56.04 1.54.05 1.52.04 1.5.03 1.5.04 1.48v.2l-.01.2v.6l.02.18v.18l.03.18.03.17.03.16.04.16.1.3.06.14.06.13.14.26.16.22.1.1.1.1.1.1.1.1.1.08.12.07.13.07.12.06.14.06.14.05.3.08.32.06.17.02.17.01.18.01h.2l.2-.01.4-.02.1.01.1.02h.2l.1.02.6.06h.1.2.1l.2.02h.1l.1.01h.2l.1.01h.3l.1.01h.7l.1.01h.6l.22.04.1.01.1.01.1-.01.1-.01.1-.03.1-.03.18-.08.16-.12.08-.07.16-.16.14-.2.14-.22.06-.13.07-.13.12-.28.05-.16.06-.16.1-.34.15-.57.04-.2.05-.2.08-.44.04-.24.03-.24.04-.24.03-.26.04-.26.03-.26-.06-2.7-.02-1.4-.03-1.42-.02-1.44-.03-1.47-.02-1.5-.03-1.5-.02-1.53-.03-1.54-.04-3.13-.03-1.6-.02-1.6-.06-3.2-.02-1.6-.15-8.02-.04-1.6-.03-1.58-.08-3.12-.08-3.06-.1-2.98-.1-2.9-.05-1.4-.06-1.38-.06-1.35-.07-1.32-.06-1.3-.07-1.25-.08-1.2-.07-1.18-.01-.28.02-.27.04-.26.07-.25.1-.23.1-.22.13-.2.15-.2.16-.2.18-.18.2-.17.2-.17.2-.16.22-.15.23-.15.24-.15.24-.14.25-.14.25-.13.25-.14.25-.13.25-.14.24-.13.48-.28.22-.14.22-.15.2-.15.2-.16.2-.16.17-.17.16-.18.14-.2.12-.2.1-.2.1-.2.06-.23.03-.24v-.25-.27l-.1-.86-.1-.84-.08-.84-.1-.84-.08-.82-.16-1.62-.07-.8-.08-.8-.07-.78-.08-.78-.07-.77-.2-2.26-.08-.74-.07-.74-.07-.73-.07-.72-.08-.72-.07-.7-.08-.7-.07-.7-.24-2.07-.18-1.36-.08-.67-.1-.67-.1-.67-.3-1.98-.22-1.3-.1-.64-.12-.65-.12-.64-.13-.64-.02-.06-.06-.05-.08-.04-.1-.04-.14-.02-.15-.01-.18-.01h-.4l-.23.01z" id="DM"/><path d="M546.24 363.7l-.06 22.66c-.01 3.43-2.54 6.22-5.63 6.2-.27 0-1.6 0-4-.01l.24-5.95.76.01c2.7 0 4.9-2.05 4.9-4.56l.05-17.57c.01-2.04-1.45-3.17-3.43-3.52-.27-.05-.16-1.93-.12-3.53l1.68.01c3.1.01 5.6 2.82 5.6 6.25" id="DN"/><path d="M516.72 386.23l-1.05-57.87c-.2-3.83 4.6-3.65 4.35-7.2-.83-11.22-1.18-20.05-2.37-28.38-.12-.85-5.74 1.06-5.87.26-1.5.13-6.43 19.1-6.08 23.28 2.77 28.22 3.6 51.56 3.9 70.66-.18 2.84.68 4.2 2.56 3.93.9.2 1.83.2 2.74.2 1.02.4 1.53-1.37 1.83-4.88" id="DO"/><path d="M333.53 297.37l16.94.1 8.47.08 4.24.05 8.46.12 12.7.22 8.46.18 12.67.3 8.44.24 8.43.26 4.22.14 12.62.46 4.2.16 4.2.17 8.4.36 4.2.2 12.57.6 8.36.44.7.07.68.08.67.08.66.1.64.1.63.12.6.12.6.13.58.14.57.15.56.15.54.17.52.17.5.18.5.2.48.2.92.42.43.22.43.24.4.24.4.25.38.26.36.26.35.28.34.28.32.3.3.3.3.3.27.32.26.32.25.34.23.34.22.35.2.36.2.37.17.38.16.38.15.4.13.4.67 4.28.64 4.2.6 4.12.56 4.03.53 3.97.48 3.9.46 3.8.42 3.74.4 3.68.36 3.6.33 3.54.3 3.47.27 3.4.25 3.34.23 3.28.2 3.23.17 3.16.16 3.1.13 3.05.12 3 .1 2.95.08 2.9.06 2.84.05 2.8.06 5.45.01 2.65v2.6l-.01 2.58-.04 5.02-.03 2.45-.04 2.42-.03 2.4-.05 2.35-.2 11.3-.2 1.56-.22 1.46-.22 1.37-.23 1.28-.25 1.2-.27 1.12-.28 1.03-.3.97-.32.88-.35.82-.37.76-.4.68-.42.63-.46.57-.5.5-.53.46-.56.4-.6.36-.63.32-.68.28-.72.24-.76.2-.8.17-.86.14-.9.12-.96.1-1 .07-1.06.06-1.12.04-1.18.03-1.24.02-1.3.01-1.36.02h-2.92l-1.57.02-1.63.03-1.7.04-1.78.06-5.02.2-1.6.05-3.17.08-1.6.03-3.17.04-1.58.01h-4.76l-3.17-.02-4.75-.06-1.6-.03-1.58-.02-4.76-.1-1.58-.04-1.6-.03-1.58-.04-3.17-.06-1.58-.04-6.34-.12h-1.6l-1.58-.03-1.58-.02-1.6-.01-1.58-.02h-1.6-6.4-3.12-8.7l-2.7.01h-24.3l-1.85-.01h-3.58-1.74-1.72-1.7-1.68l-1.67-.01h-1.66l-4.98-.03h-1.68l-12.45-.07-1.94-.02-4.04-.02-13.96.08V297.4l4.24-.02 4.24-.01h12.7zm23.6 19.6l-.18.02h-.08l-.1.02-.08.02-.08.03-.1.02-.08.03-.07.03-.08.04-.08.03-.07.04-.07.05-.07.04-.07.05-.06.05-.07.05-.12.1-.05.06-.06.06-.1.12-.04.07-.05.07-.04.06-.04.07-.03.07-.03.08-.06.14-.04.16-.02.07-.02.16.02 101.2.02.07.04.16.03.07.03.08.06.14.08.14.05.06.04.07.1.12.06.06.05.06.06.05.06.06.07.05.06.05.07.04.07.05.14.08.08.04.08.03.07.03.08.03.1.03.16.04.1.02.08.01.27.03h.18l.1-.01h.1l.1-.02.08-.01.1-.02h.08l.1-.02.24-.1.07-.03.08-.04.14-.08.07-.05.07-.04.06-.05.07-.05.06-.06.06-.05.05-.06.06-.06.1-.12.04-.07.05-.06.08-.14.06-.14.03-.08.03-.07.02-.08.02-.07.02-.08.02-.16-.06-101.36-.02-.08-.03-.07-.03-.08-.06-.14-.08-.14-.05-.06-.04-.07-.1-.12-.06-.06-.05-.06-.12-.1-.07-.06-.06-.04-.07-.05-.07-.04-.07-.05-.07-.04-.08-.03-.07-.04-.16-.06-.08-.02-.1-.03-.08-.02-.1-.02h-.08l-.18-.02h-.1l-.1-.01-.1.01h-.1zm32.42 6.4l-.34.02-.33.03-.34.04-.32.05-.33.06-.32.07-.62.18-.3.1-.3.1-.3.13-.28.13-.28.14-.27.14-.52.32-.25.18-.24.18-.23.2-.22.2-.22.2-.2.2-.2.22-.18.22-.18.23-.16.23-.16.24-.14.24-.13.25-.12.26-.1.26-.1.26-.1.27-.07.27-.06.28-.05.28-.03.28-.02.3-.01.3v27.43l.01.3.02.28.03.28.05.28.06.28.07.27.1.27.1.27.1.26.12.25.13.25.14.24.32.48.18.23.18.22.4.42.44.4.23.2.24.18.25.17.52.32.27.15.28.14.28.13.3.12.3.1.3.1.3.1.3.08.32.07.33.06.32.05.34.04.33.03.34.02.35.01h12.93l.01 53.4.01.08.01.07.06.2.03.07.02.07.04.07.03.07.08.12.05.07.04.06.05.05.05.06.06.06.06.05.05.05.07.05.06.05.07.04.06.05.07.04.08.04.07.04.07.03.24.1.16.04.1.02.08.02.36.04h.18l.1-.01.08-.01.18-.02.08-.02.1-.01.08-.03.08-.02.24-.1.07-.03.28-.16.07-.05.24-.2.05-.06.05-.05.1-.12.04-.06.04-.07.04-.06.04-.07.03-.06.03-.07.02-.07.03-.07v-.08l.02-.07.01-.07.01-.08.01-.07v-53.32l25.92-.01.34-.02.34-.03.33-.04.33-.05.32-.06.32-.07.3-.08.3-.1.3-.1.3-.1.3-.12.28-.13.28-.14.27-.15.27-.16.25-.16.25-.17.24-.18.23-.2.44-.4.4-.42.18-.22.18-.23.32-.48.14-.24.14-.25.12-.25.1-.26.18-.54.07-.27.06-.28.05-.28.04-.28.02-.28v-28l-.02-.3-.04-.28-.05-.28-.06-.28-.07-.27-.1-.27-.1-.26-.1-.26-.12-.26-.14-.25-.14-.24-.16-.24-.16-.23-.18-.23-.18-.22-.2-.22-.2-.2-.22-.2-.22-.2-.23-.2-.24-.18-.25-.18-.25-.16-.27-.16-.27-.14-.28-.14-.28-.13-.3-.13-.3-.1-.3-.1-.62-.18-.32-.07-.32-.06-.33-.05-.33-.04-.34-.03-.34-.02h-43.62zm61.83 3.74l-.1.01-.1.01-.1.01-.1.02-.1.03h-.1l-.08.03-.1.03-.08.04-.08.03-.08.04-.08.05-.07.04-.2.15-.07.06-.06.05-.06.06-.05.06-.06.07-.05.06-.05.07-.12.2-.06.14-.03.08-.04.16-.03.24.02 88.8v.08l.02.08.02.07.03.08.03.07.03.08.12.2.05.06.05.07.06.06.05.06.12.12.35.25.24.12.08.03.1.03.08.03.1.03.18.04.1.01.1.02h.1.1.2.1.1l.1-.02.1-.01.18-.04.18-.06.16-.06.24-.12.08-.05.07-.04.07-.05.06-.06.07-.05.18-.18.05-.06.05-.07.05-.06.12-.2.03-.08.03-.07.03-.08.02-.07.04-.16.01-.08v-.08l.01-.1-.06-88.88-.02-.08-.03-.08-.06-.14-.04-.08-.04-.07-.04-.06-.1-.14-.05-.06-.18-.18-.07-.05-.06-.05-.14-.1-.08-.05-.16-.08-.08-.03-.08-.04-.08-.03-.1-.03h-.1l-.1-.03-.1-.02-.1-.01-.1-.01-.1-.01h-.1-.2-.1z" id="DP"/><path d="M312.34 456.06l13.95-.08 20.35.12-.05-.23 148.45-.84c11.43-.28 19.75-.35 22.23-5.58 3.1-6.53 3.97-30.16 4.85-47.5h-14.04c-.02 20.15-.42 29.17-1.3 38.83-.75 8.2-5 11.27-14.27 11.7-29.58 1.4-101.12 1.54-146.36 1.36-.01-.04-.07-.34-.08-.38-.12.1-7.67.2-19.78.28l-13.95-.14v2.46" id="DQ"/><path d="M312.34 35.07l10.57-.3c33.48 1 85.12 1.42 110.7 3.93 2.72.27 6.98.54 8.27 3.02 1 1.9 1.96 4.42 2.38 4.53 4.82 1.2 54.92 8.33 60.17 9.97 3.73 1.18 30.6 8 33.43 9.9l-3.53-13.75c-7.53-3-23.92-12.15-34.5-15-31.73-8.56-67.02-9.84-100.95-13.5.5-6.3-2-8.94-7.46-7.96l-69.37.45-9.72-.03v18.74" id="DR"/><path d="M330.32 233.05l8.67.16 8.45.16 8.23.17 8.02.18 7.8.18 14.96.38 14.1.4 6.73.2 6.5.2 6.3.22 6.08.22 5.86.23 5.64.24 5.43.23 5.2.25 5 .25 4.78.25 4.57.26 4.34.26 4.14.27 3.9.28 3.7.28 3.5.28 3.26.3 3.05.3 2.84.3 2.62.3 2.4.3 2.2.3 1.98.33 1.75.32 1.54.33 1.33.34 1.1.34.9.35.67.35.57.37.56.38.55.4.54.42.53.43.53.45.52.46.5.48.5.48.5.5.5.52.48.52.47.53.46.54.45.55.45.56.44.57.43.57.42.58.4.58.4.6.4.6.4.6.38.6.74 1.2.35.6.35.6.34.6.34.6.32.6.32.58.3.58.3.58.3.57.56 1.12.27.55.26.54.25.53-15.35 5.57-.25-.37-.26-.4-.26-.4-.27-.42-.27-.44-.28-.45-.3-.46-.3-.47-.3-.48-.3-.5-.3-.5-.3-.5-.32-.5-.66-1-.68-1-.34-.5-.35-.5-.36-.48-.36-.47-.37-.46-.37-.45-.37-.44-.38-.42-.4-.4-.38-.4-.4-.37-.4-.35-.4-.33-.4-.3-.4-.28-.4-.26-.42-.23-.42-.2-.42-.17-.43-.14-.43-.1-.44-.07-.44-.04-4.13-.46-4.13-.45-4.15-.43-4.15-.42-4.17-.4-4.17-.38-4.17-.37-4.2-.36-4.2-.34-4.2-.33-4.2-.3-4.2-.3-4.2-.3-4.22-.28-4.22-.27-4.22-.26-8.46-.48-4.23-.23-4.23-.22-4.24-.2-4.24-.2-4.24-.2-8.48-.36-12.7-.5-12.7-.45-4.24-.14-4.23-.13-4.22-.14-8.45-.26-4.2-.12-4.2-.13-4.2-.12-4.2-.13-13.95.42v-12.65l9.1.15 8.88.16z" id="DS"/><path d="M312.34 255c57.08-.53 113.74 2.22 175.15 8.28 2.52 3.75 5.06 7.5 7.84 11.3-2.35 8.48-4.7 16.96-6.62 26.14-32.5-5.26-105.87-7.7-176.37-7.33V255" id="DT"/><path d="M339.63 297.4h3.74l11.22.1 7.48.08 7.48.1 11.2.18 3.73.07 7.47.16 11.2.27 7.46.2 3.72.1 3.73.12 3.72.1 3.72.13 3.72.12 3.72.14 3.72.13 3.7.14 7.42.3 11.13.48 3.7.17 14.8.73 3.7.2.7.07.68.08.67.08.66.1.64.1.63.12.6.12.6.13.58.14.57.15.56.15.54.17.52.17.5.18.5.2.48.2.92.42.43.22.43.24.4.24.4.25.38.26.36.26.35.28.34.28.32.3.3.3.3.3.27.32.26.32.25.34.23.34.22.35.2.36.2.37.17.38.16.38.15.4.13.4.67 4.28.64 4.2.6 4.12.56 4.03.53 3.97.48 3.9.46 3.8.42 3.74.4 3.68.36 3.6.33 3.54.3 3.47.27 3.4.25 3.34.23 3.28.2 3.23.17 3.16.16 3.1.13 3.05.12 3 .1 2.95.08 2.9.06 2.84.05 2.8.06 5.45.01 2.65v2.6l-.01 2.58-.04 5.02-.03 2.45-.04 2.42-.03 2.4-.05 2.35-.2 11.3-.2 1.56-.22 1.46-.22 1.37-.23 1.28-.25 1.2-.27 1.12-.28 1.03-.3.97-.32.88-.35.82-.37.76-.4.68-.42.63-.46.57-.5.5-.53.46-.56.4-.6.36-.63.32-.68.28-.72.24-.76.2-.8.17-.86.14-.9.12-.96.1-1 .07-1.06.06-1.12.04-1.18.03-1.24.02-1.3.01-1.36.02h-2.92l-1.57.02-1.63.03-1.7.04-1.78.06-1.85.07-.24.01-.7.03-.24.01-.46.02h-.24l-.7.03-.24.01-.23.01h-.23l-.24.01-.46.02h-.24l-.46.02h-.23-.24l-.23.01h-.23l-.24.01h-.23l-.23.01h-.24l-.23.01h-.23l-.23.01h-.24l-.23.01h-.23l-.24.01h-.23l-.23.01h-.23-.24-.23l-1.36-.45-1.45-.46-1.55-.47-1.65-.48-1.74-.5-1.84-.5-1.93-.52-2.03-.52-2.13-.54-2.22-.55-2.32-.56-2.42-.58-2.5-.58-2.6-.6-2.7-.6-2.8-.62-2.9-.63-3-.64-3.1-.65-3.18-.66-6.66-1.36-7.04-1.4-3.67-.72-3.76-.73-3.86-.74-8-1.52-12.73-2.36-18.33-3.3-9.74-1.72-10.13-1.76-1.73-1.77-1.64-1.82-1.57-1.9-1.48-1.95-1.4-2.02-1.32-2.1-1.24-2.15-1.16-2.2-1.08-2.28-1-2.34-.92-2.4-.83-2.47-.76-2.53-.67-2.6-.6-2.66-.5-2.73-.43-2.8-.35-2.85-.28-2.92-.2-2.98-.1-3.05-.03-3.1.05-3.17.12-3.24.2-3.3.3-3.37.36-3.43.45-3.5.52-3.56.6-3.63.7-3.68.76-3.75.84-3.82.9-3.88 1-3.94 1.08-4 1.15-4.07 1.23-4.14 1.32-4.2 1.38-4.26.14-.2.14-.18.13-.2.14-.2.13-.18.26-.38.13-.18.13-.2.13-.18.13-.2.12-.18.13-.18.12-.2.13-.18.24-.36.12-.2.36-.54.1-.18.12-.18.1-.18.12-.18.55-.9.1-.17.1-.18.1-.18.1-.18.1-.17.1-.18.1-.17.1-.18.1-.18.1-.17 7.5.02zm17.5 19.58l-.18.02h-.08l-.1.02-.08.02-.08.03-.1.02-.08.03-.07.03-.08.04-.08.03-.07.04-.07.05-.07.04-.07.05-.06.05-.07.05-.12.1-.05.06-.06.06-.1.12-.04.07-.05.07-.04.06-.04.07-.03.07-.03.08-.06.14-.04.16-.02.07-.02.16.02 101.2.02.07.04.16.03.07.03.08.06.14.08.14.05.06.04.07.1.12.06.06.05.06.06.05.06.06.07.05.06.05.07.04.07.05.14.08.08.04.08.03.07.03.08.03.1.03.16.04.1.02.08.01.27.03h.18l.1-.01h.1l.1-.02.08-.01.1-.02h.08l.1-.02.24-.1.07-.03.08-.04.14-.08.07-.05.07-.04.06-.05.07-.05.06-.06.06-.05.05-.06.06-.06.1-.12.04-.07.05-.06.08-.14.06-.14.03-.08.03-.07.02-.08.02-.07.02-.08.02-.16-.06-101.36-.02-.08-.03-.07-.03-.08-.06-.14-.08-.14-.05-.06-.04-.07-.1-.12-.06-.06-.05-.06-.12-.1-.07-.06-.06-.04-.07-.05-.07-.04-.07-.05-.07-.04-.08-.03-.07-.04-.16-.06-.08-.02-.1-.03-.08-.02-.1-.02h-.08l-.18-.02h-.1l-.1-.01-.1.01h-.1zm32.42 6.4l-.34.02-.33.03-.34.04-.32.05-.33.06-.32.07-.62.18-.3.1-.3.1-.3.13-.28.13-.28.14-.27.14-.52.32-.25.18-.24.18-.23.2-.22.2-.22.2-.2.2-.2.22-.18.22-.18.23-.16.23-.16.24-.14.24-.13.25-.12.26-.1.26-.1.26-.1.27-.07.27-.06.28-.05.28-.03.28-.02.3-.01.3v27.43l.01.3.02.28.03.28.05.28.06.28.07.27.1.27.1.27.1.26.12.25.13.25.14.24.32.48.18.23.18.22.4.42.44.4.23.2.24.18.25.17.52.32.27.15.28.14.28.13.3.12.3.1.3.1.3.1.3.08.32.07.33.06.32.05.34.04.33.03.34.02.35.01h12.93l.01 53.4.01.08.01.07.06.2.03.07.02.07.04.07.03.07.08.12.05.07.04.06.05.05.05.06.06.06.06.05.05.05.07.05.06.05.07.04.06.05.07.04.08.04.07.04.07.03.24.1.16.04.1.02.08.02.36.04h.18l.1-.01.08-.01.18-.02.08-.02.1-.01.08-.03.08-.02.24-.1.07-.03.28-.16.07-.05.24-.2.05-.06.05-.05.1-.12.04-.06.04-.07.04-.06.04-.07.03-.06.03-.07.02-.07.03-.07v-.08l.02-.07.01-.07.01-.08.01-.07v-53.32l25.92-.01.34-.02.34-.03.33-.04.33-.05.32-.06.32-.07.3-.08.3-.1.3-.1.3-.1.3-.12.28-.13.28-.14.27-.15.27-.16.25-.16.25-.17.24-.18.23-.2.44-.4.4-.42.18-.22.18-.23.32-.48.14-.24.14-.25.12-.25.1-.26.18-.54.07-.27.06-.28.05-.28.04-.28.02-.28v-28l-.02-.3-.04-.28-.05-.28-.06-.28-.07-.27-.1-.27-.1-.26-.1-.26-.12-.26-.14-.25-.14-.24-.16-.24-.16-.23-.18-.23-.18-.22-.2-.22-.2-.2-.22-.2-.22-.2-.23-.2-.24-.18-.25-.18-.25-.16-.27-.16-.27-.14-.28-.14-.28-.13-.3-.13-.3-.1-.3-.1-.62-.18-.32-.07-.32-.06-.33-.05-.33-.04-.34-.03-.34-.02h-43.62zm61.83 3.74l-.1.01-.1.01-.1.01-.1.02-.1.03h-.1l-.08.03-.1.03-.08.04-.08.03-.08.04-.08.05-.07.04-.2.15-.07.06-.06.05-.06.06-.05.06-.06.07-.05.06-.05.07-.12.2-.06.14-.03.08-.04.16-.03.24.02 88.8v.08l.02.08.02.07.03.08.03.07.03.08.12.2.05.06.05.07.06.06.05.06.12.12.35.25.24.12.08.03.1.03.08.03.1.03.18.04.1.01.1.02h.1.1.2.1.1l.1-.02.1-.01.18-.04.18-.06.16-.06.24-.12.08-.05.07-.04.07-.05.06-.06.07-.05.18-.18.05-.06.05-.07.05-.06.12-.2.03-.08.03-.07.03-.08.02-.07.04-.16.01-.08v-.08l.01-.1-.06-88.88-.02-.08-.03-.08-.06-.14-.04-.08-.04-.07-.04-.06-.1-.14-.05-.06-.18-.18-.07-.05-.06-.05-.14-.1-.08-.05-.16-.08-.08-.03-.08-.04-.08-.03-.1-.03h-.1l-.1-.03-.1-.02-.1-.01-.1-.01-.1-.01h-.1-.2-.1z" id="DU"/><path d="M312.34 255.02c57.08-.54 113.74 2.22 175.15 8.27 2.52 3.75 5.06 7.5 7.84 11.3-2.35 8.48-4.7 16.96-6.62 26.14-29.16-4.72-91.2-7.17-154.53-7.36 7.52-16.63.4-28.35-21.84-35.55v-2.8" id="DV"/><path d="M328.6 222.3h1.28.3l6.78.07 6.77.1 6.75.16 6.7.2 6.68.24 6.64.3 6.58.32 6.53.35 6.46.4 6.38.4 6.3.45 6.2.47 6.1.5 6 .52 5.9.54 5.77.55 5.65.57 5.5.6 5.36.6 5.2.6 5.05.6 4.9.62 4.7.62 4.53.62 4.34.62 4.14.62 3.94.6 3.73.6 3.5.6 3.28.6 3.03.57 2.8.56 2.55.53 2.28.52 2.02.5 1.75.47 1.46.45 1.17.42.88.4.57.36.37.32.35.34.33.38.33.4.3.43.3.45.3.48.27.5.27.52.25.53.24.56.24.57.23.58.22.6.2.6.2.62.2.64.2.64.2.65.38 1.32.54 2 .17.68.54 2 .18.66.2.66.18.65.2.64.4 1.26.2.6.2.6.22.58.22.57.24.55.24.54-15.35 5.57-.25-.37-.26-.4-.26-.4-.27-.42-.27-.44-.28-.45-.3-.46-.3-.47-.3-.48-.3-.5-.3-.5-.3-.5-.32-.5-.66-1-.68-1-.34-.5-.35-.5-.36-.48-.36-.47-.37-.46-.37-.45-.37-.44-.38-.42-.4-.4-.38-.4-.4-.37-.4-.35-.4-.33-.4-.3-.4-.28-.4-.26-.42-.23-.42-.2-.42-.17-.43-.14-.43-.1-.44-.07-.44-.04-4.13-.46-4.13-.45-4.15-.43-4.15-.42-4.17-.4-4.17-.38-4.17-.37-4.2-.36-4.2-.34-4.2-.33-4.2-.3-4.2-.3-4.2-.3-4.22-.28-4.22-.27-4.22-.26-8.46-.48-4.23-.23-4.23-.22-4.24-.2-4.24-.2-4.24-.2-8.48-.36-12.7-.5-12.7-.45-4.24-.14-4.23-.13-4.22-.14-8.45-.26-4.2-.12-4.2-.13-4.2-.12-4.2-.13-13.95.4v-22.9l3.44-.06h.54l1.6-.03h.52l1-.02h.5l.5-.01.48-.01h.47l.46-.01h.9l.44-.01h.44l.43-.01h1.24.4 2.92z" id="DW"/><path d="M540.92 83.27l.44 3.35.43 3.37.42 3.38.4 3.4.38 3.42.36 3.44.66 6.93.3 3.5.28 3.53.27 3.55.24 3.57.23 3.6.2 3.63.2 3.65.17 3.7.16 3.72.13 3.74.1 3.8.1 3.8.07 3.85.06 3.9.03 3.92.02 3.96v4l-.03 4.04-.04 4.08-.06 4.13-.08 4.17-.1 4.2-.12 4.26-.14 4.3-.17 4.35-.18 4.4-.2 4.45-.22 4.5-.5 9.16-.3 4.67-.6.9-.6.87-.6.85-.58.82-1.12 1.57-.55.76-.54.72-.53.7-.52.68-.5.66-.5.64-.5.6-.5.6-.48.57-.47.54-.47.52-.46.5-.46.48-.45.46-.45.43-.44.4-.43.4-.44.37-.43.34-.43.33-.42.3-.43.28-.42.26-.42.24-.42.22-.42.2-.42.18-.42.15-.42.13-.42.12-.42.1-.43.07-.42.05-.43.03-4.5-14.3-2.16-6.8-4.15-12.9-2-6.12-1.95-5.9-1.9-5.72-1.86-5.53-1.8-5.36-1.78-5.2-1.75-5.03-1.72-4.87-1.68-4.74-1.67-4.6-1.64-4.48-1.62-4.37-1.6-4.26-1.6-4.17-1.58-4.1-1.58-4-1.57-3.94-1.57-3.88-1.57-3.83-1.58-3.8-1.6-3.75-1.6-3.74-1.6-3.72-1.63-3.72-1.65-3.72-1.67-3.73-1.7-3.76-1.73-3.8-3.55-7.72-1.84-3.94-1.87-4-1.92-4.1-4-8.44 86.2 13.2.47 3.34z" id="DX"/><path d="M329.66 463.42l-9.2-102.7 9.2-148.67-13.96.1-23.53-.16c0 .01.01.08.01.2l-2-.17v.33l-45.8.01c-5.48-.98-7.97 1.68-7.47 7.96-41.92 4.53-75.22 1.7-103.9 10.8-7.98 2.52-10.7 2.83-17.67 6.1-8.18 3.84 4.03 12.7-1.57 19.28-1.3 1.53-16.65 6.1-17.53 7.87-6.52 13.16-5.07 36.43-5.07 51.94.08.27.45 1.64 1.13 4.1l-3.53 10.2-.4 121.47 7.48 6.67 3.9 4.68h229.92" id="DY"/><path d="M151.64 263.5c-7.33.9-12.24 1.4-15.73 6.4-.13.2-1.82 2.53-2.83 5.4-1.7 4.78-2.76 10.58-2.98 10.97 4.15 2.5 8.7 13.92 12 23.97.7-.26 4.85-6.4 5.97-7.1 1.12-.7 2.28-1.4 3.17-1.66-2.66-9.1-5.13-18.63-7.42-27.08.06-.46 5.68-7.72 7.8-10.9" id="DZ"/><path d="M203.4 331.45v24.86c0 3.5 3.36 6.38 7.46 6.38h38.38c4.1 0 7.47-2.87 7.47-6.38v-24.86c0-3.5-3.37-6.38-7.47-6.38h-38.38c-4.1 0-7.46 2.87-7.46 6.38" id="Da"/><path d="M124.02 289.5h.46.47l.47.01h.46l1.78.04.82.02.4.01h.36.34.3l.3.01.26.01.22.01.2.01.16.01h.1l.07.01h.03l.03.1.07.17.23.53.16.36.2.42.2.47.24.52.27.57.28.6.3.66.32.68.34.72.34.75.36.78.36.8.37.82.75 1.68.37.85 1.1 2.58.35.86.35.84.33.84.32.82.3.8.28.77.27.75.24.73.22.7.2.65.17.6.14.57.1.53.07.47.03.42v.36l-.05.3-.5 2.23-.5 2.43-.24 1.3-.47 2.73-.22 1.44-.23 1.5-.22 1.54-.22 1.6-.2 1.64-.2 1.7-.2 1.74-.2 1.8-.2 1.85-.2 1.9-.18 1.95-.2 2-.17 2.06-.18 2.1-.17 2.16-.16 2.22-.16 2.26-.16 2.33-.15 2.37-.28 4.9-.14 2.53-.13 2.6-.13 2.64-.12 2.7-.1 2.75-.12 2.8-.1 2.86-.2 5.87-.1 3.02-.16 6.2.32 1.04h-14.5l-.01-.22v-2l-.01-2v-3.96l-.01-1.96v-5.8l.01-1.9v-3.78l.08-12.83.02-1.78.01-1.78.02-1.76.03-1.76.02-1.74.15-8.55.16-6.65.15-4.9.06-1.6.05-1.6.12-3.17.07-1.58V328l-.02-.2-.04-.2-.06-.18-.07-.18-.1-.16-.1-.16-.12-.14-.13-.14-.14-.13-.16-.13-.16-.1-.17-.12-.18-.1-.2-.1-.2-.1-.2-.1-.2-.1-.2-.1-.2-.1-.2-.1-.2-.1-.2-.1-.4-.2-.18-.1-.2-.1-.18-.1-.32-.24-.15-.13-.14-.13-.13-.15-.1-.15-.1-.16-.08-.17-.07-.2-.05-.2-.03-.2v-.2-.8-.8-.84l.06-1.7.04-.87.05-.87.12-1.78.07-.9.07-.9.08-.9.1-.9.1-.9.1-.9.1-.9.1-.9.1-.9.22-1.8.12-.9.1-.88.12-.88.1-.87.24-1.7.1-.83.12-.83.1-.8.12-.8.1-.77.1-.76.1-.74.1-.72.1-.7.1-.68.1-.65.08-.64.08-.6.08-.58.03-.04.07-.04.1-.03.15-.03.2-.02.22-.02.26-.02.28-.02.32-.02.7-.02.38-.01h.4.42 1.78zm-2.7 1.85l-.15.01-.14.02-.1.04-.1.04-.05.05-.03.06-.13.64-.12.64-.12.65-.1.64-.22 1.3-.3 1.98-.1.67-.1.67-.08.67-.1.68-.08.68-.1.7-.08.7-.07.7-.08.7-.08.7-.07.7-.08.72-.07.72-.2 2.2-.08.75-.07.75-.07.76-.07.77-.08.78-.14 1.57-.24 2.42-.08.82-.08.84-.18 1.68-.1.86v.27.25l.04.24.05.23.1.2.1.2.12.2.14.2.16.18.17.17.18.16.2.16.2.15.22.15.46.28.24.14.25.13.25.14.25.13.25.14.25.13.48.28.24.15.23.15.22.15.22.16.2.17.2.17.18.18.16.2.14.2.13.2.1.22.1.23.07.25.04.26.02.27-.01.28-.07 1.18-.08 1.2-.07 1.25-.06 1.3-.07 1.32-.12 2.73-.05 1.4-.06 1.44-.05 1.46-.04 1.48-.05 1.5-.2 7.76-.2 11.22-.02 1.6-.03 1.6-.02 1.6-.03 1.6-.02 1.57-.03 1.56-.04 3.07-.03 1.5-.02 1.5-.03 1.47-.02 1.44-.03 1.42-.02 1.4-.06 2.7.04.26.06.52.08.48.03.24.05.22.04.22.08.42.15.57.1.34.06.16.05.16.12.28.07.13.06.13.14.22.14.2.08.08.07.08.08.07.1.06.08.06.18.08.18.06.2.02.1-.01.1-.01.22-.04h.6l.1-.01h.7l.1-.01h.3l.1-.01h.2l.1-.01h.1l.2-.02h.1.2.1l.6-.06.1-.02h.2l.1-.02.1-.01.2.01.2.01.2.01h.18l.18-.01.17-.01.17-.02.17-.03.15-.03.16-.04.14-.04.14-.05.14-.06.13-.06.24-.14.1-.08.1-.1.1-.1.1-.1.1-.1.16-.22.08-.13.06-.13.07-.13.05-.14.1-.3.04-.16.03-.16.03-.17.03-.18v-.18l.02-.18v-.6l-.01-.2v-.2l.04-1.48.03-1.5.04-1.5.05-1.52.04-1.54.05-1.56.18-4.77.14-3.27.08-1.65.1-1.68.08-1.7.1-1.7.2-3.47.36-5.34.13-1.8.14-1.83.3-3.72.16-1.88.17-1.9.18-1.92.18-1.94.4-3.93.2-2 .22-2 .23-2.03.24-2.05.24-2.07.26-2.08.27-2.1.27-2.12.3-2.14.3-2.16.02-.35v-.4l-.03-.45-.06-.5-.08-.55-.1-.58-.12-.62-.15-.66-.16-.68-.18-.72-.2-.74-.22-.76-.23-.78-.24-.8-.25-.8-.27-.8-.27-.82-.58-1.64-.6-1.62-.62-1.58-.3-.76-.3-.74-.3-.72-.3-.7-.3-.66-.3-.63-.3-.6-.3-.55-.28-.5-.27-.46-.26-.4-.25-.36-.23-.3-.23-.25-.2-.18-.2-.1-.18-.05-.03.06-.05.04-.1.04-.1.03-.13.02-.16.01-.17.01-.2-.01h-.22l-.23-.02h-.24l-.26-.02-.27-.03-.58-.06-.6-.08-.93-.12-.32-.04-.62-.08-.6-.08-.3-.03-.56-.06-.5-.04-.23-.01h-.4l-.18.01z" id="Db"/><path d="M95.76 363.7l.05 22.66c.02 3.43 2.55 6.22 5.64 6.2l4-.01-.24-5.95-.76.01c-2.7 0-4.9-2.05-4.92-4.56l-.04-17.57c-.01-2.04 1.45-3.17 3.44-3.52.26-.05.15-1.93.1-3.53l-1.67.01c-3.1.01-5.62 2.82-5.6 6.25" id="Dc"/><path d="M125.28 386.23l1.06-57.87c.18-3.83-4.63-3.65-4.36-7.2.84-11.22 1.2-20.05 2.36-28.38.13-.85 5.75 1.06 5.88.26 1.5.13 6.44 19.1 6.1 23.28-2.77 28.22-3.6 51.56-3.9 70.66.17 2.84-.68 4.2-2.56 3.93-.92.2-1.83.2-2.74.2-1.03.4-1.53-1.37-1.83-4.88" id="Dd"/><path d="M325.42 297.38l4.24.02-8.5 60.34 8.5 93.48-13.96-.08-4.04.02-1.94.02-12.45.07h-1.68l-4.98.03h-1.66l-1.67.01h-1.68-1.7-1.72-1.74-3.58l-1.85.01h-24.3l-2.7-.01h-8.7-3.12-6.4-1.6l-1.58.02-1.58.01-1.6.02-1.58.03h-1.6l-6.33.12-1.6.04-3.17.06-1.58.04-1.6.03-1.58.04-4.76.1-1.58.02-1.6.03-4.75.06-3.17.02h-4.76l-1.6-.01-3.17-.04-1.58-.03-3.18-.08-1.58-.05-5.03-.2-1.78-.06-1.7-.04-1.63-.03-1.57-.02h-2.92l-1.36-.02-1.3-.01-1.24-.02-1.17-.03-1.12-.04-1.07-.06-1-.07-.95-.1-.9-.12-.86-.14-.8-.17-.77-.2-.72-.24-.67-.28-.64-.32-.6-.36-.56-.4-.53-.46-.5-.5-.46-.57-.43-.63-.4-.68-.37-.76-.35-.82-.32-.88-.3-.97-.28-1.03-.26-1.12-.25-1.2-.24-1.28-.22-1.37-.2-1.46-.2-1.56-.12-6.7-.05-2.3-.16-9.48-.03-2.45-.04-5.02-.01-2.58v-2.6l.01-2.65.06-5.45.05-2.8.06-2.84.08-2.9.1-2.95.12-3 .13-3.05.16-3.1.17-3.16.2-3.23.23-3.28.25-3.34.27-3.4.3-3.47.33-3.54.36-3.6.4-3.68.42-3.74.45-3.8.5-3.9.53-3.97.56-4.03.6-4.12.64-4.2.67-4.28.13-.4.15-.4.16-.38.17-.38.2-.37.2-.36.2-.35.48-.68.54-.64.3-.3.3-.3.32-.3.34-.28.35-.28.36-.26.38-.26.4-.25.4-.24.42-.24.44-.22.45-.2.47-.2.48-.2.5-.2.5-.18.52-.17.54-.17.56-.15.57-.15.58-.14.6-.13.6-.12.63-.12.64-.1.66-.1.67-.08.68-.08.7-.07 8.37-.44 12.56-.6 4.2-.2 8.4-.36 4.2-.17 8.42-.32 8.42-.3 4.2-.14 8.43-.26 12.66-.35 8.45-.2 8.46-.18 4.23-.08 8.46-.14 8.46-.12 4.24-.05 12.7-.1 12.7-.06h12.7l4.24.01zm-40.92 19.6l-.18.02h-.08l-.1.02-.08.02-.1.03-.08.02-.08.03-.07.03-.08.04-.08.03-.07.04-.07.05-.07.04-.07.05-.06.04-.07.06-.12.1-.05.06-.06.06-.1.12-.04.07-.05.06-.04.07-.03.07-.04.07-.03.07-.03.08-.03.07-.04.16-.01.07v.08.08l-.01.08.01 101.05v.08l.01.08.02.07.02.08.03.07.03.08.03.07.04.07.03.07.04.07.05.06.04.07.1.12.06.06.05.06.06.05.06.06.07.05.06.05.07.04.07.05.14.08.08.04.08.03.07.03.16.06.1.02h.08l.1.02.08.01.1.02h.1l.1.01h.18l.27-.03.08-.01.1-.02h.08l.1-.02.24-.1.07-.03.08-.04.14-.08.07-.05.07-.04.06-.05.07-.05.06-.06.06-.05.05-.06.06-.06.1-.12.04-.07.05-.06.08-.14.06-.14.03-.08.03-.07.04-.16.02-.07.02-.16v-.08l.01-.1-.07-101.2-.02-.08-.06-.14-.03-.08-.03-.07-.04-.07-.04-.06-.05-.07-.04-.07-.1-.12-.06-.06-.05-.06-.12-.1-.07-.05-.06-.05-.07-.05-.07-.04-.07-.05-.07-.04-.08-.03-.07-.04-.16-.06-.08-.02-.1-.03-.08-.02-.1-.02h-.08l-.18-.02h-.1l-.1-.01-.1.01h-.1zm-75.68 6.4l-.34.02-.33.03-.34.04-.32.05-.33.06-.32.07-.62.18-.3.1-.3.1-.3.13-.28.13-.28.14-.27.14-.52.32-.25.18-.24.18-.23.2-.22.2-.22.2-.2.2-.2.22-.18.22-.18.23-.16.23-.16.24-.14.24-.13.25-.12.26-.1.26-.1.26-.1.27-.07.27-.06.28-.05.28-.03.28-.02.3-.01.3v27.43l.01.3.02.28.03.28.05.28.06.28.07.27.1.27.1.27.1.26.12.25.13.25.14.24.32.48.18.23.18.22.4.42.44.4.23.2.24.18.25.17.52.32.27.15.28.14.28.13.3.12.3.1.3.1.3.1.3.08.32.07.33.06.32.05.34.04.33.03.34.02.35.01h25.57l.01 53.4.01.08.01.07.02.07v.08l.02.07.03.07.02.07.04.06.03.07.04.06.04.07.04.06.1.12.16.16.12.1.07.05.06.05.28.16.08.03.07.03.16.06.08.02.1.03.08.01.08.02.36.04h.18l.1-.01.08-.01.18-.02.08-.02.1-.02.16-.04.24-.1.07-.03.07-.04.08-.04.06-.04.07-.05.07-.04.24-.2.1-.12.05-.05.05-.06.04-.07.08-.12.04-.07.06-.14.02-.07.03-.07v-.07l.02-.14.01-.08.01-.07v-53.32h12.94l.35-.01.34-.02.33-.03.33-.04.33-.05.32-.06.32-.07.32-.08.3-.1.3-.1.3-.1.3-.12.3-.13.28-.14.27-.15.52-.32.24-.17.24-.18.23-.2.23-.2.2-.2.2-.2.2-.2.2-.22.17-.23.17-.24.3-.48.13-.25.12-.25.1-.26.1-.27.1-.27.07-.27.06-.28.05-.28.03-.28.02-.28.01-.3-.01-27.72-.02-.3-.03-.28-.05-.28-.06-.28-.07-.27-.1-.27-.1-.26-.1-.26-.12-.26-.13-.25-.3-.48-.34-.46-.38-.44-.2-.2-.2-.2-.46-.38-.48-.36-.52-.32-.27-.14-.28-.14-.58-.26-.3-.1-.3-.1-.3-.1-.32-.1-.32-.07-.32-.06-.33-.05-.33-.04-.33-.03-.34-.02h-43.62zm-18.6 3.74l-.1.01-.1.01-.1.01-.1.02-.1.03h-.1l-.1.03-.08.03-.1.04-.08.03-.08.04-.07.04-.08.05-.2.15-.06.05-.18.18-.05.06-.1.14-.04.06-.04.07-.04.08-.06.14-.03.08-.04.16-.02.07-.01.1.01 88.9.04.16.02.07.03.08.03.07.03.08.12.2.05.06.05.07.05.06.18.18.06.05.07.06.07.05.07.04.08.05.07.04.16.08.1.03.08.03.18.06.18.04.1.01.1.02h.1.1.2.1.1l.1-.02.1-.01.18-.04.1-.03.08-.03.1-.03.08-.03.24-.12.07-.05.08-.05.07-.05.06-.05.07-.05.18-.18.05-.06.05-.07.05-.06.12-.2.03-.08.03-.07.03-.08.02-.07.04-.16.01-.08-.05-89.05-.02-.08-.03-.08-.06-.14-.12-.2-.05-.07-.05-.06-.05-.07-.12-.12-.06-.05-.07-.06-.06-.05-.07-.05-.08-.05-.07-.04-.08-.05-.08-.04-.08-.03-.08-.04-.1-.03-.08-.03h-.1l-.1-.03-.1-.02-.1-.01-.1-.01-.1-.01h-.1-.2-.1z" id="De"/><path d="M329.66 456.06l-13.96-.08-20.34.12.05-.23-148.44-.84c-11.44-.28-19.76-.35-22.24-5.58-3.1-6.53-3.97-30.16-4.85-47.5h14.04c.02 20.15.4 29.17 1.3 38.83.75 8.2 5 11.27 14.27 11.7 29.6 1.4 101.12 1.54 146.36 1.36.01-.04.07-.34.08-.38.12.1 7.67.2 19.78.28l13.95-.14v2.46" id="Df"/><path d="M329.66 35.07l-10.57-.3c-33.48 1-85.12 1.42-110.7 3.93-2.72.27-6.98.54-8.26 3.02-1 1.9-1.97 4.42-2.4 4.53-4.8 1.2-54.9 8.33-60.15 9.97-3.73 1.18-30.6 8-33.43 9.9l3.53-13.75c7.54-3 23.92-12.15 34.5-15 31.73-8.56 67.02-9.84 100.94-13.5-.5-6.3 2-8.94 7.47-7.96l69.1.45h.26l9.73-.03v18.74" id="Dg"/><path d="M315.7 244.97l-4.2.13-4.2.12-4.2.13-4.2.12-8.45.26-4.22.14-4.23.13-4.24.14-16.95.6-8.48.34-8.48.36-4.24.2-4.23.2-4.24.2-4.24.22-4.23.23-8.45.48-4.23.26-4.22.27-4.2.28-4.22.3-4.2.3-4.2.3-4.2.33-4.2.34-4.18.36-4.18.37-4.17.38-4.16.4-4.16.42-4.14.43-4.14.45-4.13.46-.44.04-.44.07-.43.1-.42.14-.43.17-.42.2-.42.23-.4.26-.4.28-.4.3-.4.33-.4.35-.4.37-.4.4-.4.4-.38.42-.37.44-.37.45-.37.46-.36.47-.35.48-.7.98-.34.5-1 1.5-.32.5-.3.5-.3.5-.3.5-.3.48-.3.47-.3.46-.28.45-.27.44-.27.42-.26.4-.26.4-.25.37-15.36-5.57.25-.53.26-.54.27-.55.56-1.12.3-.57.3-.58.62-1.16.33-.6.33-.6.34-.6.35-.6.36-.6.36-.6.38-.6.38-.6.4-.6.8-1.18.84-1.16.43-.57.44-.57.44-.56.46-.55.46-.54.47-.53.96-1.04.5-.5.5-.48.5-.48.52-.46.53-.45.53-.43.54-.42.55-.4.56-.38.57-.37.68-.35.9-.35 1.1-.34 1.32-.34 1.54-.33 1.76-.32 1.97-.33 2.2-.3 2.4-.3 2.62-.3 2.84-.3 3.05-.3 3.27-.3 3.48-.28 3.7-.28 3.92-.28 4.13-.27 4.35-.26 4.56-.26 4.78-.25 5-.25 5.2-.25 11.07-.47 5.86-.23 12.37-.44 13.23-.42 6.94-.2 7.15-.2 7.37-.2 7.6-.2 15.82-.36 8.23-.17 17.12-.32 8.88-.16 9.1-.15v12.65l-13.95-.42z" id="Dh"/><path d="M329.66 255c-57.08-.53-113.74 2.22-175.14 8.28l-7.85 11.3c2.35 8.48 4.7 16.96 6.63 26.14 32.5-5.26 105.87-7.7 176.36-7.33V255" id="Di"/><path d="M314.8 222.3h1.52.4 1.23l.43.01h.44l.44.01h.9l.46.01h.47l.97.02h.5l1 .02h.5l1.6.03h.54l2.85.05.6.01v22.9l-13.95-.4-4.2.13-4.2.12-4.2.13-4.2.12-8.45.26-4.22.14-4.23.13-4.24.14-16.95.6-8.48.34-8.48.36-4.24.2-4.23.2-4.24.2-4.24.22-4.23.23-8.45.48-4.23.26-4.22.27-4.2.28-4.22.3-4.2.3-4.2.3-4.2.33-4.2.34-4.18.36-4.18.37-4.17.38-4.16.4-4.16.42-4.14.43-4.14.45-4.13.46-.44.04-.44.07-.43.1-.42.14-.43.17-.42.2-.42.23-.4.26-.4.28-.4.3-.4.33-.4.35-.4.37-.4.4-.4.4-.38.42-.37.44-.37.45-.37.46-.36.47-.35.48-.7.98-.34.5-1 1.5-.32.5-.3.5-.3.5-.3.5-.3.48-.3.47-.3.46-.28.45-.27.44-.27.42-.26.4-.26.4-.25.37-15.36-5.57.25-.54.23-.55.23-.57.22-.58.2-.6.2-.6.2-.63.2-.63.2-.64.2-.65.18-.66.2-.66.36-1.34.17-.67.18-.68.54-2 .2-.66.18-.66.2-.65.2-.64.2-.64.2-.62.2-.6.22-.6.23-.58.23-.57.25-.56.25-.53.26-.52.28-.5.28-.48.3-.45.3-.43.32-.4.34-.38.35-.34.36-.32.57-.36.88-.4 1.18-.42 1.46-.45 1.74-.47 2.02-.5 2.3-.52 2.55-.53 2.8-.56 3.04-.57 3.28-.6 3.5-.6 3.73-.6 3.93-.6 4.15-.62 4.34-.62 4.53-.62 4.7-.62 4.88-.62 5.06-.6 5.2-.6 5.36-.6 5.5-.6 5.65-.57 5.77-.55 5.9-.54 6-.52 6.1-.5 6.2-.47 6.3-.45 6.38-.4 6.46-.4 6.53-.35 6.58-.32 6.64-.3 6.68-.24 6.7-.2 6.75-.16 6.77-.1 6.78-.07h.3 2.68z" id="Dj"/><path d="M101.86 78.5c.17-1.13 1.88-7.7 2.04-8.8 3.83-6.44 48.1-14.96 92.7-21.67-1.95 3.12-3.92 7.6-8.16 16.1L101.86 78.5" id="Dk"/><path d="M116.56 252.74c-5.73-.27-10.7-5.95-18.97-18.02-3.97-62.57-2.37-110.35 3.96-154.8l86.2-13.2c-27.94 59.08-56.46 128.26-71.2 186" id="Dl"/><path d="M433.92 58.54l14.65 2.44.8 1.76.88 1.9 1.98 4.17 2.26 4.7 1.22 2.55 1.3 2.7 1.34 2.82 1.4 2.95 1.45 3.1 1.5 3.23 1.56 3.36 1.6 3.5 1.66 3.64 1.7 3.76 1.74 3.9 1.78 4.04 1.82 4.18 1.84 4.32 1.9 4.46 1.9 4.6 1.94 4.73 1.96 4.88 2 5 2 5.16 2.03 5.3 2.05 5.44 2.06 5.58 2.07 5.72 2.1 5.86 2.1 6 2.1 6.15 2.1 6.3 2.1 6.44 2.1 6.58 2.1 6.72 2.1 6.87 2.08 7 2.07 7.16-2.82-.5-3-.5-3.2-.53-3.36-.55-3.53-.57-7.53-1.18-4-.6-4.14-.62-4.26-.62-4.4-.63-4.52-.64-9.4-1.27-4.86-.64-4.96-.63-5.04-.63-10.36-1.24-10.65-1.2-5.42-.58-5.48-.56-5.53-.55-5.57-.53-5.6-.5-5.64-.5-5.67-.46-5.7-.44-5.7-.4-5.7-.4-5.7-.35-5.7-.32-5.7-.28-5.68-.25-5.66-.2-5.62-.17-5.6-.13-5.55-.1-5.5-.04-5.5.04-5.54.1-5.58.13-5.6.17-5.63.2-5.65.25-5.66.28-5.66.32-5.66.36-5.66.38-5.65.4-5.63.44-5.6.47-5.58.5-5.54.5-5.5.53-5.46.55-5.4.57-5.36.58-5.28.6-5.22.6-5.15.62-5.06.62-4.98.63-9.68 1.27-4.68.64-4.58.64-4.46.64-4.35.63-4.2.62-4.1.62-7.75 1.2-3.65.58-3.5.57-3.34.55-6.17 1.05-2.83.5 1.4-5.92 1.45-5.9 1.52-5.88 1.6-5.85 1.64-5.82 1.7-5.77 1.75-5.74 1.8-5.7 1.84-5.63 1.87-5.58 1.9-5.52 1.93-5.45 1.95-5.38 1.97-5.3 1.98-5.23 2-5.14 2-5.06 2-4.96 2-4.87 1.98-4.77 1.97-4.66 1.95-4.55 1.92-4.43 1.9-4.32 1.86-4.2 1.83-4.06 1.78-3.93 1.74-3.8 1.7-3.65 1.63-3.5 1.57-3.35 2.94-6.24L186 74.5l4.62-9.75.92-1.98.82-1.8 14.65-2.44 105-2.7v-.44l8.45.22 8.45-.22.01.44 105 2.7zm-20.7 9.2l2.44 13.33 3.1 16.6 1.9 9.93 2.56 13.2 3.9 19.77.66 3.3.67 3.3.66 3.3.67 3.28 2 9.86.68 3.28.67 3.28.7 3.28 1.36 6.57 2.77 13.12.17.65.15.62.13.6.1.6.08.56.05.54.03.5v.5l-.02.47-.05.45-.07.43-.1.4-.12.4-.14.37-.17.34-.2.32-.2.3-.25.28-.26.26-.3.24-.3.22-.34.2-.37.18-.4.15-.4.14-.44.1-.47.1-.5.07-.5.05-.54.03-.56.01-.6-.01-.6-.03-.63-.05-.67-.07-.68-.1-.7-.12-.74-.13-.75-.15-.8-.17-3.1-.3-3.06-.3-3.02-.3-11.73-1.1-2.84-.25-2.8-.26-10.87-.94-2.62-.2-2.6-.22-2.56-.2-2.52-.2-2.48-.2-2.46-.18-2.4-.18-2.4-.17-4.65-.32-2.28-.15-4.45-.28-4.3-.24-2.1-.12-4.1-.2-2-.1-1.96-.08-1.93-.08-3.76-.12-3.62-.1-1.76-.03-1.72-.03h-.3l-.28.01h-.27l-.28.01h-.27-.27-.27l-.26.01h-.26l-.77.03h-.25l-.5.02-.24.01h-.24l-.24.01-.92.04h-.22l-.87.04-.42.02-.8.04-.2.01-.2.01-.18.01-.2.01-.54.03-.54-.03-.76-.04-1.22-.06-.22-.01-.2-.01-.44-.02h-.23l-.22-.01-.23-.01h-.24-.23l-.24-.01h-.24l-.24-.01-.25-.01-.24-.01h-.26l-.5-.02-.26-.01h-.26l-.26-.01h-.27-.27l-.55-.02h-.27l-.28-.01h-.3l-3.48.06-3.62.1-1.86.06-1.9.06-1.93.08-1.97.08-2 .1-4.1.2-6.4.36-2.2.14-2.24.14-2.27.15-4.66.32-2.38.17-2.42.18-2.45.18-2.5.2-2.52.2-2.56.2-2.6.22-2.63.2-2.66.23-2.7.23-2.74.24-2.77.24-2.8.26-2.84.25-2.88.27-2.9.27-2.95.28-3 .28-6.08.58-3.1.3-.8.17-.76.15-.73.13-.7.12-.7.1-.66.07-.63.05-.6.03-.6.01-.56-.01-.54-.03-.5-.05-.5-.07-.46-.1-.44-.1-.42-.14-.4-.15-.36-.18-.34-.2-.32-.22-.3-.24-.27-.26-.24-.28-.22-.3-.2-.32-.17-.34-.14-.37-.12-.4-.1-.4-.07-.43-.04-.45-.02-.47v-.5l.03-.5.05-.54.08-.56.1-.6.13-.6.15-.62.17-.65.7-3.28 2.07-9.84.68-3.28 3.4-16.42 2-9.85.66-3.3.67-3.3.66-3.3.65-3.3.66-3.3 1.95-9.9.64-3.3.65-3.3.64-3.3.64-3.3.63-3.3.64-3.3 1.26-6.62.62-3.32.63-3.32 1.24-6.64.6-3.32.62-3.33 1.22-6.67.6-3.33.6-3.34.6-3.35-.77 3.4-.78 3.4-3.85 16.94-.78 3.4-4.62 20.33-.78 3.4-5.4 23.72-.78 3.4-3.85 16.95-.78 3.38-4.62 20.34-.78 3.4-.77 3.38-2.3 10.17-.05.58-.01.56v.54l.03.52.05.5.08.48.1.47.12.45.15.43.17.4.2.4.22.38.24.35.27.34.3.32.3.3.34.28.36.27.4.24.4.23.44.2.45.2.5.17.5.15.53.14.56.1.57.1.6.07.62.06.65.04h.67l.7.01.72-.02.75-.03.77-.05.8-.08.82-.08.84-.1.86-.13.9-.15 2.74-.32 2.73-.3 5.45-.6 5.43-.56 5.4-.54 5.4-.5 2.7-.24 2.7-.23 5.35-.44 8-.6 5.3-.36 2.64-.17 5.26-.32 2.62-.14 2.6-.15 5.2-.26 2.6-.12 2.58-.1 7.7-.3 5.1-.16 5.07-.14 2.52-.06 5-.1 2.5-.04 2.48-.03.45-.07.44.07 2.48.03 2.5.04 5.02.1 2.52.06 5.06.14 5.1.16 7.7.3 2.6.1 2.6.12 5.2.26 2.6.15 2.62.14 5.26.32 2.64.17 5.3.36 8 .6 5.35.44 2.7.23 2.7.24 2.7.25 2.7.25 5.42.54 5.43.56 5.45.6 2.73.3 2.74.32.9.15.86.13.84.1.82.08.8.08.77.05.75.03.72.02.7-.01h.68l.65-.04.62-.06.6-.07.58-.1.56-.1.53-.14.5-.15.48-.17.46-.2.44-.2.4-.23.38-.24.37-.27.33-.28.32-.3.3-.32.27-.34.24-.35.22-.38.2-.4.17-.4.15-.43.12-.45.1-.47.08-.48.05-.5.03-.52v-.54l-.02-.56-.04-.58-1.54-6.78-.78-3.4-.77-3.38-3.85-16.95-.78-3.4-4.62-20.33-.78-3.4-4.62-20.33-.78-3.4-4.62-20.33-.78-3.4-3.85-16.94-.78-3.4-2.3-10.17.6 3.35.6 3.34z" id="Dm"/><path d="M323.5 55.54l-.28 1.25-.26 1.25-.25 1.24-.24 1.24-.22 1.23-.2 1.22-.2 1.22-.18 1.2-.17 1.2-.16 1.2-.14 1.2-.13 1.2-.1 1.2-.1 1.18-.1 1.17-.07 1.17-.06 1.16-.05 1.16-.03 1.15-.02 1.15v1.14l.01 1.13.02 1.13.04 1.13.05 1.12.07 1.1.08 1.1.1 1.1.1 1.1.12 1.1.14 1.08.15 1.08.16 1.08.18 1.06.2 1.07.2 1.05.22 1.06.23 1.04.25 1.04.26 1.04.1 2.67.1 2.65.1 2.63.1 2.62.1 2.6.1 2.6.1 2.57.2 5.1.1 2.53.1 2.5.1 2.5.1 2.48.1 2.46.1 2.44.1 2.43.1 2.4.1 2.4.1 2.38.1 2.37.2 4.7.1 2.3.1 2.3.1 2.28.1 2.28.1 2.25.1 2.24.1 2.23.1 2.2.1 2.2.1 2.18.1 2.16.2 4.27.1 2.12.1 2.1.1 2.1.1 2.06.1 2.05-.2.01-.2.01h-.2l-.2.01h-.2l-.2.01h-.2l-.2.01-.18.01h-.2l-.2.01h-.18-.18-.2-.17l-.36.02h-.17l-.34.02h-.17l-.34.02-.16.01h-.16l-.48.03h-.16l-.45.03h-.15l-.3.02-.42.03h-.14-.14l-.54-.03-.76-.04-1.22-.06-.22-.01-.2-.01-.44-.02h-.23l-.22-.01-.23-.01h-.24-.23l-.24-.01h-.24l-.24-.01-.25-.01-.24-.01h-.26l-.5-.02-.26-.01h-.26l-.26-.01h-.27-.27l-.55-.02h-.27l-.28-.01h-.3l-3.48.06-3.62.1-1.86.06-1.9.06-1.93.08-1.97.08-2 .1-4.1.2-6.4.36-2.2.14-2.24.14-2.27.15-4.66.32-2.38.17-2.42.18-2.45.18-2.5.2-2.52.2-2.56.2-2.6.22-2.63.2-2.66.23-2.7.23-2.74.24-2.77.24-2.8.26-2.84.25-2.88.27-2.9.27-2.95.28-3 .28-6.08.58-3.1.3-.8.17-.76.15-.73.13-.7.12-.7.1-.66.07-.63.05-.6.03-.6.01-.56-.01-.54-.03-.5-.05-.5-.07-.46-.1-.44-.1-.42-.14-.4-.15-.36-.18-.34-.2-.32-.22-.3-.24-.27-.26-.24-.28-.22-.3-.2-.32-.17-.34-.14-.37-.12-.4-.1-.4-.07-.43-.04-.45-.02-.47v-.5l.03-.5.05-.54.08-.56.1-.6.13-.6.15-.62.17-.65.7-3.28 2.07-9.84.68-3.28 3.4-16.42 2-9.85.66-3.3.67-3.3.66-3.3.65-3.3.66-3.3 1.95-9.9.64-3.3.65-3.3.64-3.3.64-3.3.63-3.3.64-3.3 1.26-6.62.62-3.32.63-3.32 1.24-6.64.6-3.32.62-3.33 1.22-6.67.6-3.33.6-3.34.6-3.35-.77 3.4-.78 3.4-3.85 16.94-.78 3.4-4.62 20.33-.78 3.4-5.4 23.72-.78 3.4-3.85 16.95-.78 3.38-4.62 20.34-.78 3.4-.77 3.38-2.3 10.17-.05.58-.01.56v.54l.03.52.05.5.08.48.1.47.12.45.15.43.17.4.2.4.22.38.24.35.27.34.3.32.3.3.34.28.36.27.4.24.4.23.44.2.45.2.5.17.5.15.53.14.56.1.57.1.6.07.62.06.65.04h.67l.7.01.72-.02.75-.03.77-.05.8-.08.82-.08.84-.1.86-.13.9-.15 2.74-.32 2.73-.3 5.45-.6 5.43-.56 5.4-.54 5.4-.5 2.7-.24 2.7-.23 5.35-.44 8-.6 5.3-.36 2.64-.17 5.26-.32 2.62-.14 2.6-.15 5.2-.26 2.6-.12 2.58-.1 7.7-.3 5.1-.16 5.07-.14 2.52-.06 5-.1 2.5-.04 2.48-.03.45-.07.44.07h.48l.17.01h.64l.17.01h.48.17.48.17.48l.17.01h.5l.16.01h.32l.17.01h.5l.16.01h.33l.16.01h.32l.17.01h.32l.06 1.02.02.5.06 1.02.02.5.06 1 .02.5.06 1 .02.5.06 1 .02.5.06 1 .02.5.03.5.03.5.02.5.06.98.02.5.03.5.03.48.02.5.06.96.02.5.06.96.02.48.03.47.03.48.02.48.03.47.02.48.06.94h-.4l-.2-.01h-.4l-.2-.01h-.6l-.2-.01h-.6-.2-.8-.2-.8l-.2-.01h-1.2l-.2-.01h-1.8l-5.5.04-5.54.1-5.58.13-5.6.17-5.63.2-5.65.25-5.66.28-5.66.32-5.66.36-5.66.38-5.65.4-5.63.44-5.6.47-5.58.5-5.54.5-5.5.53-5.46.55-5.4.57-5.36.58-5.28.6-5.22.6-5.15.62-5.06.62-4.98.63-9.68 1.27-4.68.64-4.58.64-4.46.64-4.35.63-4.2.62-4.1.62-7.75 1.2-3.65.58-3.5.57-3.34.55-6.17 1.05-2.83.5 1.4-5.92 1.45-5.9 1.52-5.88 1.6-5.85 1.64-5.82 1.7-5.77 1.75-5.74 1.8-5.7 1.84-5.63 1.87-5.58 1.9-5.52 1.93-5.45 1.95-5.38 1.97-5.3 1.98-5.23 2-5.14 2-5.06 2-4.96 2-4.87 1.98-4.77 1.97-4.66 1.95-4.55 1.92-4.43 1.9-4.32 1.86-4.2 1.83-4.06 1.78-3.93 1.74-3.8 1.7-3.65 1.63-3.5 1.57-3.35 2.94-6.24L186 74.5l4.62-9.75.92-1.98.82-1.8 14.65-2.44 105-2.7v-.44l8.45.22 3.02-.08z" id="Dn"/><path d="M116.56 252.74c-5.73-.27-10.7-5.95-18.97-18.02-3.97-62.57-2.37-110.35 3.96-154.8l3.34-.5c-6.38 54.5-5.86 95.8 1.57 123.86 6.67 18.9 14.56 19.68 23.66 1.53a12.39 12.39 0 0 1 .99-.56c-5.65 16.7-10.6 33-14.55 48.5" id="Do"/><path d="M55.55 1246.1v11.82c0 6.5 4.75 11.82 10.57 11.82h515.16c5.8 0 10.56-5.3 10.56-11.82v-11.82H55.55" id="Dp"/><path d="M56.07 502.12v-16.54c0-6.5 4.75-11.82 10.56-11.82h514.13c5.8 0 10.56 5.3 10.56 11.82v16.54H56.07" id="Dq"/><path d="M55.55 505.12v736.6h536.28v-736.6H55.55" id="Dr"/><path d="M331.02 468.97h1.96v-12.4H314.4v12.4h16.6" id="Ds"/><path d="M418.98 1241.73h172.85v-736.6H282.35c-14.9 98.6 1.18 195.37 48.27 290.3 74.34 128.83 104.38 278.26 88.36 446.3" id="Dt"/><path d="M639.95 300.23l-1.1 5.06c-.3 1.4-1.9 2.33-3.56 2.07l-43.6-6.75c-1.65-.25-2.75-1.6-2.45-3l1.1-5.07c.3-1.4 1.9-2.33 3.56-2.07l43.6 6.75c1.65.25 2.76 1.6 2.46 3" id="Du"/><path d="M624.85 290.47c0 3.25-3.42 5.88-7.64 5.88-4.2 0-7.62-2.63-7.62-5.88 0-3.24 3.4-5.88 7.62-5.88 4.22 0 7.64 2.64 7.64 5.88" id="Dv"/><path d="M537.64 272.1v11.75h-17.87V272.1h17.87" id="Dw"/><path d="M613.47 289.24c-.23.9-1.32 1.47-2.44 1.3l-74.5-11.94c-1.12-.18-1.85-1.05-1.63-1.94s1.33-1.48 2.45-1.3l74.5 11.94c1.1.18 1.84 1.06 1.62 1.95" id="Dx"/><path d="M619.26 290.58c-.1.94-1.6 1.94-3.33 2.23l-114.75 18.97c-1.73.28-3.04-.25-2.94-1.2.1-.94 1.6-1.94 3.33-2.23l114.75-18.97c1.72-.3 3.04.25 2.94 1.2" id="Dy"/><path d="M.05 301.92l1.1 5.06c.3 1.4 1.9 2.33 3.56 2.07l43.6-6.74c1.65-.26 2.76-1.6 2.45-3l-1.1-5.06c-.3-1.4-1.9-2.33-3.56-2.07l-43.6 6.75c-1.65.26-2.76 1.6-2.45 3" id="Dz"/><path d="M15.14 292.16c0 3.25 3.43 5.88 7.64 5.88s7.63-2.63 7.63-5.88c0-3.24-3.42-5.87-7.63-5.87s-7.64 2.63-7.64 5.87" id="EA"/><path d="M102.35 273.8v11.75h17.87V273.8h-17.87" id="EB"/><path d="M26.52 290.93c.23.9 1.32 1.47 2.44 1.3l74.5-11.94c1.13-.18 1.86-1.05 1.63-1.94-.22-.9-1.33-1.48-2.44-1.3l-74.5 11.94c-1.1.18-1.84 1.06-1.62 1.95" id="EC"/><path d="M20.74 292.27c.1.94 1.6 1.94 3.32 2.23l114.75 18.97c1.73.28 3.05-.26 2.94-1.2s-1.6-1.94-3.32-2.23L23.68 291.07c-1.73-.28-3.05.25-2.94 1.2" id="ED"/></defs><use xlink:href="#A" class="F"/><use xlink:href="#A" class="B C D"/><use xlink:href="#B" class="E"/><use xlink:href="#B" class="B C D"/><use xlink:href="#C" class="F"/><use xlink:href="#C" class="B C D"/><use xlink:href="#D" class="F"/><use xlink:href="#D" class="B C D"/><use xlink:href="#E" class="F"/><use xlink:href="#E" class="B C D"/><use xlink:href="#F" class="F"/><use xlink:href="#F" class="B C D"/><use xlink:href="#G" class="J"/><use xlink:href="#G" class="B C D"/><use xlink:href="#H" class="F"/><use xlink:href="#H" class="B C D"/><use xlink:href="#I" class="F"/><use xlink:href="#I" class="B C D"/><use xlink:href="#J" class="I"/><use xlink:href="#J" class="B C D"/><use xlink:href="#K" class="I"/><use xlink:href="#K" class="B C D"/><use xlink:href="#L" class="I"/><use xlink:href="#L" class="B C D"/><use xlink:href="#M" class="I"/><use xlink:href="#M" class="B C D"/><use xlink:href="#N" class="I"/><use xlink:href="#N" class="B C D"/><use xlink:href="#O" class="F"/><use xlink:href="#O" class="B C D"/><use xlink:href="#P" class="F"/><use xlink:href="#P" class="B C D"/><use xlink:href="#Q" class="J"/><use xlink:href="#Q" class="B C D"/><use xlink:href="#R" class="J"/><use xlink:href="#R" class="B C D"/><use xlink:href="#S" class="J"/><use xlink:href="#S" class="B C D"/><use xlink:href="#T" class="J"/><use xlink:href="#T" class="B C D"/><use xlink:href="#U" class="E"/><use xlink:href="#U" class="B C D"/><use xlink:href="#V" class="E"/><use xlink:href="#V" class="B C D"/><use xlink:href="#W" class="E"/><use xlink:href="#W" class="B C D"/><use xlink:href="#X" class="E"/><use xlink:href="#X" class="B C D"/><use xlink:href="#Y" class="E"/><use xlink:href="#Y" class="B C D"/><use xlink:href="#Z" class="E"/><use xlink:href="#Z" class="B C D"/><use xlink:href="#a" class="E"/><use xlink:href="#a" class="B C D"/><use xlink:href="#b" class="E"/><use xlink:href="#b" class="B C D"/><use xlink:href="#c" class="E"/><use xlink:href="#c" class="B C D"/><use xlink:href="#d" class="E"/><use xlink:href="#d" class="B C D"/><use xlink:href="#e" class="E"/><use xlink:href="#e" class="B C D"/><use xlink:href="#f" class="E"/><use xlink:href="#f" class="B C D"/><use xlink:href="#g" class="E"/><use xlink:href="#g" class="B C D"/><use xlink:href="#h" class="E"/><use xlink:href="#h" class="B C D"/><use xlink:href="#i" class="E"/><use xlink:href="#i" class="B C D"/><use xlink:href="#j" class="J"/><use xlink:href="#j" class="B C D"/><use xlink:href="#k" class="J"/><use xlink:href="#k" class="B C D"/><use xlink:href="#l" class="E"/><use xlink:href="#l" class="B C D"/><use xlink:href="#m" class="E"/><use xlink:href="#m" class="B C D"/><use xlink:href="#n" class="E"/><use xlink:href="#n" class="B C D"/><use xlink:href="#o" class="E"/><use xlink:href="#o" class="B C D"/><use xlink:href="#p" class="E"/><use xlink:href="#p" class="B C D"/><use xlink:href="#q" class="E"/><use xlink:href="#q" class="B C D"/><use xlink:href="#r" class="E"/><use xlink:href="#r" class="B C D"/><use xlink:href="#s" class="E"/><use xlink:href="#s" class="B C D"/><use xlink:href="#t" class="E"/><use xlink:href="#t" class="B C D"/><use xlink:href="#u" class="E"/><use xlink:href="#u" class="B C D"/><use xlink:href="#v" class="E"/><use xlink:href="#v" class="B C D"/><use xlink:href="#w" class="E"/><use xlink:href="#w" class="B C D"/><use xlink:href="#x" class="E"/><use xlink:href="#x" class="B C D"/><use xlink:href="#y" class="J"/><use xlink:href="#y" class="B C D"/><use xlink:href="#z" class="E"/><use xlink:href="#z" class="B C D"/><use xlink:href="#AA" class="E"/><use xlink:href="#AA" class="B C D"/><use xlink:href="#AB" class="E"/><use xlink:href="#AB" class="B C D"/><use xlink:href="#AC" class="E"/><use xlink:href="#AC" class="B C D"/><use xlink:href="#AD" class="J"/><use xlink:href="#AD" class="B C D"/><use xlink:href="#AE" class="J"/><use xlink:href="#AE" class="B C D"/><use xlink:href="#AF" class="J"/><use xlink:href="#AF" class="B C D"/><use xlink:href="#AG" class="E"/><use xlink:href="#AG" class="B C D"/><use xlink:href="#AH" class="E"/><use xlink:href="#AH" class="B C D"/><use xlink:href="#AI" class="E"/><use xlink:href="#AI" class="B C D"/><use xlink:href="#AJ" class="F"/><use xlink:href="#AJ" class="B C D"/><use xlink:href="#AK" class="F"/><use xlink:href="#AK" class="B C D"/><use xlink:href="#AL" class="F"/><use xlink:href="#AL" class="B C D"/><use xlink:href="#AM" class="G"/><use xlink:href="#AM" class="B C D"/><use xlink:href="#AN" class="G"/><use xlink:href="#AN" class="B C D"/><use xlink:href="#AO" class="I"/><use xlink:href="#AO" class="B C D"/><use xlink:href="#AP" class="G"/><use xlink:href="#AP" class="B C D"/><use xlink:href="#AQ" class="G"/><use xlink:href="#AQ" class="B C D"/><use xlink:href="#AR" class="G"/><use xlink:href="#AR" class="B C D"/><use xlink:href="#AS" class="G"/><use xlink:href="#AS" class="B C D"/><use xlink:href="#AT" class="G"/><use xlink:href="#AT" class="B C D"/><use xlink:href="#AU" class="G"/><use xlink:href="#AU" class="B C D"/><use xlink:href="#AV" class="G"/><use xlink:href="#AV" class="B C D"/><use xlink:href="#AW" class="I"/><use xlink:href="#AW" class="B C D"/><use xlink:href="#AX" class="I"/><use xlink:href="#AX" class="B C D"/><use xlink:href="#AY" class="L"/><use xlink:href="#AY" class="B C D"/><use xlink:href="#AZ" class="F"/><use xlink:href="#AZ" class="B C D"/><use xlink:href="#Aa" class="L"/><use xlink:href="#Aa" class="B C D"/><use xlink:href="#Ab" class="F"/><use xlink:href="#Ab" class="B C D"/><use xlink:href="#Ac" class="G"/><use xlink:href="#Ac" class="B C D"/><use xlink:href="#Ad" class="G"/><use xlink:href="#Ad" class="B C D"/><use xlink:href="#Ae" class="E"/><use xlink:href="#Ae" class="B C D"/><use xlink:href="#Af" class="G"/><use xlink:href="#Af" class="B C D"/><use xlink:href="#Ag" class="G"/><use xlink:href="#Ag" class="B C D"/><use xlink:href="#Ah" class="G"/><use xlink:href="#Ah" class="B C D"/><use xlink:href="#Ai" class="G"/><use xlink:href="#Ai" class="B C D"/><use xlink:href="#Aj" class="G"/><use xlink:href="#Aj" class="B C D"/><use xlink:href="#Ak" class="G"/><use xlink:href="#Ak" class="B C D"/><use xlink:href="#Al" class="G"/><use xlink:href="#Al" class="B C D"/><use xlink:href="#Am" class="E"/><use xlink:href="#Am" class="B C D"/><use xlink:href="#An" class="E"/><use xlink:href="#An" class="B C D"/><use xlink:href="#Ao" class="L"/><use xlink:href="#Ao" class="B C D"/><use xlink:href="#Ap" class="F"/><use xlink:href="#Ap" class="B C D"/><use xlink:href="#Aq" class="L"/><use xlink:href="#Aq" class="B C D"/><use xlink:href="#Ar" class="E"/><use xlink:href="#Ar" class="B C D"/><use xlink:href="#As" class="F"/><use xlink:href="#As" class="B C D"/><use xlink:href="#At" class="O"/><use xlink:href="#At" class="B C D"/><use xlink:href="#Au" class="K"/><use xlink:href="#Au" class="B C D"/><use xlink:href="#Av" class="F"/><use xlink:href="#Av" class="B C D"/><use xlink:href="#Aw" class="O"/><use xlink:href="#Aw" class="B C D"/><use xlink:href="#Ax" class="K"/><use xlink:href="#Ax" class="B C D"/><use xlink:href="#Ay" class="F"/><use xlink:href="#Ay" class="B C D"/><use xlink:href="#Az" class="F"/><use xlink:href="#Az" class="B C D"/><use xlink:href="#BA" class="F"/><use xlink:href="#BA" class="B C D"/><use xlink:href="#BB" class="G"/><use xlink:href="#BB" class="B C D"/><use xlink:href="#BC" class="G"/><use xlink:href="#BC" class="B C D"/><use xlink:href="#BD" class="I"/><use xlink:href="#BD" class="B C D"/><use xlink:href="#BE" class="G"/><use xlink:href="#BE" class="B C D"/><use xlink:href="#BF" class="G"/><use xlink:href="#BF" class="B C D"/><use xlink:href="#BG" class="G"/><use xlink:href="#BG" class="B C D"/><use xlink:href="#BH" class="G"/><use xlink:href="#BH" class="B C D"/><use xlink:href="#BI" class="G"/><use xlink:href="#BI" class="B C D"/><use xlink:href="#BJ" class="G"/><use xlink:href="#BJ" class="B C D"/><use xlink:href="#BK" class="G"/><use xlink:href="#BK" class="B C D"/><use xlink:href="#BL" class="I"/><use xlink:href="#BL" class="B C D"/><use xlink:href="#BM" class="I"/><use xlink:href="#BM" class="B C D"/><use xlink:href="#BN" class="L"/><use xlink:href="#BN" class="B C D"/><use xlink:href="#BO" class="F"/><use xlink:href="#BO" class="B C D"/><use xlink:href="#BP" class="L"/><use xlink:href="#BP" class="B C D"/><use xlink:href="#BQ" class="F"/><use xlink:href="#BQ" class="B C D"/><use xlink:href="#BR" class="G"/><use xlink:href="#BR" class="B C D"/><use xlink:href="#BS" class="G"/><use xlink:href="#BS" class="B C D"/><use xlink:href="#BT" class="E"/><use xlink:href="#BT" class="B C D"/><use xlink:href="#BU" class="G"/><use xlink:href="#BU" class="B C D"/><use xlink:href="#BV" class="G"/><use xlink:href="#BV" class="B C D"/><use xlink:href="#BW" class="G"/><use xlink:href="#BW" class="B C D"/><use xlink:href="#BX" class="G"/><use xlink:href="#BX" class="B C D"/><use xlink:href="#BY" class="G"/><use xlink:href="#BY" class="B C D"/><use xlink:href="#BZ" class="G"/><use xlink:href="#BZ" class="B C D"/><use xlink:href="#Ba" class="G"/><use xlink:href="#Ba" class="B C D"/><use xlink:href="#Bb" class="E"/><use xlink:href="#Bb" class="B C D"/><use xlink:href="#Bc" class="E"/><use xlink:href="#Bc" class="B C D"/><use xlink:href="#Bd" class="L"/><use xlink:href="#Bd" class="B C D"/><use xlink:href="#Be" class="F"/><use xlink:href="#Be" class="B C D"/><use xlink:href="#Bf" class="L"/><use xlink:href="#Bf" class="B C D"/><use xlink:href="#Bg" class="F"/><use xlink:href="#Bg" class="B C D"/><use xlink:href="#Bh" class="I"/><use xlink:href="#Bh" class="B C D"/><use xlink:href="#Bi" class="H"/><use xlink:href="#Bi" class="B C D"/><use xlink:href="#Bj" class="H"/><use xlink:href="#Bj" class="B C D"/><use xlink:href="#Bk" class="H"/><use xlink:href="#Bk" class="B C D"/><use xlink:href="#Bl" class="H"/><use xlink:href="#Bl" class="B C D"/><use xlink:href="#Bm" class="H"/><use xlink:href="#Bm" class="B C D"/><use xlink:href="#Bn" class="H"/><use xlink:href="#Bn" class="B C D"/><use xlink:href="#Bo" class="H"/><use xlink:href="#Bo" class="B C D"/><use xlink:href="#Bp" class="O"/><use xlink:href="#Bp" class="B C D"/><use xlink:href="#Bq" class="H"/><use xlink:href="#Bq" class="B C D"/><use xlink:href="#Br" class="H"/><use xlink:href="#Br" class="B C D"/><use xlink:href="#Bs" fill="#a7a5a6"/><use xlink:href="#Bs" class="B C D"/><use xlink:href="#Bt" class="L"/><use xlink:href="#Bt" class="B C D"/><use xlink:href="#Bu" fill="#e9ad17"/><use xlink:href="#Bu" class="B C D"/><use xlink:href="#Bv" class="H"/><use xlink:href="#Bv" class="B C D"/><use xlink:href="#Bw" class="H"/><use xlink:href="#Bw" class="B C D"/><use xlink:href="#Bx" fill="#eaf3ea"/><use xlink:href="#Bx" class="B C D"/><use xlink:href="#By" class="H"/><use xlink:href="#By" class="B C D"/><use xlink:href="#Bz" class="H"/><use xlink:href="#Bz" class="B C D"/><use xlink:href="#CA" class="H"/><use xlink:href="#CA" class="B C D"/><use xlink:href="#CB" class="O"/><use xlink:href="#CB" class="B C D"/><use xlink:href="#CC" class="H"/><use xlink:href="#CC" class="B C D"/><use xlink:href="#CD" class="H"/><use xlink:href="#CD" class="B C D"/><use xlink:href="#CE" class="H"/><use xlink:href="#CE" class="B C D"/><use xlink:href="#CF" class="H"/><use xlink:href="#CF" class="B C D"/><use xlink:href="#CG" fill="#a7a5a6"/><use xlink:href="#CG" class="B C D"/><use xlink:href="#CH" class="L"/><use xlink:href="#CH" class="B C D"/><use xlink:href="#CI" fill="#f1b415"/><use xlink:href="#CI" class="B C D"/><use xlink:href="#CJ" class="H"/><use xlink:href="#CJ" class="B C D"/><use xlink:href="#CK" class="H"/><use xlink:href="#CK" class="B C D"/><use xlink:href="#CL" fill="#f7d22e"/><use xlink:href="#CL" class="B C D"/><use xlink:href="#CM" class="H"/><use xlink:href="#CM" class="B C D"/><use xlink:href="#CN" class="H"/><use xlink:href="#CN" class="B C D"/><use xlink:href="#CO" class="H"/><use xlink:href="#CO" class="B C D"/><use xlink:href="#CP" class="I"/><use xlink:href="#CP" class="B C D"/><use xlink:href="#CQ" class="I"/><use xlink:href="#CQ" class="B C D"/><use xlink:href="#CR" class="I"/><use xlink:href="#CR" class="B C D"/><use xlink:href="#CS" class="I"/><use xlink:href="#CS" class="B C D"/><use xlink:href="#CT" fill="#d6e1e5"/><use xlink:href="#CT" class="B C D"/><use xlink:href="#CU" fill="#e9ad17"/><use xlink:href="#CU" class="B C D"/><use xlink:href="#CV" class="H"/><use xlink:href="#CV" class="B C D"/><use xlink:href="#CW" fill="#fad22b"/><use xlink:href="#CW" class="B C D"/><use xlink:href="#CX" fill="#fad22b"/><use xlink:href="#CX" class="B C D"/><use xlink:href="#CY" class="F"/><use xlink:href="#CY" class="B C D"/><use xlink:href="#CZ" class="P"/><use xlink:href="#CZ" class="B C D"/><use xlink:href="#Ca" class="K"/><use xlink:href="#Ca" class="B C D"/><use xlink:href="#Cb" class="I"/><use xlink:href="#Cb" class="B C D"/><use xlink:href="#Cc" class="K"/><use xlink:href="#Cc" class="B C D"/><use xlink:href="#Cd" class="K"/><use xlink:href="#Cd" class="B C D"/><use xlink:href="#Ce" class="K"/><use xlink:href="#Ce" class="B C D"/><use xlink:href="#Cf" class="K"/><use xlink:href="#Cf" class="B C D"/><use xlink:href="#Cg" class="P"/><use xlink:href="#Cg" class="B C D"/><use xlink:href="#Ch" class="J"/><use xlink:href="#Ch" class="B C D"/><use xlink:href="#Ci" class="O"/><use xlink:href="#Ci" class="B C D"/><use xlink:href="#Cj" class="K"/><use xlink:href="#Cj" class="B C D"/><use xlink:href="#Ck" class="L"/><use xlink:href="#Ck" class="B C D"/><use xlink:href="#Cl" class="P"/><use xlink:href="#Cl" class="B C D"/><use xlink:href="#Cm" class="P"/><use xlink:href="#Cm" class="B C D"/><use xlink:href="#Cn" class="K"/><use xlink:href="#Cn" class="B C D"/><use xlink:href="#Co" class="I"/><use xlink:href="#Co" class="B C D"/><use xlink:href="#Cp" class="K"/><use xlink:href="#Cp" class="B C D"/><use xlink:href="#Cq" class="K"/><use xlink:href="#Cq" class="B C D"/><use xlink:href="#Cr" class="P"/><use xlink:href="#Cr" class="B C D"/><use xlink:href="#Cs" class="J"/><use xlink:href="#Cs" class="B C D"/><use xlink:href="#Ct" class="O"/><use xlink:href="#Ct" class="B C D"/><use xlink:href="#Cu" class="K"/><use xlink:href="#Cu" class="B C D"/><use xlink:href="#Cv" class="L"/><use xlink:href="#Cv" class="B C D"/><use xlink:href="#Cw" class="P"/><use xlink:href="#Cw" class="B C D"/><use xlink:href="#Cx" class="I"/><use xlink:href="#Cx" class="B C D"/><use xlink:href="#Cy" class="I"/><use xlink:href="#Cy" class="B C D"/><use xlink:href="#Cz" class="K" href="#Ce"/><use xlink:href="#Cz" class="B C D" href="#Ce"/><use xlink:href="#Cz" class="Q"/><use xlink:href="#Cz" class="B C D"/><use xlink:href="#DA" class="Q"/><use xlink:href="#DA" class="B C D"/><use xlink:href="#DB" class="Q"/><use xlink:href="#DB" class="B C D"/><use xlink:href="#DC" class="Q"/><use xlink:href="#DC" class="B C D"/><use xlink:href="#DD" class="Q"/><use xlink:href="#DD" class="B C D"/><use xlink:href="#DE" class="Q"/><use xlink:href="#DE" class="B C D"/><use xlink:href="#DF" class="Q"/><use xlink:href="#DF" class="B C D"/><use xlink:href="#DG" class="Q"/><use xlink:href="#DG" class="B C D"/><use xlink:href="#DH" class="F"/><use xlink:href="#DH" class="B C D"/><use xlink:href="#DI" class="F"/><use xlink:href="#DI" class="B C D"/><use xlink:href="#DJ" class="F"/><use xlink:href="#DJ" class="B C D"/><use xlink:href="#DK" fill="#918f90"/><use xlink:href="#DK" class="B C D"/><use xlink:href="#DL" class="M"/><use xlink:href="#DL" class="B C D"/><use xlink:href="#DM" class="M"/><use xlink:href="#DM" class="B C D"/><use xlink:href="#DN" class="P"/><use xlink:href="#DN" class="B C D"/><use xlink:href="#DO" class="R"/><use xlink:href="#DO" class="B C D"/><use xlink:href="#DP" class="N"/><use xlink:href="#DP" class="B C D"/><use xlink:href="#DQ" class="M"/><use xlink:href="#DQ" class="B C D"/><use xlink:href="#DR" fill="#7b7979"/><use xlink:href="#DR" class="B C D"/><use xlink:href="#DS" class="O"/><use xlink:href="#DS" class="B C D"/><use xlink:href="#DT" class="R"/><use xlink:href="#DT" class="B C D"/><use xlink:href="#DU" class="M"/><use xlink:href="#DU" class="B C D"/><use xlink:href="#DV" fill="#d3e5e9"/><use xlink:href="#DV" class="B C D"/><use xlink:href="#DW" class="M"/><use xlink:href="#DW" class="B C D"/><use xlink:href="#DX" class="M"/><use xlink:href="#DX" class="B C D"/><use xlink:href="#DY" class="F"/><use xlink:href="#DY" class="B C D"/><use xlink:href="#DZ" fill="#918f90"/><use xlink:href="#DZ" class="B C D"/><use xlink:href="#Da" class="N"/><use xlink:href="#Da" class="B C D"/><use xlink:href="#Db" class="N"/><use xlink:href="#Db" class="B C D"/><use xlink:href="#Dc" class="P"/><use xlink:href="#Dc" class="B C D"/><use xlink:href="#Dd" class="R"/><use xlink:href="#Dd" class="B C D"/><use xlink:href="#De" class="N"/><use xlink:href="#De" class="B C D"/><use xlink:href="#Df" class="N"/><use xlink:href="#Df" class="B C D"/><use xlink:href="#Dg" fill="#7b7979"/><use xlink:href="#Dg" class="B C D"/><use xlink:href="#Dh" class="O"/><use xlink:href="#Dh" class="B C D"/><use xlink:href="#Di" class="R"/><use xlink:href="#Di" class="B C D"/><use xlink:href="#Dj" class="N"/><use xlink:href="#Dj" class="B C D"/><use xlink:href="#Dk" class="M"/><use xlink:href="#Dk" class="B C D"/><use xlink:href="#Dl" class="M"/><use xlink:href="#Dl" class="B C D"/><use xlink:href="#Dm" class="M"/><use xlink:href="#Dm" class="B C D"/><use xlink:href="#Dn" class="N"/><use xlink:href="#Dn" class="B C D"/><use xlink:href="#Do" class="N"/><use xlink:href="#Do" class="B C D"/><use xlink:href="#Dp" class="N"/><use xlink:href="#Dp" class="B C D"/><use xlink:href="#Dq" class="M"/><use xlink:href="#Dq" class="B C D"/><use xlink:href="#Dr" class="N"/><use xlink:href="#Dr" class="B C D"/><use xlink:href="#Ds" fill="#393536"/><use xlink:href="#Ds" class="B C D"/><use xlink:href="#Dt" class="M"/><use xlink:href="#Dt" class="B C D"/><use xlink:href="#Du" class="F"/><use xlink:href="#Du" class="B C D"/><use xlink:href="#Dv" class="F"/><use xlink:href="#Dv" class="B C D"/><use xlink:href="#Dw" class="F"/><use xlink:href="#Dw" class="B C D"/><use xlink:href="#Dx" class="F"/><use xlink:href="#Dx" class="B C D"/><use xlink:href="#Dy" class="F"/><use xlink:href="#Dy" class="B C D"/><use xlink:href="#Dz" class="F"/><use xlink:href="#Dz" class="B C D"/><use xlink:href="#EA" class="F"/><use xlink:href="#EA" class="B C D"/><use xlink:href="#EB" class="F"/><use xlink:href="#EB" class="B C D"/><use xlink:href="#EC" class="F"/><use xlink:href="#EC" class="B C D"/><use xlink:href="#ED" class="F"/><use xlink:href="#ED" class="B C D"/></svg>