<svg xmlns="http://www.w3.org/2000/svg" xmlns:xlink="http://www.w3.org/1999/xlink" preserveAspectRatio="xMidYMid meet" width="640" height="1280"><style><![CDATA[.B{fill-opacity:0}.C{stroke:#000}.D{stroke-opacity:0}.E{fill:#4f4c4c}.F{fill:#d3d2d2}.G{fill:#231f20}.H{fill:#fbc707}.I{fill:#eaf1f3}.J{fill:#bdbcbc}.K{fill:#ed1c24}.L{fill:#656263}.M{fill:#ec3f41}.N{fill:#e9e9e9}.O{fill:#fff}]]></style><defs><path d="M-554.82-314.92v-12.55h-4.7v12.55h4.7" id="A"/><path d="M-555.33-327.4v5.54h-3.7v-5.54h3.7" id="B"/><path d="M-530.53-188.47l-9.4 9.36-17.77-.06-9.1-9.26v-5.67l15.1 14.78 5.73.02 15.43-14.76v5.6" id="C"/><path d="M-530.45-208.2v4.6h-36.6v-4.6h36.6" id="D"/><path d="M-569.54-358.52c2.08-1.2 4.5-1.75 7.25-1.68 4.44.27 6.98 1.42 7.47 3.3v30.68c-1.42 1.96-3.8 2.9-7.18 2.93-1.93.07-4.1-.27-6.5-1.1l-1.03-34.12" id="E"/><path d="M-547.26-174.55v10.3h-3.85v-10.3h1.03v-.64h1.83v.64h1" id="F"/><path d="M-530.7-179.37v4.33h-36.07v-4.33h36.07" id="G"/><path d="M-545.53-356.94l1.78 2.47v6.55h-2.12l.68 26.22 14.62.05.1 5.74h-14.3l.33 12.15h2.38v6.4l-1.4 2.82v.76h1.2l.12 1.95h2.27l.1-2.38 3.7-.1v2.6h5.85l-.22 7.13h-5.62l-.08 17.48 5.57-6.45v28.33l-11.6-11.18-1.82-.01v1.05l2.03-.14v6.36l-2.18 2.6-.1 3.24h2.13v2.64l-.5.25v2.2h.6l4.42 4.35 3.66-.1.34.6h3.32l-.17 6.46-3.06.1-.26.6-.08.03-.27.1-.17.07-.17.06-.27.1-.43.16-.26.1-.18.07-.17.06-.27.1-.17.07-.17.06-.18.07-.1.03-.17.06-.1.03-.08.04-.27.1-.2.55-.24.52-.28.5-.32.46-.36.42-.4.4-.42.37-.46.34-.48.32-.52.28-.53.25-.55.23-.58.2-.6.18-.6.14-.62.12-.63.1-.64.07-.64.04-.65.02-.66-.01-.65-.03-.65-.05-.64-.08-.64-.1-.63-.13-.62-.14-.6-.17-.6-.2-.57-.2-.56-.24-.53-.25-.5-.28-.48-.3-.45-.32-.43-.34-.38-.35-.36-.38-.32-.4-.27-.4v-1.28l-.07-.04-.08-.06-.1-.06-.06-.05-.06-.04-.07-.05-.04-.03-.1-.06-.04-.03-.06-.04-.07-.04-.02-.02-.02-.01-.02-.02-.02-.01-.04-.03v1.53h-.08l-.17-.01h-.08l-.16-.01h-.24-.24-.25-.24l-.48-.01-.17-.01h-.24l-.24-.01-.16-.01h-.33l-.16-.01v-.1l-.01-.1v-.17l-.01-.1v-.1l-.01-.1v-.22l-.01-.27-.01-.17v-.06l-.01-.1v-.16l-.01-.1v-.17-.1-.1l-5.45-.08.08-6.64 5.88-.34v-16.86l-5.54 5.28-.12-28.34 11.55 11.72h6.5v-12.8h-2.36v-6.63l-.28.2-.3.2-.3.2-.3.18-.64.34-.34.15-.34.14-.35.13-.35.12-.36.12-.37.1-.37.1-.38.1-.38.07-.4.07-.78.1-.8.06-.4.02-.4.01h-.4l-.8-.02-.4-.03-.4-.03-.8-.1-.8-.12-.78-.16-.76-.2-.38-.1-.37-.1-.37-.13-.36-.13-.35-.14-.08-.05-.05-.03-.1-.08-.05-.03-.12-.1-.23-.16-.2-.14-.05-.04-.08-.05-.05-.04.13-13.15 2.72-1.44 1.85-2.18 1.14-.07v-2.47h-.44l-.23-.33v-1.95l.26-.44h1.55v-3.2l-1.78-2.5v-6.42h2.3v-1.7h4.56v1.75h2.22l-.06 6.4-2 2.16v3.56l1.76.06.3.52-.06 1.46-.35.64v2.46l1.35 1.86 1.4.6.5.37v1.1h.94v-1.16l-.83-1.1-1.25-1.25v-5.92l.26-.45h1.7l-1.65-44.44h-2.24l-.08-6.33 2-2.5v-1.44h5.48v1.28zm-13.26 123.06h1.93l5.6-4.4h.58v-2.15l-.63-.3v-2.77h1.62v-3.03l-1.78-2.56v-6.37l2.25-.05v-1.04l-5.84-.04-3.75 3.7v19zm16.72-50.42h-1.86v1.02l1.8 2.12v6.55h-2.2l.06 12.98 1.7-.05 3.05-3.14v-3.78l.64-.2v-15.43l-.16-.53-3.05.05v.42z" id="H"/><path d="M-544.73-321.73v5.84h-22.44v-5.84h22.44" id="I"/><path d="M-555.4-352.54v21.5h-11.25v-21.5h11.25" id="J"/><path d="M-555.4-330.48v3.62h-11.25v-3.62h11.25" id="K"/><path d="M-555.4-356.7v3.62h-11.25v-3.62h11.25" id="L"/><path d="M-570.07-357.2c.66-1.48 3.68-2.6 7.3-2.6 3.63 0 6.64 1.1 7.3 2.6h-14.6" id="M"/><path d="M-569.93-326.32c.67 1.48 3.68 2.6 7.3 2.6 3.63 0 6.64-1.12 7.3-2.6h-14.6" id="N"/><path d="M-566.58-358.6v183.9h-5.32v-183.9h5.32" id="O"/><path d="M-525.35-358.6v183.9h-5.32v-183.9h5.32" id="P"/><path d="M-525.86-358.17v182.94h-4.36v-182.94h4.36" id="Q"/><path d="M-531-178.96v3.45h-35.35v-3.45H-531" id="R"/><path d="M-542.5-261.27v4.17h-12.82v-4.17h12.82" id="S"/><path d="M-530.76-321.14v4.77h-35.7v-4.77h35.7" id="T"/><path d="M-542.8-293.32v8.55h-7v-8.55h7" id="U"/><path d="M-542.42-280.98v5.9h-1.67v-4.82h-4.88v4.82h-1.67v-5.9l.8-1h.87v.03h4.88v-.03h.63l1.04 1" id="V"/><path d="M-544.47-284.3v1.06l.66.76h-5.9l.77-.87v-.95h4.48" id="W"/><path d="M-544.7-279.17v17.13h-3.7v-17.13h3.7" id="X"/><path d="M-544.7-256.52v5.54h-3.7v-5.54h3.7" id="Y"/><path d="M-542.52-249.12v-5.9h-1.66v4.82h-4.9v-4.82h-1.67v5.9l.8 1h.87v-.04h4.9v.04h.62l1.04-1" id="Z"/><path d="M-544.56-245.8v-1.06l.65-.76h-5.9l.77.87v.95h4.5" id="a"/><path d="M-544.6-245.16v1.68h-4.46v-1.68h4.46" id="b"/><path d="M-542.6-242.92v1.9h-8.13v-1.9h8.13" id="c"/><path d="M-537.9-224.72c-.3 2.65-4.48 4.76-9.6 4.76s-9.3-2.1-9.58-4.76h19.17" id="d"/><path d="M-531-233.03v5.68h-2.75v-5.68h2.75" id="e"/><path d="M-534.36-233.47v7l-3.44 1.04-19.06.08-1.5-1.12v-7h1.7l5.5-4.27 8.7-.04 4.72 4.3h3.38" id="f"/><path d="M-558.86-230.58v5.84h-2.44v-5.84h2.44" id="g"/><path d="M-559.23-252.24v21h-1.5v-19.63l1.5-1.37" id="h"/><path d="M-561.6-232.95v6h-5.24v-6h5.24" id="i"/><path d="M-567.07-358.17v182.94h-4.36v-182.94h4.36" id="j"/><path d="M-566.52-272.47v26.4l10.8-10.5v-4.93l-10.8-10.96" id="k"/><path d="M-550.7-297.28v-5.9h1.67v4.82h4.9v-4.82h1.67v5.9l-.8 1h-.87v-.04h-4.9v.04h-.62l-1.05-1" id="l"/><path d="M-548.48-293.95V-295l-.66-.76h5.9l-.77.87v.95h-4.48" id="m"/><path d="M-552.56-354.38v5.9h1.67v-4.82h4.88v4.82h1.67v-5.9l-.8-1h-.88v.04h-4.88v-.04h-.63l-1.04 1" id="n"/><path d="M-550.5-357.7v1.07l-.66.76h5.9l-.76-.87v-.96h-4.5" id="o"/><path d="M-550.4-284.83l-16.12.06v-8.94l2.55-1.37 1.9-2.08 8.7-.04 1.36 1.76 1.62.83v9.78" id="p"/><path d="M-549.72-284.1c-.3 2.66-4.47 4.76-9.58 4.76-2.84 0-5.4-.65-7.14-1.68v-3.08h16.72" id="q"/><path d="M-543-240.52v2.32h-7.18v-2.32h7.18" id="r"/><path d="M-555.33-316.03v5.54h-3.7v-5.54h3.7" id="s"/><path d="M-553.15-308.62v-5.9h-1.67v4.8h-4.88v-4.8h-1.67v5.9l.8 1h.88v-.04h4.88v.04h.63l1.04-1" id="t"/><path d="M-555.2-305.3v-1.06l.66-.76h-5.9l.77.87v.95h4.48" id="u"/><path d="M-555.23-304.66v1.67h-4.47v-1.67h4.47" id="v"/><path d="M-553.24-302.43v1.9h-8.13v-1.9h8.13" id="w"/><path d="M-553.63-300.03v2.32h-7.18v-2.32h7.18" id="x"/><path d="M-531.06-272.7v26.4l-10.8-10.5v-4.93l2.54-2.6v.26l3.1-.2v-2.44l5.17-5.98" id="y"/><path d="M-539.92-291.32v4.3h.96v1.87h-1.3v-.06h-1.87v-6.12h2.2" id="z"/><path d="M-530.87-291.22v6h-5.22v-6h5.22" id="AA"/><path d="M-547.68-174.26v4.5h-2.95v-4.5h2.95" id="AB"/><path d="M-547.68-169.06v4.5h-2.95v-4.5h2.95" id="AC"/><path d="M-530.93-188.64v-4.65l-14.28 13.73h5.2l9.08-9.08" id="AD"/><path d="M-566.64-188.64v-4.65l14.3 13.73h-5.2l-9.08-9.08" id="AE"/><path d="M-531-207.6v3.45h-35.73v-3.45H-531" id="AF"/><path d="M-536.62-293.8v6.14h-2.7v-6.14h2.7" id="AG"/><path d="M-536.7-286.78v17.86h-1.76v-17.86h1.76" id="AH"/><path d="M-536.7-268.05v3.5h-2.15v-3.5h2.15" id="AI"/><path d="M-525.2-263.03h1.3l.15-2.13h7.22l.3 2.97h2.58v5.77h-2.43l-.3 2.9-.6.23v1.9l-1.3.08v6.7l1.06.07v2.6h-1v3.95h.9v2.2h-.98v4.4h1.06l.46-1.3.07-7.37h1.14l-.02 21.22h-1.07v-7.62l-.6-1.16-.33-.04-.1 3.4h-4.03l-.07-3.8h-.53l-.04 1.67h-4v-7.22h3.8l.15 1.52h.5l-.03-3.57-1.3-.08v-2.2l1.22-.08v-4.03h-1.22v-2.58h1.14v-6.62l-.83-.15v-2.05h-.84v-1.67h-2.28v-7.76l.84-.15" id="AJ"/><path d="M-525.2-255.53h1.3l.15 2.13h7.22l.3-2.96h2.58v-5.78h-2.43l-.3-2.9-.6-.23v-1.9l-1.3-.07v-6.7l1.06-.08v-2.58h-1v-3.96h.9v-2.2h-.98v-4.4h1.06l.46 1.3.07 7.38h1.14l-.02-21.23h-1.07v7.62l-.6 1.16-.33.04-.1-3.4h-4.03l-.07 3.8h-.53l-.04-1.68h-4v7.23h3.8l.15-1.52h.5l-.03 3.57-1.3.07v2.2l1.22.07v4.03h-1.22v2.6h1.14v6.6l-.83.15v2.06h-.84v1.67h-2.28v7.75l.84.15" id="AK"/><path d="M-515.62-252.05v43.8a3.59 3.59 0 0 0 3.58 3.58h5.84a3.59 3.59 0 0 0 3.58-3.58v-43.8a3.59 3.59 0 0 0-3.58-3.58h-5.84a3.59 3.59 0 0 0-3.58 3.58" id="AL"/><path d="M-524.4-233.24v6.3h1.64v-6.3h-1.64" id="AM"/><path d="M-521.95-230.84v2h4.57v-2h-4.57" id="AN"/><path d="M-523.33-264.8v10.75h6.47v-10.75h-6.47" id="AO"/><path d="M-522.45-253.16v1.32h5v-1.32h-5" id="AP"/><path d="M-521.4-251.28v6.66h2.5v-6.66h-2.5" id="AQ"/><path d="M-522.62-244v1.32h5V-244h-5" id="AR"/><path d="M-522.62-237.6v1.32h5v-1.32h-5" id="AS"/><path d="M-521.3-241.93v3.9h2.5v-3.9h-2.5" id="AT"/><path d="M-521.3-235.7v3.9h2.5v-3.9h-2.5" id="AU"/><path d="M-521.3-228.1v3.16h3.26v-3.16h-3.26" id="AV"/><path d="M-516.28-261.66v4.7h2.17v-4.7h-2.17" id="AW"/><path d="M-525.04-262.6v6.78h1.13v-6.78h-1.13" id="AX"/><path d="M-513.18-205.47l-.17-.07-.18-.1-.16-.1-.16-.1-.15-.1-.28-.26-.12-.14-.12-.15-.1-.16-.1-.16-.1-.17-.08-.18-.06-.18-.06-.2-.08-.38-.02-.2v-44.16l.02-.2.08-.38.06-.2.06-.18.08-.18.1-.17.1-.16.1-.16.12-.15.12-.14.28-.26.15-.1.16-.1.16-.1.18-.1.17-.07.18-.07v49.6l-.18-.07z" id="AY"/><path d="M-501.82-251.9v43.8a3.59 3.59 0 0 0 3.57 3.58h5.84a3.6 3.6 0 0 0 3.59-3.58v-43.8a3.6 3.6 0 0 0-3.59-3.58h-5.84a3.59 3.59 0 0 0-3.57 3.58" id="AZ"/><path d="M-499.38-205.3l-.18-.07-.17-.1-.17-.1-.15-.1-.15-.12-.15-.13-.13-.13-.13-.14-.12-.15-.1-.16-.1-.16-.16-.34-.07-.2-.06-.18-.04-.2-.03-.2-.02-.2-.01-.2.01-43.96.02-.2.03-.2.04-.2.06-.2.07-.18.08-.18.08-.16.1-.17.1-.15.12-.15.13-.15.13-.13.3-.24.15-.1.17-.1.17-.08.18-.08.18-.06v49.6l-.18-.07z" id="Aa"/><path d="M-515.62-266.5v-43.8a3.59 3.59 0 0 1 3.58-3.58h5.84a3.59 3.59 0 0 1 3.58 3.58v43.8a3.59 3.59 0 0 1-3.58 3.58h-5.84a3.59 3.59 0 0 1-3.58-3.58" id="Ab"/><path d="M-524.4-285.3v-6.3h1.64v6.3h-1.64" id="Ac"/><path d="M-521.95-287.7v-2h4.57v2h-4.57" id="Ad"/><path d="M-523.33-253.77v-10.74h6.47v10.74h-6.47" id="Ae"/><path d="M-522.45-265.4v-1.33h5v1.33h-5" id="Af"/><path d="M-521.4-267.28v-6.66h2.5v6.66h-2.5" id="Ag"/><path d="M-522.62-274.56v-1.33h5v1.33h-5" id="Ah"/><path d="M-522.62-280.96v-1.33h5v1.33h-5" id="Ai"/><path d="M-521.3-276.62v-3.9h2.5v3.9h-2.5" id="Aj"/><path d="M-521.3-282.85v-3.9h2.5v3.9h-2.5" id="Ak"/><path d="M-521.3-290.45v-3.15h3.26v3.15h-3.26" id="Al"/><path d="M-516.28-256.9v-4.7h2.17v4.7h-2.17" id="Am"/><path d="M-525.04-255.95v-6.78h1.13v6.78h-1.13" id="An"/><path d="M-513.18-263.62l-.17-.08-.18-.1-.16-.1-.16-.1-.15-.12-.14-.12-.14-.14-.12-.14-.12-.15-.1-.15-.1-.17-.1-.17-.08-.17-.06-.18-.06-.2-.04-.2-.04-.2-.02-.2v-44.15l.02-.2.04-.2.04-.2.06-.2.06-.18.08-.17.1-.17.1-.17.1-.15.12-.15.12-.14.14-.14.14-.12.15-.12.16-.1.16-.1.18-.1.17-.08.18-.06v49.6l-.18-.06z" id="Ao"/><path d="M-501.82-266.66v-43.8a3.59 3.59 0 0 1 3.57-3.58h5.84a3.6 3.6 0 0 1 3.59 3.58v43.8a3.6 3.6 0 0 1-3.59 3.58h-5.84a3.59 3.59 0 0 1-3.57-3.58" id="Ap"/><path d="M-499.38-263.8l-.18-.07-.17-.1-.17-.1-.15-.1-.15-.12-.15-.13-.13-.13-.13-.14-.12-.15-.1-.16-.1-.16-.08-.17-.08-.18-.07-.18-.06-.18-.04-.2-.03-.2-.02-.2-.01-.2.01-43.96.02-.2.03-.2.04-.2.06-.2.07-.18.08-.18.08-.16.1-.17.1-.15.12-.15.13-.15.13-.13.15-.13.3-.22.17-.1.17-.08.18-.08.18-.07v49.6l-.18-.07z" id="Aq"/><path d="M-549.35-321.74l-.93-30.06h3.7l.94 30.06h-3.7z" id="Ar"/><path d="M-579.48-181.53v5.12h-20.02v-5.12h-4.2v-3.2h31.9v3.2h-2.1v2.74h-3.74v-2.74h-1.83" id="As"/><path d="M-572.03-184.34v2.5h-31.13v-2.5h31.13" id="At"/><path d="M-579.94-177.77v.92h-18.8v-.92h18.8" id="Au"/><path d="M-518.1-181.53v5.12h20.02v-5.12h4.2v-3.2h-31.9v3.2h2.1v2.74h3.74v-2.74h1.83" id="Av"/><path d="M-525.56-184.34v2.5h31.13v-2.5h-31.13" id="Aw"/><path d="M-517.65-177.77v.92h18.8v-.92h-18.8" id="Ax"/><path d="M-571.8-263.03h-1.3l-.16-2.13h-7.22l-.3 2.97h-2.6v5.77h2.43l.3 2.9.6.23v1.9l1.3.08v6.7l-1.07.07v2.6h1v3.95h-.9v2.2h1v4.4h-1.07l-.45-1.3-.08-7.37h-1.14l.02 21.22h1.07v-7.62l.6-1.16.34-.04.1 3.4h4.03l.08-3.8h.53l.03 1.67h4v-7.22h-3.8l-.16 1.52h-.5l.04-3.57 1.3-.08v-2.2l-1.22-.08v-4.03h1.22v-2.58h-1.14v-6.62l.84-.15v-2.05h.83v-1.67h2.28v-7.76l-.83-.15" id="Ay"/><path d="M-571.8-255.53h-1.3l-.16 2.13h-7.22l-.3-2.96h-2.6v-5.78h2.43l.3-2.9.6-.23v-1.9l1.3-.07v-6.7l-1.07-.08v-2.58h1v-3.96h-.9v-2.2h1v-4.4h-1.07l-.45 1.3-.08 7.38h-1.14l.02-21.23h1.07v7.62l.6 1.16.34.04.1-3.4h4.03l.08 3.8h.53l.03-1.68h4v7.23h-3.8l-.16-1.52h-.5l.04 3.57 1.3.07v2.2l-1.22.07v4.03h1.22v2.6h-1.14v6.6l.84.15v2.06h.83v1.67h2.28v7.75l-.83.15" id="Az"/><path d="M-581.4-252.05v43.8a3.59 3.59 0 0 1-3.57 3.58h-5.84a3.6 3.6 0 0 1-3.59-3.58v-43.8a3.6 3.6 0 0 1 3.59-3.58h5.84a3.59 3.59 0 0 1 3.57 3.58" id="BA"/><path d="M-572.6-233.24v6.3h-1.65v-6.3h1.65" id="BB"/><path d="M-575.06-230.84v2h-4.57v-2h4.57" id="BC"/><path d="M-573.67-264.8v10.75h-6.48v-10.75h6.48" id="BD"/><path d="M-574.56-253.16v1.32h-5v-1.32h5" id="BE"/><path d="M-575.6-251.28v6.66h-2.5v-6.66h2.5" id="BF"/><path d="M-574.38-244v1.32h-5V-244h5" id="BG"/><path d="M-574.38-237.6v1.32h-5v-1.32h5" id="BH"/><path d="M-575.7-241.93v3.9h-2.5v-3.9h2.5" id="BI"/><path d="M-575.7-235.7v3.9h-2.5v-3.9h2.5" id="BJ"/><path d="M-575.7-228.1v3.16h-3.26v-3.16h3.26" id="BK"/><path d="M-580.72-261.66v4.7h-2.17v-4.7h2.17" id="BL"/><path d="M-571.96-262.6v6.78h-1.14v-6.78h1.14" id="BM"/><path d="M-583.65-254.86l.17.1.17.1.3.22.15.13.13.13.13.14.12.15.1.16.1.16.08.17.08.18.07.18.06.2.04.2.03.2v.2l.01.2-.03 44.16-.03.2-.04.2-.06.2-.07.18-.08.18-.08.17-.1.16-.1.16-.12.15-.13.14-.13.13-.15.13-.3.22-.17.1-.17.1-.36.14V-255l.36.14z" id="BN"/><path d="M-595.18-251.9v43.8a3.59 3.59 0 0 1-3.58 3.58h-5.84a3.59 3.59 0 0 1-3.58-3.58v-43.8a3.59 3.59 0 0 1 3.58-3.58h5.84a3.59 3.59 0 0 1 3.58 3.58" id="BO"/><path d="M-597.44-254.7l.17.08.16.1.16.1.15.12.14.12.14.13.13.15.22.3.1.17.1.16.08.18.07.18.1.38.03.2.02.2.01.2-.03 44.15-.03.2-.05.2-.05.18-.07.2-.08.17-.1.17-.1.16-.1.16-.1.15-.13.14-.28.26-.15.12-.32.2-.17.1-.36.14v-49.6l.18.06.18.08z" id="BP"/><path d="M-581.4-266.5v-43.8a3.59 3.59 0 0 0-3.57-3.58h-5.84a3.6 3.6 0 0 0-3.59 3.58v43.8a3.6 3.6 0 0 0 3.59 3.58h5.84a3.59 3.59 0 0 0 3.57-3.58" id="BQ"/><path d="M-572.6-285.3v-6.3h-1.65v6.3h1.65" id="BR"/><path d="M-575.06-287.7v-2h-4.57v2h4.57" id="BS"/><path d="M-573.67-253.77v-10.74h-6.48v10.74h6.48" id="BT"/><path d="M-574.56-265.4v-1.33h-5v1.33h5" id="BU"/><path d="M-575.6-267.28v-6.66h-2.5v6.66h2.5" id="BV"/><path d="M-574.38-274.56v-1.33h-5v1.33h5" id="BW"/><path d="M-574.38-280.96v-1.33h-5v1.33h5" id="BX"/><path d="M-575.7-276.62v-3.9h-2.5v3.9h2.5" id="BY"/><path d="M-575.7-282.85v-3.9h-2.5v3.9h2.5" id="BZ"/><path d="M-575.7-290.45v-3.15h-3.26v3.15h3.26" id="Ba"/><path d="M-580.72-256.9v-4.7h-2.17v4.7h2.17" id="Bb"/><path d="M-571.96-255.95v-6.78h-1.14v6.78h1.14" id="Bc"/><path d="M-583.65-313l.34.18.15.1.3.24.26.28.12.15.1.15.1.17.16.34.07.18.06.2.04.2.03.2v.2l.01.2-.03 44.15-.03.2-.04.2-.06.2-.07.18-.16.34-.1.17-.1.15-.12.15-.26.28-.3.24-.15.1-.34.18-.18.08-.18.06v-49.6l.18.06.18.08z" id="Bd"/><path d="M-595.18-266.66v-43.8a3.59 3.59 0 0 0-3.58-3.58h-5.84a3.59 3.59 0 0 0-3.58 3.58v43.8a3.59 3.59 0 0 0 3.58 3.58h5.84a3.59 3.59 0 0 0 3.58-3.58" id="Be"/><path d="M-597.44-313.17l.17.08.16.1.16.1.15.1.28.26.13.15.22.3.1.17.1.16.08.18.07.18.1.38.03.2.02.2.01.2-.03 44.15-.03.2-.05.2-.05.18-.07.18-.08.18-.1.17-.1.16-.1.16-.1.15-.13.14-.28.26-.15.12-.32.2-.17.1-.36.14v-49.6l.18.07.18.08z" id="Bf"/><path d="M570.12 41.73c35.2 14.44 54.57 45.64 58.14 93.6 1.4 4.92 1.7 9.68 1.4 14.73V383.2c-.77 10.83-5.58 17.9-14.42 21.23-6.04 2.45-13.17 4.33-20.92 4.76l19.44 62.96 1.77 362.87c11.06 3.68 16.2 9.47 15.3 17.8l-.2 253.93c-.23 7.43-5.6 12.24-16.15 14.43l-.86 107.18 4.08 2.12v32.6h-24.92c-.53-3.46-.42-6.74-.3-10.03l-274.72-.55-264.1.55c.12 3.3.23 6.57-.3 10.03H28.4v-32.6l4.08-2.12-.85-107.18c-10.54-2.2-15.93-7-16.16-14.43l-.2-253.93c-.9-8.32 4.24-14.1 15.3-17.8l1.77-362.87 19.44-62.96c-7.75-.43-14.9-2.3-20.92-4.76-8.85-3.32-13.66-10.4-14.43-21.23V150.06c-.3-5.05 0-9.8 1.4-14.73 3.56-47.96 22.94-79.16 58.15-93.6.77 1.2 2.75 1.4 5-.12 38.5-15.24 81.56-25.4 128.25-30.48.6-8.33 4.22-11.85 10.87-11H426c6.65-.84 10.27 2.68 10.87 11C483.54 16.2 526.6 26.37 565.1 41.6c2.26 1.53 4.24 1.32 5.02.12" id="Bg"/><path d="M571.14 244.64c-.7-49.68-4.3-83.3-8.66-111.24-1.1-4.4-2.43-3.62-3.95 2.33l-.9 5.22c-1.3 7.4-.25 12.53.3 20 2.48 33.52 5.18 59.7 5.53 83.7-.22 3.84.86 5.68 3.24 5.32 1.16.27 1.25.27 2.4.27 1.3.56 1.7-.85 2.05-5.6" id="Bh"/><path d="M561.07 103.42l.8 2.96.78 3.03.76 3.1.74 3.16.72 3.22.7 3.3.67 3.35.65 3.42.63 3.48.6 3.55.6 3.6.56 3.68.54 3.74.52 3.8.5 3.87.47 3.94.46 4 .43 4.07.4 4.13.4 4.2.37 4.27.34 4.33.32 4.4.3 4.47.28 4.52.25 4.6.24 4.66.2 4.72.2 4.8.17 4.85.15 4.92.12 4.98.1 5.05.08 5.1.06 5.18.04 5.24.02 5.3v5.38l-.01.28H559l.4-1.37-.26-10.23-.14-4.95-.15-4.83-.16-4.72-.17-4.6-.18-4.5-.2-4.38-.2-4.27-.2-4.16-.22-4.05-.22-3.94-.23-3.83-.24-3.72-.26-3.6-.25-3.5-.27-3.4-.28-3.28-.28-3.18-.3-3.07-.3-2.96-.3-2.85-.32-2.75-.32-2.64-.33-2.53-.34-2.43-.34-2.32-.36-2.22-.36-2.12-.36-2-.38-1.9-.38-1.8-.4-1.7-.4-1.6-.4-1.5-.4-1.4-.4-1.3-.42-1.2-.43-1.1-.43-1 .25-1 .25-1 .52-2.02.26-1.02.8-3.1.56-2.08.28-1.05.3-1.05.28-1.05.3-1.05.3-1.06.3-1.05.3-1.06.6-2.12.3-1.06.3-1.07.3-1.06.6-2.12.3-1.05.3-1.06.3-1.05.6-2.1.3-1.05.6-2.08 1.2-4.1.3-1 .3-1 .3-1 .3-1 .84 2.83.83 2.9zm-.38 23.26l-.13.05-.14.06-.13.1-.14.1-.14.12-.14.15-.14.16-.14.2-.14.2-.15.23-.14.24-.15.26-.3.58-.15.32-.15.34-.15.36-.15.38-.16.4-.15.4-.16.44-.06.28-.06.27-.07.27-.06.28-.06.26-.07.27-.06.27-.3 1.3-.07.26-.06.25-.06.26-.3 1.25-.06.24-.12.5-.12.48-.06.25-.05.24-.42 1.68-.06.23-.06.24-.05.24-.12.48-.06.23-.06.18-.05.18-.06.18-.04.2-.05.2-.04.2-.04.2-.04.2-.03.2-.04.2-.03.2-.02.22-.03.23-.04.46-.01.24-.02.24-.02.5v.26l-.01.26v.53l.01.28v.28l.01.28.01.3.01.3.02.3.01.3.04.62.03.32.02.33.03.32.1 1.02.04.35.04.36.26 2.8.52 5.5.24 2.72.25 2.7.23 2.68.24 2.65.22 2.64.22 2.6.42 5.16.2 2.55.2 2.53.38 5 .18 2.46.34 4.86.32 4.78.15 2.35.28 4.65.14 2.3.24 4.52.12 2.22.22 4.4.1 2.16.1 2.14.08 2.12.1 2.1.14 4.13.18 6.03.08 3.92-.02.28-.01.28-.01.27.01.26v.25l.02.25v.24l.03.23.03.22.04.22.05.2.05.2.06.2.07.2.16.34.08.16.1.16.1.14.1.14.1.13.12.13.13.1.14.1.14.1.14.1.16.08.16.07.17.07.17.06.18.05.2.04.4.06.2.02.2.01h.22l.46-.02.24-.03.48.08.12.01.1.02h.12l.12.02.24.02.1.01.6.05.1.01h.12l.12.01h.12l.12.01h.12l.1.01h.24l.12.01h.6l.12.01h.95l.26.06.24.02.12-.01.12-.02.1-.03.1-.04.1-.05.1-.06.1-.07.1-.08.1-.1.1-.1.1-.1.08-.13.1-.13.08-.14.16-.32.07-.17.14-.38.07-.2.07-.22.06-.22.06-.23.06-.24.06-.25.05-.26.06-.27.05-.28.05-.3.05-.3.04-.3.05-.3.08-.66.04-.34.04-.36-.08-3.7-.18-7.3-.22-7.13-.26-6.96-.14-3.42-.32-6.72-.17-3.3-.18-3.26-.2-3.22-.2-3.17-.42-6.23-.23-3.06-.24-3-.24-2.97-.26-2.93-.26-2.9-.27-2.85-.58-5.58-.3-2.73-.3-2.68-.32-2.65-.33-2.6-.34-2.56-.35-2.52-.36-2.5-.36-2.44-.38-2.4-.38-2.36-.4-2.32-.4-2.28-.42-2.24-.42-2.2-.43-2.15-.44-2.12-.12-.32-.12-.3-.1-.28-.12-.26-.12-.25-.12-.22-.12-.2-.12-.2-.13-.16-.12-.15-.13-.12-.12-.1-.13-.1-.13-.07-.13-.04-.13-.03-.13-.01-.13.01-.14.03z" id="Bi"/><path d="M579.56 265.24c-.35 30.56-2.43 61.35-6.2 92.4h6.58l4.7 18.32c5.9-39.4 9.66-76.3 11.27-110.7h-16.35" id="Bj"/><path d="M561.85 93.73c.84 1.78 1.58 3.75 2.22 5.9 10.8 53.5 15.94 107.58 15.52 162.43h16.47l.28-7.23c-.3 0-1.86-.01-4.65-.01l.4-11.2h1.3c1.12 0 2.2-.18 3.2-.5.3-12.4.08-18.85-.2-30.58-.2-.04-.4-.07-.62-.1-.45-.07-.05-5.73.02-8.02h.68c-1.4-44.17-7.02-83.44-16.8-117.87l-17.8 7.16" id="Bk"/><path d="M619.28 127.7c4.1 4.12 6.54 9.5 7.37 16.18l.76 239.46c-.3 6.43-3.03 11.62-8.13 15.4V127.7" id="Bl"/><path d="M34 1233.64v26.02h17.35v-26.02H34" id="Bm"/><path d="M613.38 1233.64v26.02h-17.34v-26.02h17.34" id="Bn"/><path d="M587.76 388.12c8.5-45.1 13.17-89.7 14-133.8 3.67-1.24 6.33-4.54 6.34-8.4l.1-32.5c.01-4.15-3.03-7.66-7.14-8.68-1.38-29.24-4.47-58.26-9.3-87.06 10.4.8 18.37 3.15 24.07 7.15V400.9c-5.7 3-13.54 4.77-23.5 5.13l-4.6-17.9" id="Bo"/><path d="M606.1 214.78l-.06 29.9c-.01 4.52-3.04 8.2-6.7 8.2-.32 0-1.9-.01-4.76-.02l.28-7.85h.92c3.2.02 5.83-2.7 5.84-6l.05-23.18c.01-2.7-1.72-4.2-4.08-4.66-.32-.06-.2-2.54-.15-4.64h2c3.68.01 6.68 3.73 6.66 8.25" id="Bp"/><path d="M554.7 357.63c3.07-30 4.68-60.8 4.7-92.4h16.7c-1.65 36.5-3.96 67.26-6.93 92.4h-3.27c3.2-24.35 5.3-51 6.33-79.93 0-1.3-1.28-1.9-4.6-1.8-4.6-.95-6.52.12-6.14 2.87.18 21.33-1.32 47.62-4.8 78.85h-2" id="Bq"/><path d="M476.72 172.2V205c0 4.64-4 8.43-8.88 8.43h-45.66c-4.9 0-8.9-3.8-8.9-8.43v-32.8c0-4.63 4-8.42 8.9-8.42h45.66c4.88 0 8.88 3.8 8.88 8.42" id="Br"/><path d="M589.68 112.82c15.3.18 27.27 6.2 35.93 18.08-3.7-39.26-21.44-73.56-54.76-85.72-.62-.02.63 15.18-.2 21.25.98 1.42 5.5 5.48 6.44 7.2 5.07 9.22 9.48 22.5 12.6 39.2" id="Bs"/><path d="M626.14 848.56v260.6c0 3.94-5.85 7.15-13 7.15h-1.87V841.4h1.87c7.15 0 13 3.2 13 7.15" id="Bt"/><path d="M595.8 515.4v715.15H570.1V515.4h25.68" id="Bu"/><path d="M28.1 127.7c-4.1 4.12-6.54 9.5-7.38 16.18l-.76 239.46c.32 6.43 3.03 11.62 8.14 15.4V127.7" id="Bv"/><path d="M59.63 388.12c-8.5-45.1-13.18-89.7-14-133.8-3.68-1.24-6.32-4.54-6.33-8.4l-.12-32.5c-.01-4.15 3.05-7.66 7.15-8.68 1.37-29.24 4.47-58.26 9.28-87.06-10.4.8-18.36 3.15-24.06 7.15V400.9c5.7 3 13.54 4.77 23.5 5.13l4.6-17.9" id="Bw"/><path d="M78.9 63.12c13.5-10.02 32.76-18.24 57.78-24.68 44.84-12.62 106.75-19.6 187.03-21.7 80.27 2.12 142.18 9.1 187.02 21.7 25 6.44 44.27 14.66 57.78 24.68V46.54c-35.9-15.83-81.16-26.88-135-33.34.6-8.3-2.37-11.8-8.88-10.5l-92.3.6v-.05l-8.83.04-8.4-.04v.05c-30.3.02-61.3-.3-92.3-.6-6.5-1.3-9.47 2.2-8.9 10.5-53.82 6.46-99.08 17.5-135 33.34v16.58" id="Bx"/><path d="M67.84 265.24c.34 30.56 2.4 61.35 6.18 92.4h-6.58l-4.7 18.32c-5.9-39.4-9.65-76.3-11.27-110.7h16.37" id="By"/><path d="M85.55 93.73c-.85 1.78-1.6 3.75-2.23 5.9-10.82 53.5-15.95 107.58-15.52 162.43H51.33l-.28-7.23 4.64-.01-.4-11.2H54c-1.14 0-2.22-.18-3.2-.5-.3-12.4-.07-18.85.22-30.58a10.42 10.42 0 0 1 .63-.1c.44-.07.05-5.73-.03-8.02h-.68c1.4-44.17 7.02-83.44 16.8-117.87l17.82 7.16" id="Bz"/><path d="M311.73 58.36l-207.85 22.7c-7 .3-12.9 3.48-16.8 9.84l-18.3-7.35c3.94-9.25 9.3-15.5 18.6-21.47 47.4-30.35 133.48-35.98 187.3-40.1 13.77-.62 27.1-.8 40.27-.87v-.03l9.78.01 7.73-.01v.03c13.18.06 26.5.25 40.26.87 53.82 4.13 139.92 9.76 187.3 40.1 9.3 5.96 14.65 12.22 18.58 21.47l-18.28 7.35c-3.9-6.36-9.83-9.54-16.8-9.84-69.14-8.78-138.5-15.6-207.86-22.7-3.92-.84-7.92-1.3-11.95-1.6-4.04.3-8.04.77-11.97 1.6" id="CA"/><path d="M41.28 214.78l.07 29.9c.02 4.52 3.03 8.2 6.72 8.2l4.75-.02-.3-7.85h-.9c-3.22.02-5.84-2.7-5.85-6l-.05-23.18c-.01-2.7 1.7-4.2 4.08-4.66.33-.06.2-2.54.14-4.64h-2c-3.7.01-6.7 3.73-6.68 8.25" id="CB"/><path d="M88.57 99.7l.6 2.02.3 1.02.3 1.03.3 1.03.3 1.03.6 2.08.3 1.05.3 1.05.6 2.1.3 1.06.3 1.05.3 1.06.3 1.06.3 1.06.3 1.07.3 1.06.6 2.12.3 1.06.3 1.05.3 1.06.3 1.05.28 1.05.3 1.05.28 1.05.56 2.08.8 3.1.26 1.02.52 2.02.25 1 .25 1-.43 1-.43 1.1-.4 1.18-.42 1.3-.4 1.4-.4 1.48-.4 1.6-.38 1.7-.38 1.8-.37 1.9-.36 2-.35 2.1-.35 2.2-.34 2.3-.33 2.42-.32 2.52-.32 2.63-.3 2.73-.3 2.84-.3 2.94-.28 3.06-.28 3.16-.27 3.27-.26 3.37-.25 3.5-.24 3.6-.24 3.7-.44 7.74-.2 4.04-.2 4.15-.38 8.64-.17 4.48-.17 4.6-.15 4.72-.15 4.82-.14 4.94-.13 5.06-.12 5.17.17 1.76H71.14l-.01-.28v-5.38l.02-5.3.04-5.24.06-5.18.08-5.1.1-5.05.13-4.98.14-4.92.18-4.85.2-4.8.2-4.72.24-4.66.26-4.6.28-4.52.3-4.47.32-4.4.35-4.33.36-4.27.4-4.2.4-4.13.43-4.07.46-4 .47-3.94.5-3.87.52-3.8.54-3.74.57-3.68.58-3.6.6-3.55.63-3.48.65-3.42.67-3.35.7-3.3.72-3.22.73-3.16.76-3.1.78-3.03.8-2.96.82-2.9.85-2.83.3 1 .3 1zm-2.4 27l-.13.04-.13.07-.13.1-.12.1-.13.12-.12.15-.13.16-.12.2-.12.2-.12.22-.12.25-.1.26-.12.28-.12.3-.1.32-.44 2.12-.43 2.15-.43 2.2-.4 2.24-.4 2.28-.4 2.32-.4 2.36-.37 2.4-.37 2.44-.36 2.5-.35 2.52-.34 2.56-.33 2.6-.32 2.65-.3 2.68-.3 2.73-.3 2.77-.28 2.8-.28 2.85-.26 2.9-.26 2.93-.48 5.98-.23 3.06-.22 3.1-.4 6.3-.2 3.22-.36 6.55-.16 3.34-.15 3.38-.14 3.42-.14 3.46-.24 7.05-.2 7.2-.1 3.67-.08 4.14v.42l.01.4.02.75.03.35.02.33.04.32.04.3.04.3.05.28.05.26.06.24.06.23.06.22.07.2.08.2.08.18.08.16.08.15.1.14.1.13.1.12.1.1.1.1.1.1.1.07.22.12.12.04.1.04.12.02.13.02.12.01h.13l.12-.01.26-.04.13-.03.14-.04h.94l.12-.01h.6l.12-.01h.23l.12-.01h.12l.12-.01h.12l.12-.01h.12l.1-.01.72-.06.1-.01.12-.01.12-.02h.12l.12-.02.12-.01.12-.02.1-.02.24-.04.24-.02.23-.03.22-.02.2-.04.2-.03.2-.04.36-.08.32-.1.3-.12.26-.14.24-.16.1-.1.2-.2.1-.12.1-.1.16-.26.07-.14.07-.16.06-.15.06-.17.06-.18.1-.38.05-.2.05-.22.08-.46.04-.25.03-.27.04-.27.06-.58.04-.3.04-1.95.05-1.97.05-2 .06-2 .07-2.03.24-6.23.1-2.12.1-2.14.22-4.34.24-4.43.26-4.52.14-2.3.3-4.65.16-2.35.17-2.38.34-4.82.18-2.44.38-4.94.2-2.5.2-2.53.2-2.55.22-2.57.67-7.84.24-2.65.24-2.68.24-2.7.25-2.72.26-2.74.26-2.76.27-2.8.04-.36.03-.35.1-1.02.03-.32.03-.33.02-.32.04-.62.01-.3.02-.3.02-.6.01-.28v-.28l.01-.28v-.53l-.01-.26v-.26l-.02-.5-.02-.24-.01-.24-.04-.46-.03-.23-.03-.22-.02-.2-.04-.2-.03-.2-.04-.2-.04-.2-.04-.2-.1-.38-.1-.36-.06-.18-.06-.23-.12-.48-.05-.24-.06-.24-.06-.23-.36-1.44-.05-.24-.06-.24-.06-.25-.12-.48-.12-.5-.06-.24-.3-1.25-.07-.26-.06-.25-.3-1.3-.07-.26-.12-.54-.07-.26-.06-.28-.06-.27-.07-.27-.06-.28-.15-.44-.16-.4-.15-.4-.15-.38-.15-.36-.15-.34-.15-.32-.15-.3-.15-.28-.14-.26-.15-.24-.14-.23-.14-.2-.15-.2-.14-.16-.14-.15-.13-.12-.14-.1-.14-.1-.13-.06-.14-.05-.13-.03-.13-.01-.13.01-.13.03z" id="CC"/><path d="M92.7 357.63c-3.08-30-4.68-60.8-4.7-92.4H71.3c1.65 36.5 3.97 67.26 6.93 92.4h3.27c-3.2-24.35-5.3-51-6.33-79.93 0-1.3 1.28-1.9 4.6-1.8 4.6-.95 6.52.12 6.13 2.87-.18 21.33 1.33 47.62 4.8 78.85h2.02" id="CD"/><path d="M97.13 357.63c-7.1-76.7-6.27-147.55 3.2-212.54 1.96-7.17 8.55-11.33 19.78-12.5l194.6-12.37V120c2.92-.25 5.84-.5 8.92-.38h.15c3.08-.12 6 .13 8.92.38v.22l194.6 12.37c11.23 1.17 17.83 5.33 19.8 12.5 9.45 65 10.28 135.84 3.18 212.54H494.8v-188.7c0-1.35-1.2-2.46-2.63-2.46-1.45 0-2.63 1.1-2.63 2.46v188.7h-50.12v-141.3h30.44c5.47 0 9.95-4.18 9.95-9.3v-36.2c0-5.1-4.48-9.3-9.95-9.3h-51.08c-5.48 0-9.95 4.18-9.95 9.3v36.2c0 5.1 4.47 9.3 9.95 9.3h15.4v141.3h-51.55v-201.9a2.64 2.64 0 0 0-2.63-2.63c-1.45 0-2.62 1.18-2.62 2.63v201.9H326.8V153.3a2.65 2.65 0 0 0-2.63-2.63 2.65 2.65 0 0 0-2.63 2.63v204.33H270v-201.9c0-1.45-1.18-2.63-2.62-2.63-1.45 0-2.63 1.18-2.63 2.63v201.9H213.2v-141.3h15.4c5.47 0 9.95-4.18 9.95-9.3v-36.2c0-5.1-4.48-9.3-9.95-9.3h-51.08c-5.47 0-9.95 4.18-9.95 9.3v36.2c0 5.1 4.48 9.3 9.95 9.3h30.42v141.3h-50.1v-188.7c0-1.35-1.17-2.46-2.62-2.46-1.44 0-2.62 1.1-2.62 2.46v188.7H97.13" id="CE"/><path d="M170.67 172.2V205c0 4.64 4 8.43 8.9 8.43h45.65c4.9 0 8.9-3.8 8.9-8.43v-32.8c0-4.63-4-8.42-8.9-8.42h-45.65c-4.9 0-8.9 3.8-8.9 8.42" id="CF"/><path d="M57.7 112.82c-15.3.18-27.27 6.2-35.93 18.08 3.68-39.26 21.44-73.56 54.77-85.72.6-.02-.63 15.18.2 21.25-1 1.42-5.5 5.48-6.44 7.2-5.06 9.22-9.5 22.5-12.6 39.2" id="CG"/><path d="M21.25 848.56v260.6c0 3.94 5.84 7.15 13 7.15h1.88V841.4h-1.88c-7.15 0-13 3.2-13 7.15" id="CH"/><path d="M38.4 512.54v-38.47H609v38.47H38.4" id="CI"/><path d="M54.47 1234.7v15.1h538.45v-15.1H54.47" id="CJ"/><path d="M80.07 515.4v715.15h487.25V515.4H80.07" id="CK"/><path d="M51.6 515.4v715.15h25.68V515.4H51.6" id="CL"/><path d="M38.3 515.74v715.15h9.8V515.74h-9.8" id="CM"/><path d="M339.48 362.53v.52l236.75-.2L608.5 469.1H38.88l32.3-106.24 236.42.2v-.52h31.9" id="CN"/><path d="M609.1 515.74v715.15h-9.8V515.74h9.8" id="CO"/><path d="M563.32 358.2c3.3-22.05 5.54-48.46 6.7-79.25-3.32-1.35-5.48-1.35-6.78-.28.08 25.5-1.43 51.8-4.52 79.28 1.44 0 3.1 0 4.6.25" id="CP"/><path d="M535.97 132.17l9.1-36.72c-.88-3.77-3.3-6.12-7.96-7.07L352.16 68.6c-11.62-.47-17.44 2-18.2 7.06l.75 41.67 185.72 12.7c5.43-.12 10.6.47 15.53 2.12" id="CQ"/><path d="M75.76 245.3c.7-49.68 4.3-83.3 8.67-111.23 1.1-4.4 2.43-3.62 3.94 2.33l.9 5.2c1.3 7.4.26 12.53-.3 20.02-2.47 33.52-5.17 59.7-5.52 83.68.16 2.64-.3 4.34-1.38 5.02-1 .62-5.25 1.47-5.84-.24-.3-.87-.3-2.4-.47-4.8" id="CR"/><path d="M83.58 358.85c-3.3-22.04-5.53-48.46-6.7-79.25 3.32-1.34 5.5-1.34 6.77-.27-.07 25.5 1.45 51.78 4.53 79.28-1.43 0-3.08 0-4.6.24" id="CS"/><path d="M110.93 132.82l-9.1-36.72c.88-3.76 3.3-6.12 7.96-7.06l184.95-19.78c11.62-.46 17.44 2 18.2 7.07l-.75 41.66-185.72 12.7c-5.42-.1-10.6.48-15.53 2.12" id="CT"/><path d="M80.07 515.4v19.9c.04.05.06.07.06.08 27.76 44.98 106.48 71.98 236.2 80.97 135.94-4.23 197.12 37.58 183.52 120.67-18.7 177.3-17.56 299 1.7 369.93 14.9 48.5 21.16 89.85 18.38 123.6h47.4V515.4H80.07" id="CU"/><path d="M153.13 80.77l144.53-14.32c10.8-.24 16.9 2.94 18.04 9.08.1 12.7-.56 28.65-.56 41.98 2.16.43 14.95.43 17.1 0l-.56-41.98c1.13-6.14 7.25-9.32 18.05-9.08L538.1 85.48c7.7 2.4 10.88 6.2 9.52 11.43l-8.83 35.74c2.1.7 5.55 3.68 7.2 4.38 3.93-13.26 8.34-30.54 12.27-43.8-4.2-8.74-10.32-9.42-19.94-10.7L325.23 60.6c-.01-.02-.01-.12-.01-.3l-1.52.15-1.53-.15c0 .2-.01.3-.01.3l-167.5 17.2c-.67 1-1.2 1.98-1.52 2.97" id="CV"/><path d="M243.38 124.9l71.32-4.7V120l8.92-.38h.15c3.08-.12 6 .13 8.92.38v.22l194.6 12.38c11.23 1.16 17.82 5.32 19.8 12.5 9.45 65 10.28 135.84 3.18 212.54H494.8v-188.7c0-1.35-1.2-2.46-2.63-2.46s-2.63 1.1-2.63 2.46v188.7h-50.12v-141.3h30.44c5.47 0 9.95-4.18 9.95-9.3v-36.2c0-5.1-4.48-9.3-9.95-9.3h-51.08c-5.48 0-9.95 4.18-9.95 9.3v36.2c0 5.1 4.47 9.3 9.95 9.3h15.4v141.3h-51.55v-201.9a2.64 2.64 0 0 0-2.63-2.63c-1.45 0-2.62 1.18-2.62 2.63v201.9h-20.2c.6-170.75-20.88-245.35-64.5-222.46-18.2-3.43-34.63-6.86-49.3-10.26" id="CW"/><path d="M311.73 58.36L157.4 74.6c7.44-7.03 23.55-13.92 48.34-20.65 45.1-15.03 71.86-25.83 80.3-32.42l28.9-.45v-.03l9.77.01 7.74-.01v.03c13.18.06 26.5.25 40.26.87 53.82 4.13 139.92 9.76 187.3 40.1 9.3 5.96 14.65 12.22 18.58 21.47l-18.28 7.36c-3.9-6.37-9.83-9.55-16.8-9.85-69.14-8.78-138.5-15.6-207.86-22.7-3.92-.84-7.92-1.3-11.95-1.6-4.04.3-8.04.77-11.97 1.6" id="CX"/><path d="M-548.5-574.77l-57.32-.18c-5.9-.01-7.95 5-8.17 9.77h8.68v15.2c-1.78 1.08-3.25 2.7-3.25 5.62v52.47c0 2.46 2.14 3.9 3.53 4.8.66 1.02 1.23 2.32 1.9 3.34-1.86 2.75-1.54 5.7.54 9.23v1.8l-3.44.18-2.53 2.17.77 57.87 2.36 3.02 3.4.28-5.56 5.94-.3 70.28h5.82l8.73-6.5 44.84-.16 44.84.16 8.73 6.5h5.8l-.3-70.28-5.56-5.94 3.4-.28 2.35-3.02.78-57.87-2.54-2.17-3.43-.18v-1.8c2.08-3.54 2.4-6.48.54-9.23.66-1.02 1.23-2.32 1.9-3.34 1.38-.9 3.53-2.33 3.53-4.8v-52.47c0-2.92-1.47-4.54-3.26-5.62v-15.2h8.68c-.2-4.77-2.28-9.78-8.16-9.77l-57.32.18" id="CY"/><path d="M-484.03-566.18h-43l-.6-2.9-21.97.05-19.77-.05-.6 2.9h-43.02c0-4.83 3.45-7.76 8.2-7.76h112.55c4.76 0 8.2 2.93 8.2 7.76" id="CZ"/><path d="M-526.94-562.54l18 81.64-39.55-.16-39.55.16 18-81.64h43.12" id="Ca"/><path d="M-510.85-467.04v4.9c0 .7-.6 1.28-1.3 1.28h-32.97c-.7 0-1.3-.57-1.3-1.28v-4.9c0-.7.6-1.28 1.3-1.28h32.97c.7 0 1.3.58 1.3 1.28" id="Cb"/><path d="M-506.15-466.38l-.74 9.2c0-2.04-1.67-3.7-3.7-3.7h-.54c.62-.17 1.07-.73 1.07-1.4v-5.46c0-.8-.65-1.43-1.43-1.43H-546c-.78 0-1.43.64-1.43 1.43v5.46c0 .66.46 1.22 1.07 1.4h-4.3c.62-.17 1.07-.73 1.07-1.4v-5.46a1.43 1.43 0 0 0-1.43-1.43h-34.48a1.43 1.43 0 0 0-1.43 1.43v5.46a1.45 1.45 0 0 0 1.06 1.39h-.53c-2.05 0-3.7 1.67-3.7 3.7l-.74-9.2c-.17-2.13 1.74-3.88 3.87-3.88h76.95c2.13 0 4.05 1.75 3.88 3.88" id="Cc"/><path d="M-509.08-452.5l2.6 35.34c0 .02-4.24.04-6.25.05l-36.73.13-34.8-.13-6.25-.05 2.6-35.34c.15-2 1.65-3.65 3.66-3.65h71.54c2 0 3.5 1.65 3.65 3.65" id="Cd"/><path d="M-492.88-565.23v15.4h-30.3l-3.58-15.5 33.87.1" id="Ce"/><path d="M-498.57-365.6l.5-.12-4.6-50.42 12.5 12.95.3 69.46h-4.75l-8.88-6.85h-90.02l-8.9 6.85h-4.74l.28-69.46 12.52-12.95-4.6 50.42.5.12 4.84-50.44 45.1.27 45.1-.27 4.84 50.44" id="Cf"/><path d="M-493.67-479.7c0 3.68-2.98 6.66-6.65 6.66a6.66 6.66 0 0 1-6.66-6.66c0-3.67 2.98-6.66 6.66-6.66 3.67 0 6.65 3 6.65 6.66" id="Cg"/><path d="M-493.3-487.34l-1.47 3.26-.53-.6-.58-.53-.65-.47-.7-.4-.74-.32-.78-.23-.82-.14-.84-.05-1.34.13-1.26.35-1.15.57-1.02.76-.87.93-.7 1.06-.5 1.2-.28 1.3-1.74-7.06 2.27 1.08 13.7-.84z" id="Ch"/><path d="M-489.93-470.32l-.2 57.8-2.14 2.53h-3.3l-6.1-6.57-3.62-55.7 13.8.58 1.55 1.36zm-3.24 1.25l-.08.02-.04.02-.03.01-.04.02-.06.04-.06.06-.02.03-.03.03-.02.03-.02.04-.02.03v.04l-.02.04-.01.04v.04l-.01.04.01 54.72.01.04.02.04v.04l.02.04.04.06.03.04.08.08.06.04.04.02.03.02.12.03h.04l.04.01.04-.01h.04l.08-.02h.03l.04-.02.03-.02.04-.02.03-.02.03-.03.02-.03.03-.02.03-.04.04-.06v-.04l.02-.04.03-.12v-.04l.01-.05-.03-54.7-.01-.04-.02-.04v-.03l-.02-.04-.02-.03-.06-.06-.02-.03-.03-.03-.03-.02-.04-.02-.03-.02-.04-.01-.03-.02-.08-.02h-.16zm-3.38 0l-.08.02-.04.02-.04.01-.03.02-.04.03-.03.02-.06.06-.02.03-.03.03-.02.04-.02.03-.01.04-.02.04v.08 52.96.04l.02.04.01.04.02.04.02.03.03.03.02.04.03.02.06.06.04.02.03.02.04.02.12.03h.04.04.05.04l.12-.03.03-.02.04-.02.03-.02.04-.03.05-.05.03-.04.02-.03.03-.03.02-.04.01-.04.02-.04.01-.04v-.04l.01-.04-.02-52.96-.02-.04-.01-.04-.02-.03-.03-.04-.02-.03-.03-.03-.02-.03-.03-.03-.04-.02-.03-.03-.04-.02-.03-.01-.04-.02-.08-.02h-.17zm-3.94 0l-.04.01-.05.01-.04.02-.03.02-.08.04-.03.03-.03.02-.03.03-.02.04-.03.03-.02.04v.03l-.03.12-.01.05.01 50.27.03.12v.04l.02.03.03.04.02.03.06.06.03.02.04.03.04.02.03.01h.04l.05.01.04.01h.04l.05.01.04-.01h.04l.05-.01.04-.01h.04l.04-.01.03-.02.04-.03.03-.02.1-.1.02-.04.02-.03.04-.08.02-.08-.02-50.4-.02-.04-.02-.03-.02-.04-.02-.03-.03-.04-.03-.03-.03-.02-.03-.03-.04-.02h-.03l-.08-.04-.04-.01-.05-.01h-.17z" id="Ci"/><path d="M-493.2-549.03l.17.02.17.03.17.04.16.04.16.05.16.06.16.07.15.07.14.08.15.08.14.1.13.1.13.1.12.1.24.24.1.12.1.13.1.14.1.14.08.14.16.3.06.15.06.16.05.16.04.16.04.17.03.17.02.17.01.18v.17l-.02 54.16-.02.17-.03.16-.04.17-.04.16-.05.16-.06.16-.14.3-.16.28-.1.14-.2.26-.1.12-.12.12-.24.22-.13.1-.14.1-.13.1-.15.08-.14.08-.15.08-.48.18-.16.05-.17.04-.34.06-.18.01-.17.02-13.05.54-.17-.01h-.16l-.17-.03-.16-.03-.15-.04-.15-.05-.15-.06-.28-.14-.13-.08-.26-.18-.24-.2-.1-.12-.1-.1-.1-.13-.1-.12-.1-.14-.1-.13-.1-.15-.1-.14-.08-.15-.07-.15-.08-.16-.07-.16-.12-.32-.06-.17-.1-.34-.08-.34-12.47-56.43-.05-.13-.04-.12-.05-.12-.04-.1-.08-.2-.04-.1-.03-.1-.03-.07-.02-.08-.02-.07-.01-.06v-.1l.01-.05.04-.08.04-.04.04-.03.05-.02.07-.03.08-.02h.08l.1-.02.24-.02h.14l.16-.01 28.53.01.18.01zm-26.8 9.74h25.85v-8H-520v8z" id="Cj"/><path d="M-495-544.65v4.52h-24.15v-4.52H-495" id="Ck"/><path d="M-495-546.55v1.3h-24.15v-1.3H-495" id="Cl"/><path d="M-568.66-568.4l-1.1 5.18h42.52l-1.1-5.18h-40.3" id="Cm"/><path d="M-588.26-480l39.1-.02 40.43.02 2.5 7.6.05 3.46.03.65-.6-1.1c-.6-1.1-1.4-1.9-3.45-1.9l-38.28-.3-38.3.3c-2.04.01-2.83.8-3.44 1.9l-.62 1.1.04-.65.04-3.46 2.5-7.6" id="Cn"/><path d="M-586.15-467.04v4.9c0 .7.58 1.28 1.3 1.28h32.96c.72 0 1.3-.57 1.3-1.28v-4.9c0-.7-.6-1.28-1.3-1.28h-32.96c-.72 0-1.3.58-1.3 1.28" id="Co"/><path d="M-589.7-456.37l-2.55 39.4s1.34.06 1.36.1l2.22-36.4c.12-2.03 1.67-3.7 3.7-3.7h72.9c2.05 0 3.6 1.68 3.72 3.7l2.2 36.4c.02-.04 1.36-.1 1.36-.1l-2.54-39.4c-.13-2.04-1.67-3.7-3.7-3.7h-74.96c-2.04 0-3.6 1.67-3.7 3.7" id="Cp"/><path d="M-604.12-565.23v15.4h30.3l3.58-15.5-33.87.1" id="Cq"/><path d="M-603.34-479.7a6.66 6.66 0 1 0 13.32 0c0-3.67-2.98-6.66-6.66-6.66s-6.66 3-6.66 6.66" id="Cr"/><path d="M-589.75-481.8l-.5-1.2-.7-1.06-.87-.93-1.03-.76-1.15-.57-1.26-.35-1.33-.13-.85.05-.8.14-.78.23-.74.32-.7.4-.64.47-.6.53-.52.6-1.47-3.26 13.7.84 2.26-1.08-1.73 7.06-.3-1.3z" id="Cs"/><path d="M-601.44-410h-3.3l-2.13-2.53-.2-57.8 1.55-1.36 13.8-.58-3.62 55.7-6.1 6.57zm-2.55-59.08l-.08.02-.04.02-.03.01-.04.02-.06.04-.06.06-.02.03-.03.03-.02.03-.02.04v.03l-.01.04-.02.04-.01.04v.04l-.01.04.01 54.72.01.04.02.04.01.04v.04l.04.06.03.04.08.08.06.04.04.02.03.02.12.03h.04l.04.01.04-.01h.04l.04-.01.03-.01h.04l.04-.02.06-.04.04-.02.03-.03.02-.03.03-.02.02-.04.03-.03.02-.03.01-.04.02-.04.03-.12-.03-54.84-.02-.04-.01-.03-.02-.04-.03-.03-.02-.03-.03-.03-.02-.03-.03-.03-.04-.02-.06-.04-.04-.01-.04-.02-.03-.01-.04-.01h-.16zm3.37 0l-.08.02-.04.02-.04.01-.03.02-.04.03-.03.02-.06.06-.02.03-.03.03v.04l-.02.03-.01.04-.02.04-.02.08.01 52.96.01.04.02.04.01.04.02.04v.03l.03.03.02.04.03.02.06.06.04.02.03.02.04.02.12.03h.04.04.04.05l.08-.02.03-.01.08-.04.03-.02.06-.06.03-.02.03-.04.04-.06.04-.08.04-.16-.03-52.96-.01-.04-.02-.04-.02-.03-.02-.04v-.03l-.1-.1-.03-.02-.03-.03-.04-.02-.04-.01-.03-.02-.08-.02h-.17zm3.93 0l-.08.02-.12.06-.03.02-.04.03-.03.02-.03.03-.02.04-.03.03-.02.04v.03l-.03.12-.01.05.01 50.27.03.12v.04l.02.03.03.04.02.03.06.06.04.02.03.03.04.02.04.01h.04l.08.02h.04l.05.01.04-.01h.05l.08-.02h.04l.04-.01.04-.02.03-.03.03-.02.1-.1.02-.04.02-.03.04-.08.02-.08-.02-50.4-.02-.04-.02-.03-.02-.04-.02-.03-.03-.04-.03-.03-.03-.02-.03-.03-.03-.02-.12-.06-.08-.02h-.18z" id="Ct"/><path d="M-574.93-549.04h.14l.13.01.1.01.1.02h.1l.08.02.06.03.05.02.05.03.06.08.02.04.01.05v.05l-.02.12-.02.07-.02.08-.03.07-.06.18-.08.2-.05.1-.08.24-.05.13-.05.14-.08.3-.05.16-.03.17-12.5 56.5-.07.16-.06.16-.14.32-.16.3-.08.14-.1.15-.1.13-.1.14-.1.12-.1.13-.23.23-.1.1-.12.1-.26.18-.14.08-.13.07-.15.07-.14.06-.15.05-.16.04-.32.06-.34.02h-.17l-12.87-.54-.18-.02-.17-.01-.18-.03-.17-.03-.16-.04-.17-.05-.32-.12-.15-.06-.3-.16-.14-.08-.14-.1-.26-.2-.13-.1-.12-.1-.22-.24-.1-.13-.1-.13-.18-.28-.08-.14-.14-.3-.06-.16-.05-.16-.04-.16-.04-.17-.03-.16-.02-.17v-.18-54.33l.02-.17.03-.17.04-.17.04-.16.05-.16.06-.16.14-.3.08-.15.27-.42.1-.13.22-.24.12-.12.13-.1.13-.1.13-.1.14-.1.14-.08.15-.08.3-.14.16-.06.16-.05.17-.04.16-.04.17-.03.18-.02.17-.01.18-.01 28.5.01zm-27.92 9.75H-577v-8h-25.85v8z" id="Cu"/><path d="M-602-544.65v4.52h24.14v-4.52H-602" id="Cv"/><path d="M-602-546.55v1.3h24.14v-1.3H-602" id="Cw"/><path d="M-505.78-465.33l-.93 10.33 1.65 23.8h1.6l-2.32-34.14" id="Cx"/><path d="M-591.23-465.33l.93 10.33-1.65 23.8h-1.6l2.3-34.14" id="Cy"/><path d="M-498.57-365.6l.5-.12-4.6-50.42 12.5 12.95.01.73c-2.36.38-3.8 1.25-4.3 2.54.47 28.48 0 44.54-1.43 48.68-8.44-6.2-26.1-8.27-52.5-6.68-13.68.64-17.8-4.45-13.77-14.65 8.94-16.36 13.7-30.76 14.32-43.2l44.43-.27 4.84 50.44" id="Cz"/><path d="M-509.08-452.5l2.6 35.34c0 .02-4.24.04-6.25.05l-35.06.14a61.12 61.12 0 0 0-.01-3.32c-.62-6.02-.62-16.67.23-31.95a23.36 23.36 0 0 0 .2-3.91h34.64c2 0 3.5 1.65 3.65 3.65" id="DA"/><path d="M-506.15-466.38l-.74 9.2c0-2.04-1.67-3.7-3.7-3.7h-.54c.62-.17 1.07-.73 1.07-1.4v-5.46c0-.8-.65-1.43-1.43-1.43H-546c-.78 0-1.43.64-1.43 1.43v5.46c0 .66.46 1.22 1.07 1.4h-1.5c-.6-1.35-.78-4.46-.65-9.37h38.47c2.13 0 4.05 1.75 3.88 3.88" id="DB"/><path d="M-548-480.03h.17l39.1.02 2.5 7.6.05 3.46.03.65-.6-1.1c-.6-1.1-1.4-1.9-3.45-1.9l-38.24-.3.45-8.42" id="DC"/><path d="M-526.94-562.54l18 81.64-39-.15.03-.5-1.87-81h22.84" id="DD"/><path d="M-590.02-448.58l.08.1.1.08.18.18.1.08.18.18.1.08.2.18.1.08-1.88 30.75-.02-.01h-.07-.1l-.12-.01-.14-.01-.16-.01-.3-.02-.14-.01h-.12l-.1-.01h-.1l2.05-31.78.1.1.08.1z" id="DE"/><path d="M-489.9-545.4v44c-1.14-1.1-2.47-3.42-3.98-6.9 0-3.04-3.3-4.14-9.1-3.3-6.14.34-9.66-2.5-10.56-8.08l-4.93-19.6h24.33v-8H-520v2.04l-1-3.8h27.43c2 0 3.66 1.65 3.66 3.66" id="DF"/><path d="M-577.48-549.05h-25.96c-.92 0-1.76.34-2.4.9.48 4.06.7 9.83.6 17.4-.1 7.65 1.8 12.85 5.7 15.34 5.43 2.26 8.7.9 9.64-4.08-.1-4.34 1.63-7.4 4.88-8.82 3.82-2.87 6.25-6.54 7.28-10.98h-25.12v-8h25.58c-.06-.58-.12-1.17-.2-1.77" id="DG"/></defs><use xlink:href="#A" class="G"/><use xlink:href="#A" class="B C D"/><use xlink:href="#B" class="E"/><use xlink:href="#B" class="B C D"/><use xlink:href="#C" class="G"/><use xlink:href="#C" class="B C D"/><use xlink:href="#D" class="G"/><use xlink:href="#D" class="B C D"/><use xlink:href="#E" class="G"/><use xlink:href="#E" class="B C D"/><use xlink:href="#F" class="G"/><use xlink:href="#F" class="B C D"/><use xlink:href="#G" class="J"/><use xlink:href="#G" class="B C D"/><use xlink:href="#H" class="G"/><use xlink:href="#H" class="B C D"/><use xlink:href="#I" class="G"/><use xlink:href="#I" class="B C D"/><use xlink:href="#J" class="I"/><use xlink:href="#J" class="B C D"/><use xlink:href="#K" class="I"/><use xlink:href="#K" class="B C D"/><use xlink:href="#L" class="I"/><use xlink:href="#L" class="B C D"/><use xlink:href="#M" class="I"/><use xlink:href="#M" class="B C D"/><use xlink:href="#N" class="I"/><use xlink:href="#N" class="B C D"/><use xlink:href="#O" class="G"/><use xlink:href="#O" class="B C D"/><use xlink:href="#P" class="G"/><use xlink:href="#P" class="B C D"/><use xlink:href="#Q" class="J"/><use xlink:href="#Q" class="B C D"/><use xlink:href="#R" class="J"/><use xlink:href="#R" class="B C D"/><use xlink:href="#S" class="J"/><use xlink:href="#S" class="B C D"/><use xlink:href="#T" class="J"/><use xlink:href="#T" class="B C D"/><use xlink:href="#U" class="E"/><use xlink:href="#U" class="B C D"/><use xlink:href="#V" class="E"/><use xlink:href="#V" class="B C D"/><use xlink:href="#W" class="E"/><use xlink:href="#W" class="B C D"/><use xlink:href="#X" class="E"/><use xlink:href="#X" class="B C D"/><use xlink:href="#Y" class="E"/><use xlink:href="#Y" class="B C D"/><use xlink:href="#Z" class="E"/><use xlink:href="#Z" class="B C D"/><use xlink:href="#a" class="E"/><use xlink:href="#a" class="B C D"/><use xlink:href="#b" class="E"/><use xlink:href="#b" class="B C D"/><use xlink:href="#c" class="E"/><use xlink:href="#c" class="B C D"/><use xlink:href="#d" class="E"/><use xlink:href="#d" class="B C D"/><use xlink:href="#e" class="E"/><use xlink:href="#e" class="B C D"/><use xlink:href="#f" class="E"/><use xlink:href="#f" class="B C D"/><use xlink:href="#g" class="E"/><use xlink:href="#g" class="B C D"/><use xlink:href="#h" class="E"/><use xlink:href="#h" class="B C D"/><use xlink:href="#i" class="E"/><use xlink:href="#i" class="B C D"/><use xlink:href="#j" class="J"/><use xlink:href="#j" class="B C D"/><use xlink:href="#k" class="J"/><use xlink:href="#k" class="B C D"/><use xlink:href="#l" class="E"/><use xlink:href="#l" class="B C D"/><use xlink:href="#m" class="E"/><use xlink:href="#m" class="B C D"/><use xlink:href="#n" class="E"/><use xlink:href="#n" class="B C D"/><use xlink:href="#o" class="E"/><use xlink:href="#o" class="B C D"/><use xlink:href="#p" class="E"/><use xlink:href="#p" class="B C D"/><use xlink:href="#q" class="E"/><use xlink:href="#q" class="B C D"/><use xlink:href="#r" class="E"/><use xlink:href="#r" class="B C D"/><use xlink:href="#s" class="E"/><use xlink:href="#s" class="B C D"/><use xlink:href="#t" class="E"/><use xlink:href="#t" class="B C D"/><use xlink:href="#u" class="E"/><use xlink:href="#u" class="B C D"/><use xlink:href="#v" class="E"/><use xlink:href="#v" class="B C D"/><use xlink:href="#w" class="E"/><use xlink:href="#w" class="B C D"/><use xlink:href="#x" class="E"/><use xlink:href="#x" class="B C D"/><use xlink:href="#y" class="J"/><use xlink:href="#y" class="B C D"/><use xlink:href="#z" class="E"/><use xlink:href="#z" class="B C D"/><use xlink:href="#AA" class="E"/><use xlink:href="#AA" class="B C D"/><use xlink:href="#AB" class="E"/><use xlink:href="#AB" class="B C D"/><use xlink:href="#AC" class="E"/><use xlink:href="#AC" class="B C D"/><use xlink:href="#AD" class="J"/><use xlink:href="#AD" class="B C D"/><use xlink:href="#AE" class="J"/><use xlink:href="#AE" class="B C D"/><use xlink:href="#AF" class="J"/><use xlink:href="#AF" class="B C D"/><use xlink:href="#AG" class="E"/><use xlink:href="#AG" class="B C D"/><use xlink:href="#AH" class="E"/><use xlink:href="#AH" class="B C D"/><use xlink:href="#AI" class="E"/><use xlink:href="#AI" class="B C D"/><use xlink:href="#AJ" class="G"/><use xlink:href="#AJ" class="B C D"/><use xlink:href="#AK" class="G"/><use xlink:href="#AK" class="B C D"/><use xlink:href="#AL" class="G"/><use xlink:href="#AL" class="B C D"/><use xlink:href="#AM" class="F"/><use xlink:href="#AM" class="B C D"/><use xlink:href="#AN" class="F"/><use xlink:href="#AN" class="B C D"/><use xlink:href="#AO" class="I"/><use xlink:href="#AO" class="B C D"/><use xlink:href="#AP" class="F"/><use xlink:href="#AP" class="B C D"/><use xlink:href="#AQ" class="F"/><use xlink:href="#AQ" class="B C D"/><use xlink:href="#AR" class="F"/><use xlink:href="#AR" class="B C D"/><use xlink:href="#AS" class="F"/><use xlink:href="#AS" class="B C D"/><use xlink:href="#AT" class="F"/><use xlink:href="#AT" class="B C D"/><use xlink:href="#AU" class="F"/><use xlink:href="#AU" class="B C D"/><use xlink:href="#AV" class="F"/><use xlink:href="#AV" class="B C D"/><use xlink:href="#AW" class="I"/><use xlink:href="#AW" class="B C D"/><use xlink:href="#AX" class="I"/><use xlink:href="#AX" class="B C D"/><use xlink:href="#AY" class="L"/><use xlink:href="#AY" class="B C D"/><use xlink:href="#AZ" class="G"/><use xlink:href="#AZ" class="B C D"/><use xlink:href="#Aa" class="L"/><use xlink:href="#Aa" class="B C D"/><use xlink:href="#Ab" class="G"/><use xlink:href="#Ab" class="B C D"/><use xlink:href="#Ac" class="F"/><use xlink:href="#Ac" class="B C D"/><use xlink:href="#Ad" class="F"/><use xlink:href="#Ad" class="B C D"/><use xlink:href="#Ae" class="E"/><use xlink:href="#Ae" class="B C D"/><use xlink:href="#Af" class="F"/><use xlink:href="#Af" class="B C D"/><use xlink:href="#Ag" class="F"/><use xlink:href="#Ag" class="B C D"/><use xlink:href="#Ah" class="F"/><use xlink:href="#Ah" class="B C D"/><use xlink:href="#Ai" class="F"/><use xlink:href="#Ai" class="B C D"/><use xlink:href="#Aj" class="F"/><use xlink:href="#Aj" class="B C D"/><use xlink:href="#Ak" class="F"/><use xlink:href="#Ak" class="B C D"/><use xlink:href="#Al" class="F"/><use xlink:href="#Al" class="B C D"/><use xlink:href="#Am" class="E"/><use xlink:href="#Am" class="B C D"/><use xlink:href="#An" class="E"/><use xlink:href="#An" class="B C D"/><use xlink:href="#Ao" class="L"/><use xlink:href="#Ao" class="B C D"/><use xlink:href="#Ap" class="G"/><use xlink:href="#Ap" class="B C D"/><use xlink:href="#Aq" class="L"/><use xlink:href="#Aq" class="B C D"/><use xlink:href="#Ar" class="E"/><use xlink:href="#Ar" class="B C D"/><use xlink:href="#As" class="G"/><use xlink:href="#As" class="B C D"/><use xlink:href="#At" class="N"/><use xlink:href="#At" class="B C D"/><use xlink:href="#Au" class="K"/><use xlink:href="#Au" class="B C D"/><use xlink:href="#Av" class="G"/><use xlink:href="#Av" class="B C D"/><use xlink:href="#Aw" class="N"/><use xlink:href="#Aw" class="B C D"/><use xlink:href="#Ax" class="K"/><use xlink:href="#Ax" class="B C D"/><use xlink:href="#Ay" class="G"/><use xlink:href="#Ay" class="B C D"/><use xlink:href="#Az" class="G"/><use xlink:href="#Az" class="B C D"/><use xlink:href="#BA" class="G"/><use xlink:href="#BA" class="B C D"/><use xlink:href="#BB" class="F"/><use xlink:href="#BB" class="B C D"/><use xlink:href="#BC" class="F"/><use xlink:href="#BC" class="B C D"/><use xlink:href="#BD" class="I"/><use xlink:href="#BD" class="B C D"/><use xlink:href="#BE" class="F"/><use xlink:href="#BE" class="B C D"/><use xlink:href="#BF" class="F"/><use xlink:href="#BF" class="B C D"/><use xlink:href="#BG" class="F"/><use xlink:href="#BG" class="B C D"/><use xlink:href="#BH" class="F"/><use xlink:href="#BH" class="B C D"/><use xlink:href="#BI" class="F"/><use xlink:href="#BI" class="B C D"/><use xlink:href="#BJ" class="F"/><use xlink:href="#BJ" class="B C D"/><use xlink:href="#BK" class="F"/><use xlink:href="#BK" class="B C D"/><use xlink:href="#BL" class="I"/><use xlink:href="#BL" class="B C D"/><use xlink:href="#BM" class="I"/><use xlink:href="#BM" class="B C D"/><use xlink:href="#BN" class="L"/><use xlink:href="#BN" class="B C D"/><use xlink:href="#BO" class="G"/><use xlink:href="#BO" class="B C D"/><use xlink:href="#BP" class="L"/><use xlink:href="#BP" class="B C D"/><use xlink:href="#BQ" class="G"/><use xlink:href="#BQ" class="B C D"/><use xlink:href="#BR" class="F"/><use xlink:href="#BR" class="B C D"/><use xlink:href="#BS" class="F"/><use xlink:href="#BS" class="B C D"/><use xlink:href="#BT" class="E"/><use xlink:href="#BT" class="B C D"/><use xlink:href="#BU" class="F"/><use xlink:href="#BU" class="B C D"/><use xlink:href="#BV" class="F"/><use xlink:href="#BV" class="B C D"/><use xlink:href="#BW" class="F"/><use xlink:href="#BW" class="B C D"/><use xlink:href="#BX" class="F"/><use xlink:href="#BX" class="B C D"/><use xlink:href="#BY" class="F"/><use xlink:href="#BY" class="B C D"/><use xlink:href="#BZ" class="F"/><use xlink:href="#BZ" class="B C D"/><use xlink:href="#Ba" class="F"/><use xlink:href="#Ba" class="B C D"/><use xlink:href="#Bb" class="E"/><use xlink:href="#Bb" class="B C D"/><use xlink:href="#Bc" class="E"/><use xlink:href="#Bc" class="B C D"/><use xlink:href="#Bd" class="L"/><use xlink:href="#Bd" class="B C D"/><use xlink:href="#Be" class="G"/><use xlink:href="#Be" class="B C D"/><use xlink:href="#Bf" class="L"/><use xlink:href="#Bf" class="B C D"/><use xlink:href="#Bg" class="G"/><use xlink:href="#Bg" class="B C D"/><use xlink:href="#Bh" class="I"/><use xlink:href="#Bh" class="B C D"/><use xlink:href="#Bi" class="H"/><use xlink:href="#Bi" class="B C D"/><use xlink:href="#Bj" class="H"/><use xlink:href="#Bj" class="B C D"/><use xlink:href="#Bk" class="H"/><use xlink:href="#Bk" class="B C D"/><use xlink:href="#Bl" class="H"/><use xlink:href="#Bl" class="B C D"/><use xlink:href="#Bm" class="H"/><use xlink:href="#Bm" class="B C D"/><use xlink:href="#Bn" class="H"/><use xlink:href="#Bn" class="B C D"/><use xlink:href="#Bo" class="H"/><use xlink:href="#Bo" class="B C D"/><use xlink:href="#Bp" class="N"/><use xlink:href="#Bp" class="B C D"/><use xlink:href="#Bq" class="H"/><use xlink:href="#Bq" class="B C D"/><use xlink:href="#Br" class="H"/><use xlink:href="#Br" class="B C D"/><use xlink:href="#Bs" fill="#a7a5a6"/><use xlink:href="#Bs" class="B C D"/><use xlink:href="#Bt" class="L"/><use xlink:href="#Bt" class="B C D"/><use xlink:href="#Bu" fill="#e9ad17"/><use xlink:href="#Bu" class="B C D"/><use xlink:href="#Bv" class="H"/><use xlink:href="#Bv" class="B C D"/><use xlink:href="#Bw" class="H"/><use xlink:href="#Bw" class="B C D"/><use xlink:href="#Bx" fill="#eaf3ea"/><use xlink:href="#Bx" class="B C D"/><use xlink:href="#By" class="H"/><use xlink:href="#By" class="B C D"/><use xlink:href="#Bz" class="H"/><use xlink:href="#Bz" class="B C D"/><use xlink:href="#CA" class="H"/><use xlink:href="#CA" class="B C D"/><use xlink:href="#CB" class="N"/><use xlink:href="#CB" class="B C D"/><use xlink:href="#CC" class="H"/><use xlink:href="#CC" class="B C D"/><use xlink:href="#CD" class="H"/><use xlink:href="#CD" class="B C D"/><use xlink:href="#CE" class="H"/><use xlink:href="#CE" class="B C D"/><use xlink:href="#CF" class="H"/><use xlink:href="#CF" class="B C D"/><use xlink:href="#CG" fill="#a7a5a6"/><use xlink:href="#CG" class="B C D"/><use xlink:href="#CH" class="L"/><use xlink:href="#CH" class="B C D"/><use xlink:href="#CI" fill="#f1b415"/><use xlink:href="#CI" class="B C D"/><use xlink:href="#CJ" class="H"/><use xlink:href="#CJ" class="B C D"/><use xlink:href="#CK" class="H"/><use xlink:href="#CK" class="B C D"/><use xlink:href="#CL" fill="#f7d22e"/><use xlink:href="#CL" class="B C D"/><use xlink:href="#CM" class="H"/><use xlink:href="#CM" class="B C D"/><use xlink:href="#CN" class="H"/><use xlink:href="#CN" class="B C D"/><use xlink:href="#CO" class="H"/><use xlink:href="#CO" class="B C D"/><use xlink:href="#CP" class="I"/><use xlink:href="#CP" class="B C D"/><use xlink:href="#CQ" class="I"/><use xlink:href="#CQ" class="B C D"/><use xlink:href="#CR" class="I"/><use xlink:href="#CR" class="B C D"/><use xlink:href="#CS" class="I"/><use xlink:href="#CS" class="B C D"/><use xlink:href="#CT" fill="#d6e1e5"/><use xlink:href="#CT" class="B C D"/><use xlink:href="#CU" fill="#e9ad17"/><use xlink:href="#CU" class="B C D"/><use xlink:href="#CV" class="H"/><use xlink:href="#CV" class="B C D"/><use xlink:href="#CW" fill="#fad22b"/><use xlink:href="#CW" class="B C D"/><use xlink:href="#CX" fill="#fad22b"/><use xlink:href="#CX" class="B C D"/><use xlink:href="#CY" class="G"/><use xlink:href="#CY" class="B C D"/><use xlink:href="#CZ" class="O"/><use xlink:href="#CZ" class="B C D"/><use xlink:href="#Ca" class="K"/><use xlink:href="#Ca" class="B C D"/><use xlink:href="#Cb" class="I"/><use xlink:href="#Cb" class="B C D"/><use xlink:href="#Cc" class="K"/><use xlink:href="#Cc" class="B C D"/><use xlink:href="#Cd" class="K"/><use xlink:href="#Cd" class="B C D"/><use xlink:href="#Ce" class="K"/><use xlink:href="#Ce" class="B C D"/><use xlink:href="#Cf" class="K"/><use xlink:href="#Cf" class="B C D"/><use xlink:href="#Cg" class="O"/><use xlink:href="#Cg" class="B C D"/><use xlink:href="#Ch" class="J"/><use xlink:href="#Ch" class="B C D"/><use xlink:href="#Ci" class="N"/><use xlink:href="#Ci" class="B C D"/><use xlink:href="#Cj" class="K"/><use xlink:href="#Cj" class="B C D"/><use xlink:href="#Ck" class="L"/><use xlink:href="#Ck" class="B C D"/><use xlink:href="#Cl" class="O"/><use xlink:href="#Cl" class="B C D"/><use xlink:href="#Cm" class="O"/><use xlink:href="#Cm" class="B C D"/><use xlink:href="#Cn" class="K"/><use xlink:href="#Cn" class="B C D"/><use xlink:href="#Co" class="I"/><use xlink:href="#Co" class="B C D"/><use xlink:href="#Cp" class="K"/><use xlink:href="#Cp" class="B C D"/><use xlink:href="#Cq" class="K"/><use xlink:href="#Cq" class="B C D"/><use xlink:href="#Cr" class="O"/><use xlink:href="#Cr" class="B C D"/><use xlink:href="#Cs" class="J"/><use xlink:href="#Cs" class="B C D"/><use xlink:href="#Ct" class="N"/><use xlink:href="#Ct" class="B C D"/><use xlink:href="#Cu" class="K"/><use xlink:href="#Cu" class="B C D"/><use xlink:href="#Cv" class="L"/><use xlink:href="#Cv" class="B C D"/><use xlink:href="#Cw" class="O"/><use xlink:href="#Cw" class="B C D"/><use xlink:href="#Cx" class="I"/><use xlink:href="#Cx" class="B C D"/><use xlink:href="#Cy" class="I"/><use xlink:href="#Cy" class="B C D"/><use xlink:href="#Cz" class="K" href="#Ce"/><use xlink:href="#Cz" class="B C D" href="#Ce"/><use xlink:href="#Cz" class="M"/><use xlink:href="#Cz" class="B C D"/><use xlink:href="#DA" class="M"/><use xlink:href="#DA" class="B C D"/><use xlink:href="#DB" class="M"/><use xlink:href="#DB" class="B C D"/><use xlink:href="#DC" class="M"/><use xlink:href="#DC" class="B C D"/><use xlink:href="#DD" class="M"/><use xlink:href="#DD" class="B C D"/><use xlink:href="#DE" class="M"/><use xlink:href="#DE" class="B C D"/><use xlink:href="#DF" class="M"/><use xlink:href="#DF" class="B C D"/><use xlink:href="#DG" class="M"/><use xlink:href="#DG" class="B C D"/></svg>